<svg width="100" height="100" viewBox="0 0 100 100" fill="none" xmlns="http://www.w3.org/2000/svg">
<path d="M47.75 3.03109C49.1423 2.22724 50.8577 2.22724 52.25 3.03109L89.5513 24.567C90.9436 25.3708 91.8013 26.8564 91.8013 28.4641V71.5359C91.8013 73.1436 90.9436 74.6292 89.5513 75.433L52.25 96.9689C50.8577 97.7728 49.1423 97.7728 47.75 96.9689L10.4487 75.433C9.05643 74.6292 8.19873 73.1436 8.19873 71.5359V28.4641C8.19873 26.8564 9.05643 25.3708 10.4487 24.567L47.75 3.03109Z" fill="#FFCD19" stroke="#B26128" stroke-width="3"/>
<path d="M43.0269 81.202C43.0176 81.09 43.0129 80.978 43.0129 80.866C43.0129 80.754 43.0129 80.642 43.0129 80.53V78.514C42.7516 78.5233 42.5042 78.528 42.2709 78.528C42.0469 78.5187 41.8462 78.5093 41.6689 78.5C41.5196 78.5 41.4029 78.5 41.3189 78.5C41.2349 78.5 41.1556 78.5 41.0809 78.5C41.0062 78.5 40.9222 78.5 40.8289 78.5C40.7449 78.5 40.6329 78.5 40.4929 78.5C40.2316 78.5 39.9842 78.4767 39.7509 78.43C39.5176 78.3833 39.2936 78.2667 39.0789 78.08C38.9389 77.9493 38.8456 77.8093 38.7989 77.66C38.7616 77.5013 38.7942 77.3427 38.8969 77.184C39.0276 76.988 39.1909 76.862 39.3869 76.806C39.5829 76.7407 39.7836 76.694 39.9889 76.666C40.1102 76.6473 40.1849 76.638 40.2129 76.638C40.2409 76.638 40.2549 76.638 40.2549 76.638C40.2549 76.638 40.2642 76.6427 40.2829 76.652C40.3109 76.652 40.3902 76.6473 40.5209 76.638H43.0129V76.19C43.0129 76.0407 43.0129 75.854 43.0129 75.63C43.0129 75.3967 43.0036 75.2007 42.9849 75.042C42.9756 74.9953 42.9616 74.93 42.9429 74.846C42.9336 74.762 42.9056 74.7107 42.8589 74.692C42.8122 74.664 42.7562 74.6547 42.6909 74.664C42.6349 74.664 42.5789 74.6593 42.5229 74.65C42.4576 74.6407 42.3922 74.6407 42.3269 74.65C42.2709 74.6593 42.2102 74.6593 42.1449 74.65H41.0529C40.8942 74.6593 40.7356 74.6593 40.5769 74.65C40.4182 74.6407 40.2596 74.6407 40.1009 74.65C40.0262 74.6593 39.9562 74.664 39.8909 74.664C39.8349 74.6547 39.7696 74.65 39.6949 74.65C39.5922 74.65 39.4849 74.6453 39.3729 74.636C39.2609 74.6267 39.1582 74.5893 39.0649 74.524C38.9342 74.4307 38.8456 74.314 38.7989 74.174C38.7522 74.034 38.7289 73.8893 38.7289 73.74C38.7196 73.5627 38.7569 73.3853 38.8409 73.208C38.8876 73.096 38.9482 73.0167 39.0229 72.97C39.0696 72.9233 39.1349 72.886 39.2189 72.858C39.3122 72.8207 39.3916 72.7927 39.4569 72.774C39.6529 72.7273 39.8582 72.704 40.0729 72.704C40.2876 72.6947 40.4976 72.69 40.7029 72.69H43.5729C43.6942 72.7087 43.8202 72.7273 43.9509 72.746C44.0909 72.7553 44.2169 72.7833 44.3289 72.83C44.4036 72.858 44.4736 72.8953 44.5389 72.942C44.6136 72.9887 44.6742 73.0447 44.7209 73.11C44.8049 73.2407 44.8516 73.3713 44.8609 73.502C44.8796 73.6327 44.8982 73.7773 44.9169 73.936C44.9356 74.1973 44.9449 74.4587 44.9449 74.72C44.9449 74.972 44.9449 75.2287 44.9449 75.49V80.208C44.9449 80.2173 44.9449 80.292 44.9449 80.432C44.9542 80.5627 44.9589 80.7213 44.9589 80.908C44.9589 81.0853 44.9589 81.2767 44.9589 81.482C44.9589 81.678 44.9542 81.8507 44.9449 82C44.9356 82.0933 44.9216 82.1913 44.9029 82.294C44.8842 82.3967 44.8516 82.4947 44.8049 82.588C44.7676 82.6813 44.7116 82.7653 44.6369 82.84C44.5622 82.9147 44.4642 82.9753 44.3429 83.022C44.1842 83.0873 44.0256 83.12 43.8669 83.12C43.7456 83.12 43.6242 83.092 43.5029 83.036C43.3816 82.9893 43.2976 82.9147 43.2509 82.812C43.1016 82.5133 43.0269 82.182 43.0269 81.818V81.202ZM48.7949 76.708C48.8416 76.708 48.8836 76.7127 48.9209 76.722C48.9676 76.7313 49.0142 76.736 49.0609 76.736C49.1076 76.7453 49.1589 76.7547 49.2149 76.764C49.2709 76.764 49.3269 76.7687 49.3829 76.778C49.4856 76.7967 49.5882 76.834 49.6909 76.89C49.7936 76.9367 49.8682 77.0113 49.9149 77.114C49.9802 77.2167 50.0129 77.338 50.0129 77.478C50.0129 77.5527 50.0082 77.6227 49.9989 77.688C49.9989 77.744 49.9896 77.8093 49.9709 77.884C49.9522 77.9587 49.9289 78.038 49.9009 78.122C49.8822 78.206 49.8402 78.2713 49.7749 78.318C49.6442 78.4113 49.5182 78.472 49.3969 78.5C49.2476 78.5187 49.0656 78.5233 48.8509 78.514C48.6362 78.5047 48.4542 78.5047 48.3049 78.514C48.2956 78.514 48.2862 78.5187 48.2769 78.528H48.2629L48.2489 78.542V78.584C48.2489 78.696 48.2489 78.8313 48.2489 78.99C48.2489 79.1393 48.2489 79.298 48.2489 79.466C48.2489 79.6247 48.2489 79.7833 48.2489 79.942C48.2489 80.0913 48.2489 80.2267 48.2489 80.348C48.2676 80.8333 48.2676 81.3093 48.2489 81.776V81.972C48.2489 82.0933 48.2442 82.224 48.2349 82.364C48.2349 82.5133 48.2256 82.658 48.2069 82.798C48.1882 82.938 48.1556 83.0687 48.1089 83.19C48.0622 83.3207 47.9969 83.428 47.9129 83.512C47.8009 83.6427 47.6516 83.708 47.4649 83.708C47.4649 83.708 47.4556 83.7033 47.4369 83.694C47.2129 83.6847 47.0309 83.6193 46.8909 83.498C46.7602 83.3767 46.6576 83.2273 46.5829 83.05C46.5176 82.8727 46.4756 82.686 46.4569 82.49C46.4382 82.3033 46.4289 82.1353 46.4289 81.986V73.67C46.4289 73.6607 46.4289 73.6187 46.4289 73.544C46.4289 73.46 46.4382 73.3667 46.4569 73.264C46.4756 73.152 46.5036 73.04 46.5409 72.928C46.5876 72.8067 46.6482 72.7087 46.7229 72.634C46.7882 72.5687 46.8816 72.522 47.0029 72.494C47.1336 72.4567 47.2502 72.438 47.3529 72.438C47.5582 72.438 47.7309 72.508 47.8709 72.648C48.0016 72.7787 48.0762 72.9187 48.0949 73.068C48.1229 73.208 48.1462 73.3573 48.1649 73.516C48.1742 73.5533 48.1789 73.6093 48.1789 73.684C48.1976 73.8427 48.2069 74.006 48.2069 74.174C48.2162 74.342 48.2256 74.51 48.2349 74.678C48.2349 74.7807 48.2349 74.8833 48.2349 74.986C48.2442 75.0793 48.2489 75.1773 48.2489 75.28C48.2396 75.336 48.2349 75.392 48.2349 75.448C48.2442 75.4947 48.2489 75.5413 48.2489 75.588V76.372C48.2489 76.4187 48.2489 76.47 48.2489 76.526C48.2489 76.582 48.2582 76.6333 48.2769 76.68C48.2769 76.6893 48.3236 76.694 48.4169 76.694C48.5102 76.694 48.5616 76.694 48.5709 76.694C48.6549 76.7127 48.7202 76.7173 48.7669 76.708H48.7949ZM58.722 81.986C58.722 82.2193 58.7127 82.406 58.694 82.546C58.6847 82.686 58.6427 82.8633 58.568 83.078C58.5213 83.218 58.4513 83.3347 58.358 83.428C58.2647 83.5213 58.1153 83.568 57.91 83.568C57.854 83.568 57.784 83.5587 57.7 83.54C57.616 83.5307 57.5507 83.5073 57.504 83.47C57.4107 83.414 57.336 83.3207 57.28 83.19C57.2333 83.0687 57.196 82.938 57.168 82.798C57.14 82.658 57.1213 82.5227 57.112 82.392C57.112 82.2613 57.112 82.1587 57.112 82.084V78.724L56.496 78.71C56.412 78.71 56.3187 78.7007 56.216 78.682C56.1227 78.654 56.0293 78.6167 55.936 78.57C55.852 78.514 55.7773 78.444 55.712 78.36C55.6467 78.2667 55.6093 78.15 55.6 78.01C55.5813 77.842 55.5907 77.6647 55.628 77.478C55.6747 77.2913 55.8053 77.1467 56.02 77.044C56.104 76.9973 56.1973 76.9693 56.3 76.96C56.412 76.9413 56.5147 76.9367 56.608 76.946L57.112 76.932V73.698C57.112 73.5767 57.112 73.4553 57.112 73.334C57.112 73.2033 57.126 73.0773 57.154 72.956C57.1727 72.9093 57.1867 72.8673 57.196 72.83C57.2147 72.7927 57.2333 72.7507 57.252 72.704C57.308 72.6107 57.364 72.5407 57.42 72.494C57.476 72.438 57.5553 72.3913 57.658 72.354C57.7047 72.3353 57.7513 72.326 57.798 72.326C57.854 72.3167 57.9053 72.312 57.952 72.312C58.1107 72.312 58.2367 72.3493 58.33 72.424C58.4327 72.4987 58.5213 72.6013 58.596 72.732C58.6333 72.788 58.6567 72.8673 58.666 72.97C58.6847 73.0727 58.6987 73.18 58.708 73.292C58.7173 73.3947 58.722 73.488 58.722 73.572C58.722 73.6467 58.722 73.6933 58.722 73.712V80.404V81.986ZM60.948 83.176C60.892 83.2973 60.8033 83.4 60.682 83.484C60.5793 83.5493 60.486 83.5867 60.402 83.596C60.3273 83.6147 60.2293 83.61 60.108 83.582C59.968 83.554 59.8513 83.4933 59.758 83.4C59.674 83.316 59.6087 83.218 59.562 83.106C59.5153 82.994 59.4827 82.8727 59.464 82.742C59.4453 82.6113 59.436 82.4853 59.436 82.364V73.852C59.436 73.7493 59.436 73.6327 59.436 73.502C59.436 73.362 59.4453 73.2313 59.464 73.11C59.4827 72.9793 59.506 72.858 59.534 72.746C59.5713 72.634 59.6227 72.5453 59.688 72.48C59.7907 72.3867 59.884 72.3307 59.968 72.312C60.0613 72.284 60.1733 72.27 60.304 72.27C60.4627 72.27 60.598 72.3167 60.71 72.41C60.822 72.494 60.906 72.6107 60.962 72.76C61.046 72.956 61.0927 73.1567 61.102 73.362C61.1113 73.5673 61.1207 73.7773 61.13 73.992V74.062C61.1487 74.7713 61.1533 75.4993 61.144 76.246C61.1347 76.9833 61.13 77.6833 61.13 78.346V81.846C61.13 82.0887 61.1207 82.322 61.102 82.546C61.0927 82.77 61.0413 82.98 60.948 83.176ZM56.468 74.384C56.4493 74.4213 56.398 74.454 56.314 74.482C56.1553 74.5567 56.006 74.5847 55.866 74.566C55.726 74.5473 55.572 74.5567 55.404 74.594C55.4227 74.7247 55.432 74.846 55.432 74.958C55.4413 75.0607 55.446 75.1493 55.446 75.224V81.23C55.446 81.2207 55.4787 81.2207 55.544 81.23C55.6093 81.2393 55.6793 81.2533 55.754 81.272C55.838 81.2813 55.9127 81.2953 55.978 81.314C56.0527 81.3327 56.0993 81.342 56.118 81.342C56.3233 81.3793 56.4773 81.44 56.58 81.524C56.6827 81.5987 56.72 81.7713 56.692 82.042C56.6733 82.266 56.6313 82.4293 56.566 82.532C56.5007 82.644 56.412 82.714 56.3 82.742C56.1973 82.7793 56.076 82.7933 55.936 82.784C55.8053 82.784 55.656 82.784 55.488 82.784C55.2733 82.7933 55.0587 82.7933 54.844 82.784C54.6293 82.784 54.4193 82.784 54.214 82.784C54.046 82.784 53.9013 82.784 53.78 82.784C53.668 82.784 53.556 82.784 53.444 82.784C53.332 82.784 53.2153 82.784 53.094 82.784C52.982 82.7933 52.8467 82.798 52.688 82.798C52.464 82.798 52.24 82.798 52.016 82.798C51.8013 82.798 51.582 82.7933 51.358 82.784C51.2553 82.784 51.1387 82.7747 51.008 82.756C50.8773 82.7373 50.756 82.7 50.644 82.644C50.532 82.5973 50.434 82.5273 50.35 82.434C50.266 82.3407 50.2147 82.2193 50.196 82.07C50.1773 81.8553 50.2053 81.6967 50.28 81.594C50.364 81.482 50.4713 81.4073 50.602 81.37C50.742 81.3233 50.8867 81.3 51.036 81.3C51.1947 81.2907 51.3347 81.2767 51.456 81.258C51.456 81.174 51.4513 81.048 51.442 80.88C51.442 80.712 51.442 80.5393 51.442 80.362C51.442 80.1753 51.442 80.0027 51.442 79.844C51.442 79.676 51.442 79.55 51.442 79.466V75.42C51.442 75.392 51.4327 75.2987 51.414 75.14C51.4047 74.9813 51.4047 74.7993 51.414 74.594C51.2833 74.5847 51.162 74.58 51.05 74.58C50.9473 74.58 50.8447 74.566 50.742 74.538C50.6487 74.51 50.56 74.4633 50.476 74.398C50.4013 74.3233 50.3313 74.216 50.266 74.076C50.1633 73.8613 50.1587 73.6653 50.252 73.488C50.3453 73.3013 50.4853 73.1707 50.672 73.096C50.868 73.0213 51.0593 72.9747 51.246 72.956C51.442 72.9373 51.6427 72.928 51.848 72.928C52.184 72.928 52.5013 72.928 52.8 72.928C53.0987 72.928 53.388 72.9327 53.668 72.942C53.9573 72.942 54.2513 72.942 54.55 72.942C54.8487 72.942 55.1707 72.942 55.516 72.942C55.6747 72.942 55.852 72.9653 56.048 73.012C56.244 73.0493 56.4027 73.1427 56.524 73.292C56.58 73.3667 56.622 73.4553 56.65 73.558C56.6873 73.6513 56.7013 73.7493 56.692 73.852C56.692 73.9547 56.6733 74.0573 56.636 74.16C56.5987 74.2533 56.5427 74.328 56.468 74.384ZM53.164 74.594C53.108 74.5847 53.0707 74.6033 53.052 74.65C53.0427 74.6873 53.038 74.7387 53.038 74.804C53.0287 74.8973 53.0193 75.014 53.01 75.154C53.01 75.294 53.0147 75.4293 53.024 75.56L53.038 80.964C53.038 80.992 53.0427 81.0433 53.052 81.118C53.0707 81.1833 53.1173 81.2207 53.192 81.23H53.822V75.826C53.822 75.826 53.822 75.784 53.822 75.7C53.822 75.6067 53.822 75.4993 53.822 75.378C53.822 75.2567 53.8173 75.14 53.808 75.028C53.808 74.9067 53.8033 74.818 53.794 74.762C53.794 74.734 53.7893 74.706 53.78 74.678C53.78 74.6407 53.752 74.6127 53.696 74.594H53.164Z" fill="#24221B"/>
<path d="M29.3123 59.357C29.3123 62.493 37.2776 65.0349 47.1034 65.0349C56.9292 65.0349 64.8945 62.493 64.8945 59.357C64.8945 56.2209 56.9292 53.679 47.1034 53.679C37.2776 53.6786 29.3123 56.2209 29.3123 59.357Z" fill="#E26969"/>
<path d="M47.5624 65.9943C38.3807 65.9943 28.6217 63.668 28.6217 59.357C28.6217 55.046 38.3807 52.7196 47.5624 52.7196C56.744 52.7196 66.5031 55.0455 66.5031 59.357C66.5031 63.6684 56.7446 65.9943 47.5624 65.9943ZM47.5624 54.6381C37.252 54.6381 30.9209 57.3863 30.9209 59.3565C30.9209 61.3268 37.252 64.075 47.5624 64.075C57.8728 64.075 64.2039 61.3268 64.2039 59.3565C64.2039 57.3863 57.8728 54.6381 47.5624 54.6381Z" fill="#4C2F1B"/>
<path d="M64.4626 43.7197L47.7783 43.9674H30.851C30.851 43.9674 29.609 60.2803 47.7783 60.2803C65.9476 60.2803 64.4626 43.7197 64.4626 43.7197Z" fill="#FF7171"/>
<path d="M47.6724 61.2402C42.216 61.2402 37.8711 59.8323 34.7572 57.0559C29.693 52.5529 29.524 45.9129 29.5928 43.9848L29.5954 43.9C29.6382 43.4072 30.1436 43.0084 30.745 43.0084H47.6724L64.3364 42.7603C64.9805 42.7603 65.464 43.1412 65.5073 43.6466C65.5741 44.4959 66.0023 52.0814 60.4786 57.0572C57.3903 59.8328 53.0814 61.2402 47.6724 61.2402ZM31.8946 45.1689C31.9703 47.2093 32.5654 52.3252 36.4529 55.7551C39.1224 58.1211 42.9061 59.3208 47.699 59.3208C52.4304 59.3208 56.1603 58.128 58.7845 55.7764C62.6725 52.2764 63.2097 47.033 63.2603 44.9413L63.266 44.6975L47.7209 44.9273H31.8858L31.8946 45.1689Z" fill="#4C2F1B"/>
<path d="M30.635 44.2156C30.635 48.0481 38.2138 51.1555 47.5624 51.1555C56.911 51.1555 64.4897 48.0481 64.4897 44.2156C64.4897 40.3825 56.9115 37.2756 47.5624 37.2756C38.2138 37.2756 30.635 40.3825 30.635 44.2156Z" fill="#D6E6EA"/>
<path d="M30.635 44.2156C30.635 48.0481 38.2138 51.1555 47.5624 51.1555C56.911 51.1555 64.4897 48.0481 64.4897 44.2156C64.4897 40.3825 56.9115 37.2756 47.5624 37.2756C38.2138 37.2756 30.635 40.3825 30.635 44.2156Z" fill="#FCDCD6"/>
<path d="M47.2927 40.723C39.5173 40.723 34.0103 42.9762 31.8504 45.5224C32.0934 49.3302 38.3839 51.1555 47.5895 51.1555C56.0665 51.1555 62.0873 50.0742 63.3558 46.6943C62.0602 43.6745 55.9585 40.723 47.2927 40.723Z" fill="#724E3B"/>
<path d="M47.5624 52.1145C37.4257 52.1145 29.4854 48.645 29.4854 44.2156C29.4854 39.7861 37.4257 36.3162 47.5624 36.3162C57.6991 36.3162 65.6393 39.7861 65.6393 44.2156C65.6393 48.645 57.6991 52.1145 47.5624 52.1145ZM47.5624 38.2351C38.1246 38.2351 31.7846 41.3272 31.7846 44.2156C31.7846 47.0443 38.2644 50.1956 47.5624 50.1956C56.8604 50.1956 63.3396 47.0438 63.3396 44.2156C63.3401 41.3272 57.0002 38.2351 47.5624 38.2351Z" fill="#4C2F1B"/>
<path d="M36.8176 46.3561C36.8176 46.3561 43.567 45.8829 44.9435 45.6352C46.2934 45.387 48.6693 45.4323 50.208 45.387C51.7467 45.3422 56.6064 45.8602 56.6064 45.8602C56.6064 45.8602 51.5041 45.9277 51.2882 45.8602C51.0722 45.7928 45.8886 46.4235 45.8886 46.4235L36.8176 46.3561ZM37.5739 44.1028C37.5739 44.1028 41.2991 42.4356 42.6495 42.2101C43.9994 41.9624 46.3748 42.0072 47.914 41.9624C49.4527 41.9171 52.5578 42.2327 52.5578 42.2327C52.5578 42.2327 49.2101 42.503 48.9942 42.4356C48.7783 42.3681 44.3233 43.4046 44.3233 43.4046L37.5739 44.1028ZM43.216 49.0821C43.216 49.0821 45.0786 48.992 46.4285 48.7443C47.7784 48.4966 50.1542 48.5414 51.6929 48.4966C53.2317 48.4739 54.3927 48.2937 54.3927 48.2937C54.3927 48.2937 52.9077 48.8122 52.4487 48.9471C52.2328 49.0146 48.9123 49.4656 48.9123 49.4656L43.216 49.0821Z" fill="#9B6F5C"/>
<path d="M41.875 33.403C41.6862 33.403 41.4702 33.3356 41.308 33.2228C40.957 32.9525 40.9027 32.5015 41.2272 32.209C42.2797 31.2177 41.9292 30.4289 41.659 30.0685C41.5782 29.9557 41.4431 29.843 41.308 29.708C40.6602 29.0546 39.4183 27.8605 41.1192 25.9451C41.3894 25.6295 41.9292 25.562 42.3069 25.7875C42.685 26.0126 42.7659 26.4631 42.4957 26.7787C41.6048 27.7926 41.983 28.1535 42.6037 28.7616C42.7653 28.9192 42.9276 29.0772 43.0627 29.2575C43.4137 29.708 44.4125 31.3078 42.4957 33.1327C42.3611 33.3129 42.118 33.403 41.875 33.403Z" fill="#4C2F1B"/>
<path d="M44.5526 33.403C44.3638 33.403 44.1474 33.3356 43.9857 33.2228C43.6346 32.9525 43.5809 32.5019 43.9048 32.209C44.9579 31.2177 44.6069 30.4289 44.3367 30.0685C44.2558 29.9557 44.1208 29.8434 43.9857 29.708C43.3378 29.0546 42.0959 27.8601 43.7968 25.9451C44.067 25.6295 44.6069 25.562 44.9845 25.7875C45.3627 26.013 45.4435 26.4636 45.1733 26.7792C44.2825 27.793 44.6601 28.1535 45.2813 28.7621C45.443 28.9197 45.6052 29.0777 45.7403 29.2579C46.0913 29.7085 47.0902 31.3083 45.1733 33.1331C45.0382 33.3356 44.7952 33.403 44.5526 33.403Z" fill="#4C2F1B"/>
<path d="M54.4022 33.403C54.2133 33.403 53.9974 33.3356 53.8352 33.2228C53.4841 32.9525 53.4299 32.5015 53.7538 32.209C54.8069 31.2177 54.4559 30.4289 54.1857 30.0685C54.1048 29.9557 53.9698 29.843 53.8347 29.708C53.1868 29.0546 51.9449 27.8605 53.6458 25.9451C53.916 25.6295 54.4559 25.562 54.834 25.7875C55.2122 26.0126 55.293 26.4631 55.0229 26.7787C54.132 27.7926 54.5096 28.1535 55.1308 28.7616C55.2925 28.9192 55.4547 29.0772 55.5898 29.2575C55.9409 29.708 56.9397 31.3078 55.0229 33.1327C54.8878 33.3129 54.6452 33.403 54.4022 33.403Z" fill="#4C2F1B"/>
<path d="M47.8325 53.4535C46.3476 53.4988 45.187 54.5353 44.8089 55.4364C44.2148 56.856 45.2945 57.667 46.2396 57.667C46.8337 57.667 47.5352 56.856 47.2656 56.0899C46.8066 54.8727 49.0473 53.4083 47.8325 53.4535ZM47.8325 57.802C49.3175 57.7567 50.3701 56.7206 50.7483 55.8191C51.3424 54.3995 50.2627 53.5885 49.2362 53.5885C48.858 53.5885 48.0485 53.9938 48.291 55.1657C48.5612 56.4277 46.6177 57.8472 47.8325 57.802Z" fill="white"/>
</svg>
