<svg width="100" height="100" viewBox="0 0 100 100" fill="none" xmlns="http://www.w3.org/2000/svg">
<path d="M47.75 3.03109C49.1423 2.22724 50.8577 2.22724 52.25 3.03109L89.5513 24.567C90.9436 25.3708 91.8013 26.8564 91.8013 28.4641V71.5359C91.8013 73.1436 90.9436 74.6292 89.5513 75.433L52.25 96.9689C50.8577 97.7728 49.1423 97.7728 47.75 96.9689L10.4487 75.433C9.05643 74.6292 8.19873 73.1436 8.19873 71.5359V28.4641C8.19873 26.8564 9.05643 25.3708 10.4487 24.567L47.75 3.03109Z" fill="#FFCD19" stroke="#B26128" stroke-width="3"/>
<path d="M46.2781 74.44C46.2408 74.4773 46.1848 74.51 46.1101 74.538C45.9421 74.6127 45.7555 74.6407 45.5501 74.622C45.3448 74.6033 45.1535 74.6127 44.9761 74.65C44.9948 74.7807 45.0041 74.902 45.0041 75.014C45.0135 75.126 45.0181 75.2193 45.0181 75.294V81.244C45.0181 81.2347 45.0601 81.2347 45.1441 81.244C45.2281 81.2533 45.3215 81.2673 45.4241 81.286C45.5268 81.2953 45.6248 81.3093 45.7181 81.328C45.8115 81.3467 45.8675 81.356 45.8861 81.356C46.1101 81.3933 46.2781 81.454 46.3901 81.538C46.5021 81.6127 46.5441 81.79 46.5161 82.07C46.4975 82.3033 46.4508 82.4713 46.3761 82.574C46.3015 82.686 46.2035 82.7607 46.0821 82.798C45.9608 82.8447 45.8208 82.8633 45.6621 82.854C45.5128 82.854 45.3495 82.854 45.1721 82.854C44.9388 82.8633 44.7055 82.8633 44.4721 82.854C44.2388 82.854 44.0101 82.854 43.7861 82.854C43.4315 82.854 43.0768 82.854 42.7221 82.854C42.3768 82.854 42.0268 82.8587 41.6721 82.868C41.4295 82.868 41.1868 82.868 40.9441 82.868C40.7108 82.868 40.4728 82.8633 40.2301 82.854C40.1181 82.854 39.9828 82.8447 39.8241 82.826C39.6748 82.8073 39.5255 82.77 39.3761 82.714C39.2361 82.658 39.1148 82.5787 39.0121 82.476C38.9095 82.3827 38.8488 82.2567 38.8301 82.098C38.8021 81.8833 38.8441 81.7247 38.9561 81.622C39.0681 81.51 39.2081 81.4307 39.3761 81.384C39.5441 81.3373 39.7215 81.314 39.9081 81.314C40.1041 81.3047 40.2675 81.2907 40.3981 81.272C40.3888 81.0947 40.3841 80.922 40.3841 80.754C40.3935 80.586 40.3981 80.418 40.3981 80.25V75.49C40.3981 75.462 40.3888 75.3687 40.3701 75.21C40.3608 75.0513 40.3608 74.8647 40.3701 74.65C40.2301 74.6407 40.0901 74.636 39.9501 74.636C39.8101 74.636 39.6701 74.622 39.5301 74.594C39.3995 74.566 39.2781 74.5193 39.1661 74.454C39.0541 74.3793 38.9655 74.2673 38.9001 74.118C38.7881 73.9033 38.7835 73.698 38.8861 73.502C38.9888 73.306 39.1428 73.1707 39.3481 73.096C39.5628 73.0213 39.7961 72.9747 40.0481 72.956C40.3001 72.9373 40.5381 72.928 40.7621 72.928C41.5088 72.928 42.2461 72.9327 42.9741 72.942C43.7115 72.942 44.4535 72.942 45.2001 72.942C45.3868 72.942 45.5875 72.9653 45.8021 73.012C46.0261 73.0493 46.2035 73.1427 46.3341 73.292C46.4648 73.4413 46.5255 73.6373 46.5161 73.88C46.5161 74.1227 46.4368 74.3093 46.2781 74.44ZM49.1481 82.448C49.1295 82.56 49.1155 82.6673 49.1061 82.77C49.0968 82.882 49.0735 82.994 49.0361 83.106C49.0175 83.1433 49.0035 83.176 48.9941 83.204C48.9848 83.232 48.9708 83.2647 48.9521 83.302C48.8868 83.4327 48.8028 83.5353 48.7001 83.61C48.4855 83.7407 48.2475 83.7733 47.9861 83.708C47.8368 83.68 47.7155 83.624 47.6221 83.54C47.5381 83.4653 47.4728 83.3673 47.4261 83.246C47.3888 83.134 47.3561 83.022 47.3281 82.91C47.3095 82.798 47.3001 82.7 47.3001 82.616C47.3001 82.532 47.3001 82.4853 47.3001 82.476V73.978C47.3001 73.866 47.3001 73.7447 47.3001 73.614C47.3001 73.4833 47.3095 73.3527 47.3281 73.222C47.3468 73.0913 47.3748 72.97 47.4121 72.858C47.4495 72.746 47.5008 72.6573 47.5661 72.592C47.6688 72.4893 47.7761 72.4287 47.8881 72.41C48.0001 72.382 48.1215 72.368 48.2521 72.368C48.4108 72.368 48.5555 72.4147 48.6861 72.508C48.8261 72.592 48.9241 72.7133 48.9801 72.872C49.0641 73.068 49.1108 73.2733 49.1201 73.488C49.1295 73.7027 49.1388 73.9173 49.1481 74.132V74.202C49.1668 74.9207 49.1715 75.658 49.1621 76.414C49.1528 77.17 49.1481 77.884 49.1481 78.556V81.944C49.1481 82.028 49.1481 82.112 49.1481 82.196C49.1575 82.28 49.1575 82.364 49.1481 82.448ZM42.0081 75.63C42.0175 75.7047 42.0221 75.7653 42.0221 75.812C42.0221 75.8587 42.0221 75.9053 42.0221 75.952V80.838C42.0221 80.866 42.0268 80.922 42.0361 81.006C42.0548 81.09 42.0828 81.1693 42.1201 81.244H43.3661V75.91C43.3661 75.91 43.3661 75.8633 43.3661 75.77C43.3661 75.6767 43.3615 75.5693 43.3521 75.448C43.3521 75.3267 43.3475 75.2053 43.3381 75.084C43.3381 74.9627 43.3335 74.8693 43.3241 74.804C43.3241 74.748 43.3101 74.6967 43.2821 74.65H42.0921C42.0548 74.6873 42.0315 74.7387 42.0221 74.804C42.0035 74.8787 41.9941 75.0047 41.9941 75.182C41.9941 75.35 41.9988 75.4993 42.0081 75.63ZM55.3334 73.054C55.7161 73.054 56.0474 73.0913 56.3274 73.166C56.4487 73.2127 56.5654 73.278 56.6774 73.362C56.7894 73.4367 56.8827 73.544 56.9574 73.684C57.0321 73.796 57.0787 73.9173 57.0974 74.048C57.1161 74.1787 57.0927 74.3 57.0274 74.412C56.9154 74.6733 56.6821 74.832 56.3274 74.888C56.2154 74.9067 56.0987 74.9253 55.9774 74.944C55.8561 74.9533 55.7161 74.958 55.5574 74.958C55.4267 74.958 55.2634 74.958 55.0674 74.958C54.8807 74.9487 54.6754 74.9347 54.4514 74.916C54.4421 74.9347 54.4374 74.9953 54.4374 75.098C54.4374 75.1913 54.4374 75.3127 54.4374 75.462C54.4374 75.6113 54.4374 75.7747 54.4374 75.952C54.4374 76.1293 54.4374 76.3113 54.4374 76.498C54.4374 76.9367 54.4421 77.4267 54.4514 77.968V78.276C54.4514 78.3413 54.4514 78.3927 54.4514 78.43C54.4514 78.4673 54.4607 78.5093 54.4794 78.556C54.4887 78.5653 54.5447 78.6353 54.6474 78.766C54.7501 78.8873 54.8714 79.0413 55.0114 79.228C55.1607 79.4147 55.3194 79.62 55.4874 79.844C55.6554 80.0587 55.8141 80.264 55.9634 80.46C56.1127 80.656 56.2434 80.8333 56.3554 80.992C56.4674 81.1413 56.5374 81.244 56.5654 81.3C56.6401 81.4307 56.7101 81.5753 56.7754 81.734C56.8501 81.8833 56.8967 82.0327 56.9154 82.182C56.9341 82.238 56.9434 82.3033 56.9434 82.378C56.9527 82.4527 56.9574 82.532 56.9574 82.616C56.9201 82.7467 56.8407 82.8727 56.7194 82.994C56.6447 83.05 56.5654 83.0967 56.4814 83.134C56.4067 83.1713 56.3181 83.19 56.2154 83.19C56.0474 83.19 55.8981 83.1573 55.7674 83.092C55.6367 83.036 55.5154 82.9567 55.4034 82.854C55.2914 82.7607 55.1887 82.6533 55.0954 82.532C55.0021 82.4107 54.9134 82.2847 54.8294 82.154C54.7547 82.0513 54.6567 81.9207 54.5354 81.762C54.4234 81.6033 54.3254 81.4727 54.2414 81.37C54.1854 81.2953 54.1341 81.2253 54.0874 81.16C54.0501 81.0947 53.9987 81.0247 53.9334 80.95C53.8587 80.8473 53.7841 80.7447 53.7094 80.642C53.6347 80.53 53.5554 80.4227 53.4714 80.32C53.2941 80.5347 53.1307 80.7447 52.9814 80.95C52.8414 81.146 52.6967 81.3467 52.5474 81.552C52.3981 81.748 52.2441 81.9487 52.0854 82.154C51.9267 82.3593 51.7494 82.5787 51.5534 82.812C51.4507 82.924 51.3387 83.022 51.2174 83.106C51.0961 83.19 50.9421 83.232 50.7554 83.232C50.7181 83.232 50.6807 83.2227 50.6434 83.204C50.6061 83.1947 50.5547 83.19 50.4894 83.19C50.2841 83.0967 50.1441 82.9707 50.0694 82.812C50.0227 82.7093 49.9947 82.616 49.9854 82.532C49.9854 82.448 49.9854 82.3593 49.9854 82.266C50.0041 82.1633 50.0227 82.0747 50.0414 82C50.0694 81.9253 50.1067 81.8553 50.1534 81.79C50.1907 81.7153 50.2281 81.6407 50.2654 81.566C50.3027 81.4913 50.3401 81.4167 50.3774 81.342C50.4334 81.2673 50.4847 81.1973 50.5314 81.132C50.5781 81.0573 50.6294 80.9827 50.6854 80.908C50.7041 80.8613 50.7321 80.824 50.7694 80.796C50.8067 80.7587 50.8487 80.7213 50.8954 80.684C50.9141 80.6373 50.9374 80.5953 50.9654 80.558C50.9934 80.5207 51.0167 80.4693 51.0354 80.404C51.0821 80.348 51.1334 80.278 51.1894 80.194C51.2454 80.1007 51.3107 80.0167 51.3854 79.942C51.5161 79.7553 51.6561 79.564 51.8054 79.368C51.8707 79.2933 51.9361 79.2093 52.0014 79.116C52.0667 79.0133 52.1367 78.9247 52.2114 78.85C52.2674 78.794 52.3327 78.7147 52.4074 78.612C52.4821 78.5093 52.5287 78.4393 52.5474 78.402V74.916H51.6234H50.8954C50.7274 74.916 50.6201 74.9067 50.5734 74.888C50.2187 74.832 49.9854 74.636 49.8734 74.3C49.7614 73.9827 49.7894 73.726 49.9574 73.53C50.0601 73.4087 50.1627 73.3107 50.2654 73.236C50.3681 73.1613 50.4941 73.1147 50.6434 73.096C50.6714 73.068 50.7087 73.054 50.7554 73.054H50.9234H51.1194H55.3334ZM60.3874 76.764C60.5927 76.764 60.7841 76.7687 60.9614 76.778C61.1387 76.7873 61.2881 76.89 61.4094 77.086C61.5027 77.2447 61.5494 77.4127 61.5494 77.59C61.5494 77.7673 61.5027 77.9213 61.4094 78.052C61.3347 78.136 61.2601 78.2013 61.1854 78.248C61.1201 78.2947 61.0454 78.3273 60.9614 78.346C60.8867 78.3647 60.7981 78.3787 60.6954 78.388C60.5927 78.388 60.4807 78.3927 60.3594 78.402H59.7714H59.7294V79.214V80.32C59.7481 80.6467 59.7527 80.9827 59.7434 81.328C59.7341 81.6733 59.7294 82.0093 59.7294 82.336C59.7294 82.4107 59.7247 82.4807 59.7154 82.546C59.7061 82.6207 59.7014 82.6953 59.7014 82.77C59.6827 82.826 59.6687 82.8867 59.6594 82.952C59.6501 83.0267 59.6267 83.092 59.5894 83.148C59.5707 83.2133 59.5474 83.2693 59.5194 83.316C59.4914 83.372 59.4494 83.4233 59.3934 83.47C59.2534 83.6007 59.0667 83.666 58.8334 83.666C58.6001 83.666 58.4134 83.5867 58.2734 83.428C58.1521 83.3067 58.0727 83.1527 58.0354 82.966C58.0074 82.7793 57.9841 82.6067 57.9654 82.448C57.9654 82.3547 57.9561 82.266 57.9374 82.182C57.9281 82.1073 57.9234 82.0327 57.9234 81.958V73.684C57.9234 73.6093 57.9234 73.5393 57.9234 73.474C57.9327 73.4087 57.9467 73.348 57.9654 73.292C57.9841 73.1613 58.0074 73.0447 58.0354 72.942C58.0634 72.8393 58.1287 72.746 58.2314 72.662C58.2874 72.606 58.3807 72.5547 58.5114 72.508C58.6607 72.4707 58.8054 72.4613 58.9454 72.48C59.0947 72.4893 59.2301 72.55 59.3514 72.662C59.5101 72.774 59.5894 72.9187 59.5894 73.096C59.6454 73.3667 59.6827 73.6327 59.7014 73.894C59.7201 74.146 59.7294 74.4073 59.7294 74.678V76.344V76.498V76.764H60.3874Z" fill="#24221B"/>
<g clip-path="url(#clip0_135_715)">
<path d="M27.5369 57.1965L29.4498 61.4349L67.2896 44.1597C68.3534 43.6741 67.2184 38.9905 67.2184 38.9905L27.5369 57.1965Z" fill="#F2C05A"/>
<path d="M29.9172 62.4719C29.2614 62.7713 28.5414 62.5505 28.2791 61.9693L26.3661 57.7305C26.1082 57.1591 26.4233 56.4545 27.0685 56.1599L66.7783 37.941C67.1086 37.7902 67.513 37.773 67.8084 37.8972C68.146 38.0355 68.3667 38.2901 68.4331 38.6151C69.8107 44.2591 68.3395 44.9308 67.7858 45.1836L29.9172 62.4719ZM66.5056 43.2975L66.5212 43.1219C66.5567 42.7267 66.5098 42.0759 66.3692 41.011L66.3216 40.6492L29.2028 57.6864L30.1911 59.8762L30.4759 59.7462L66.5056 43.2975Z" fill="#4C2F1B"/>
<path d="M47.5999 22.7455C46.6205 22.7441 45.6577 23.3035 45.2323 24.1557L27.5647 57.1838L32.603 54.8837L37.984 66.8066C38.6216 68.2195 40.4233 68.7718 42.0186 68.0435C43.614 67.3152 44.3867 65.5876 43.749 64.1747L38.368 52.2517L41.3627 50.8846L43.9021 56.5113C44.5509 57.9488 46.4312 58.5256 48.0549 57.7844C49.678 57.0433 50.4849 55.2403 49.8359 53.8023L47.2965 48.1756L51.5788 46.2206C52.6364 47.4418 54.5338 47.8311 56.2409 47.0517C57.9484 46.2722 58.9335 44.567 58.688 42.975L67.2971 39.015C63.8248 24.068 52.0047 22.708 47.5999 22.7455Z" fill="#FFDE8A"/>
<path d="M42.7719 35.8315C44.4229 35.0778 45.213 33.312 44.5529 31.8494C44.0942 30.833 43.07 30.2842 41.9451 30.2601L39.2179 35.3613C40.0966 36.186 41.4843 36.4193 42.7719 35.8315Z" fill="#FF5C5C"/>
<path d="M43.0068 36.352C41.5231 37.0294 39.7995 36.7998 38.7364 35.7906C38.563 35.6306 38.518 35.3823 38.647 35.1442L41.374 30.0426C41.4747 29.8174 41.7433 29.6646 41.9838 29.6746C43.4054 29.6835 44.5863 30.4297 45.1009 31.57C45.9237 33.3163 44.966 35.4576 43.0068 36.352ZM39.9846 35.191C40.7067 35.6688 41.6806 35.7322 42.5483 35.336C43.8637 34.7355 44.5024 33.3082 43.9765 32.1428C43.6745 31.4737 43.0309 31.0199 42.2637 30.8919L39.9846 35.191Z" fill="#4C2F1B"/>
<path d="M53.6138 33.6022C53.8484 35.02 55.3539 35.8872 56.904 35.5083C58.0012 35.2465 58.8351 34.4771 59.1602 33.5514L55.0531 30.7332C54.0175 31.3555 53.4068 32.4709 53.6138 33.6022Z" fill="#FF5C5C"/>
<path d="M57.7491 35.8101C57.5252 35.9123 57.2624 36.0026 57.0161 36.0551C55.1242 36.5005 53.3112 35.4746 52.9982 33.7343C52.7801 32.4288 53.4689 31.0381 54.7734 30.2633C54.9861 30.1365 55.2829 30.1203 55.4841 30.2676L59.5802 33.0612C59.7818 33.2083 59.8541 33.4441 59.7536 33.6697C59.4005 34.6077 58.6728 35.3884 57.7491 35.8101ZM54.2181 33.4462C54.3297 33.9933 54.6377 34.4502 55.1239 34.7065C55.6223 34.9869 56.2043 35.0801 56.8086 34.9241C57.4806 34.7668 58.0568 34.3245 58.4039 33.7472L55.03 31.4314C54.4033 31.9863 54.0948 32.7247 54.2181 33.4462Z" fill="#4C2F1B"/>
<path d="M42.447 69.0682C40.2121 70.0884 37.6666 69.3084 36.7731 67.3287L31.86 56.4425L27.9929 58.208C27.4943 58.4356 26.9544 58.3652 26.6172 58.0281C26.2482 57.7024 26.1795 57.189 26.4341 56.7384L44.1052 23.7041C44.5178 22.9453 45.1936 22.3213 46.0081 21.9495C46.5445 21.7046 47.1108 21.5771 47.692 21.5709C51.6327 21.5378 64.7792 22.6687 68.4626 38.6088C68.5953 39.1397 68.268 39.7315 67.7024 39.9897L59.899 43.5829L59.8812 43.7549C59.6927 45.565 58.4531 47.2021 56.6463 48.0269C54.84 48.8516 52.799 48.7127 51.3195 47.6636L51.1777 47.5635L48.8724 48.6159L50.9441 53.2063C51.8498 55.2132 50.7433 57.6871 48.4773 58.7216C46.2113 59.7561 43.6318 58.965 42.7263 56.9585L40.6546 52.3682L39.9724 52.6796L44.8855 63.5657C45.7648 65.5832 44.6713 68.0527 42.447 69.0682ZM46.9157 24.0375C46.6521 24.1578 46.4453 24.3516 46.3173 24.5984L30.1941 54.733L32.1064 53.86C32.4309 53.7119 32.7599 53.6851 33.0322 53.785C33.3552 53.8844 33.5865 54.087 33.7166 54.3753L39.0976 66.2982C39.4812 67.1482 40.5743 67.4833 41.5335 67.0453C42.5095 66.5998 42.968 65.5737 42.5779 64.7093L37.1967 52.786C36.9388 52.2145 37.2539 51.51 37.8992 51.2154L40.8939 49.8482C41.2179 49.7003 41.547 49.6735 41.8198 49.7732C42.1427 49.8726 42.3741 50.0752 42.5042 50.3635L45.0436 55.9902C45.4394 56.8673 46.5674 57.2131 47.5578 56.761C48.5482 56.3088 49.0319 55.2272 48.636 54.3501L46.0853 48.6984C45.8272 48.1265 46.1423 47.4219 46.7876 47.1274L51.0699 45.1723C51.6049 44.9281 52.1977 45.0348 52.5448 45.4376C53.2763 46.2936 54.5874 46.5266 55.7322 46.0039C56.8769 45.4813 57.5657 44.3353 57.4064 43.2175C57.3339 42.6905 57.6443 42.1714 58.1788 41.9274L65.8043 38.4154L65.7406 38.1833C62.192 25.2257 51.7816 23.8841 47.4704 23.9086C47.2653 23.9178 47.083 23.9611 46.9157 24.0375Z" fill="#4C2F1B"/>
<path d="M67.2462 38.9778C63.7471 23.7446 51.5123 22.6635 47.3314 22.7488C46.4972 22.7707 45.7022 23.2535 45.3159 23.968L43.9273 26.5753C49.9605 27.5276 60.3312 29.6395 62.6393 41.1117L67.2462 38.9778Z" fill="#FFB07B"/>
<path d="M63.0962 42.1228C62.7563 42.2779 62.3551 42.2896 62.0243 42.1534C61.6946 42.0186 61.458 41.7416 61.3905 41.4114C59.3907 31.5051 51.2594 28.9311 43.5696 27.7197C43.212 27.6756 42.9109 27.4618 42.7322 27.1312C42.5715 26.8328 42.5849 26.4718 42.7699 26.1411L44.1612 23.5284C44.5338 22.8335 45.1451 22.2651 45.8824 21.9285C46.3512 21.7145 46.8636 21.6009 47.3653 21.5992C51.3682 21.5167 64.6982 22.5034 68.4181 38.6588C68.5509 39.1901 68.2237 39.7819 67.6585 40.0399L63.0962 42.1228ZM46.8351 23.9959C46.6419 24.0841 46.48 24.2327 46.3781 24.4155L45.722 25.6802L46.0746 25.744C49.6018 26.3857 60.3359 28.3383 63.4285 39.1272L63.5156 39.4305L65.7673 38.4026L65.7032 38.1696C62.086 24.9653 51.5547 23.8003 47.195 23.912C47.0783 23.9135 46.9525 23.9423 46.8351 23.9959Z" fill="#4C2F1B"/>
<path d="M62.6283 41.086C62.6283 41.086 63.6067 43.9276 63.2034 46.0252L67.3174 44.147C67.3174 44.147 68.4595 42.7884 67.2462 38.9778L62.6283 41.086Z" fill="#E2803D"/>
<path d="M63.6713 47.062C63.2403 47.2587 62.7738 47.2306 62.4222 46.9871C62.0635 46.752 61.8932 46.353 61.9718 45.9418C62.2531 44.4114 61.6534 42.1962 61.421 41.5404C61.2287 40.9978 61.5466 40.3596 62.1439 40.0869L66.7618 37.9787C67.1045 37.8223 67.4654 37.8019 67.7535 37.9228C68.105 38.0496 68.3292 38.276 68.4153 38.5833C69.7384 42.7832 68.5031 44.5248 68.242 44.8314C68.1429 44.9704 67.9713 45.0989 67.7853 45.1838L63.6713 47.062ZM64.1955 41.8657C64.3062 42.407 64.4439 43.081 64.5102 43.8147L64.5444 44.1928L66.4217 43.3358L66.4584 43.189C66.5409 42.8569 66.6504 42.1259 66.4524 40.9633L66.3934 40.6175L64.1499 41.6417L64.1955 41.8657Z" fill="#4C2F1B"/>
<path d="M38.0677 46.0509C38.494 46.9955 39.7038 47.3664 40.7704 46.8795C41.8371 46.3925 42.3559 45.2324 41.9296 44.2878C41.5032 43.3431 40.2934 42.9722 39.2268 43.4592C38.1602 43.9461 37.6414 45.1062 38.0677 46.0509Z" fill="#FF5C5C"/>
<path d="M41.0055 47.4004C39.634 48.0265 38.039 47.5591 37.4797 46.3198C36.9204 45.0805 37.5921 43.5777 38.9919 42.9387C40.3912 42.2999 41.958 42.7802 42.5175 44.0199C43.0766 45.2588 42.4048 46.7616 41.0055 47.4004ZM39.4617 43.9797C38.7062 44.3246 38.3647 45.1385 38.6554 45.7826C38.9463 46.427 39.8078 46.6912 40.5355 46.3589C41.2632 46.0267 41.6325 45.2002 41.3418 44.5561C41.051 43.9116 40.2172 43.6348 39.4617 43.9797Z" fill="#4C2F1B"/>
<path d="M50.2868 42.5354L46.2284 44.3882C46.0045 44.4904 45.73 44.4063 45.6406 44.208L45.2713 43.3899C45.1819 43.1916 45.2996 42.9285 45.5234 42.8263L49.5819 40.9735C49.8057 40.8713 50.0802 40.9554 50.1696 41.1537L50.5389 41.9718C50.6562 42.1574 50.5385 42.4205 50.2868 42.5354Z" fill="#3DE25C"/>
<path d="M50.074 43.2603L46.9393 44.6914C46.1277 45.0619 45.2266 44.7857 44.9022 44.0669C44.5778 43.3481 44.9643 42.484 45.7758 42.1135L48.9105 40.6824C49.7221 40.3119 50.6232 40.5882 50.9476 41.3069C51.272 42.0257 50.8856 42.8898 50.074 43.2603ZM46.2344 43.1295C46.0666 43.2061 45.9826 43.3939 46.0496 43.5425C46.1169 43.6916 46.3128 43.7516 46.4806 43.675L49.6153 42.244C49.783 42.1674 49.8671 41.9795 49.7998 41.8305C49.7327 41.6819 49.5368 41.6218 49.369 41.6984L46.2344 43.1295Z" fill="#4C2F1B"/>
<path d="M51.396 37.5144L48.301 36.4163C48.1836 36.3803 48.1277 36.2564 48.178 36.1438L48.7995 34.9036C48.8498 34.791 48.9898 34.7271 49.1077 34.7629L52.2027 35.8609C52.3201 35.8969 52.376 36.0209 52.3257 36.1335L51.7042 37.3737C51.6814 37.4742 51.5136 37.5508 51.396 37.5144Z" fill="#3DE25C"/>
<path d="M51.8159 37.9208L51.7603 37.9462C51.4803 38.074 51.1722 38.0651 50.8982 37.9808L48.257 37.0642C47.9825 36.9801 47.7869 36.7709 47.675 36.5229C47.5633 36.2754 47.6025 35.9882 47.7202 35.725L48.1119 34.9481C48.2296 34.685 48.4761 34.4829 48.756 34.3551C49.036 34.2272 49.3436 34.2363 49.618 34.3205L52.2593 35.237C52.5337 35.3212 52.7295 35.5308 52.8414 35.7787C52.9533 36.0267 52.9139 36.3135 52.7962 36.5766L52.4045 37.3535C52.2748 37.5914 52.0675 37.8059 51.8159 37.9208ZM48.9172 35.9855L51.3236 36.8301L51.6035 36.2538L49.1971 35.4092L48.9172 35.9855Z" fill="#4C2F1B"/>
</g>
<defs>
<clipPath id="clip0_135_715">
<rect width="46.7916" height="41.4558" fill="white" transform="matrix(0.909684 -0.415301 0.41136 0.911473 16.3027 35.4326)"/>
</clipPath>
</defs>
</svg>
