<svg width="100" height="100" viewBox="0 0 100 100" fill="none" xmlns="http://www.w3.org/2000/svg">
<path d="M47.75 3.03109C49.1423 2.22724 50.8577 2.22724 52.25 3.03109L89.5513 24.567C90.9436 25.3708 91.8013 26.8564 91.8013 28.4641V71.5359C91.8013 73.1436 90.9436 74.6292 89.5513 75.433L52.25 96.9689C50.8577 97.7728 49.1423 97.7728 47.75 96.9689L10.4487 75.433C9.05643 74.6292 8.19873 73.1436 8.19873 71.5359V28.4641C8.19873 26.8564 9.05643 25.3708 10.4487 24.567L47.75 3.03109Z" fill="#FFCD19" stroke="#B36128" stroke-width="3"/>
<path d="M39.0933 81.888C39.0933 81.5427 39.1866 81.258 39.3733 81.034C39.5693 80.8007 39.8353 80.6187 40.1713 80.488C40.5073 80.348 40.904 80.25 41.3613 80.194C41.8186 80.138 42.3133 80.1007 42.8453 80.082V80.054L42.8593 79.046C42.6446 79.046 42.3646 79.046 42.0193 79.046C41.6833 79.0367 41.3333 79.032 40.9693 79.032C40.6053 79.0227 40.2553 79.0133 39.9193 79.004C39.5833 78.9947 39.3173 78.9807 39.1213 78.962C38.972 78.9433 38.8506 78.9247 38.7573 78.906C38.6733 78.878 38.5706 78.808 38.4493 78.696C38.384 78.64 38.3373 78.57 38.3093 78.486C38.2813 78.3927 38.2673 78.2947 38.2673 78.192C38.2673 77.996 38.328 77.8373 38.4493 77.716C38.5146 77.6413 38.6033 77.5853 38.7153 77.548C38.8273 77.5107 38.9346 77.4827 39.0373 77.464C39.14 77.4453 39.2286 77.436 39.3033 77.436C39.3873 77.436 39.434 77.436 39.4433 77.436H47.4513C47.5913 77.436 47.7313 77.436 47.8713 77.436C48.0113 77.436 48.1466 77.4407 48.2773 77.45C48.408 77.4593 48.534 77.478 48.6553 77.506C48.786 77.534 48.9026 77.5947 49.0053 77.688C49.108 77.7627 49.164 77.8467 49.1733 77.94C49.192 78.0333 49.2013 78.136 49.2013 78.248C49.2013 78.5467 49.052 78.7473 48.7533 78.85C48.5666 78.9247 48.3613 78.9713 48.1373 78.99C47.9226 78.9993 47.7173 79.0087 47.5213 79.018C47.0546 79.0367 46.5973 79.0507 46.1493 79.06C45.7013 79.0693 45.2393 79.074 44.7633 79.074L44.7493 80.082C45.2533 80.0913 45.72 80.124 46.1493 80.18C46.5786 80.2267 46.9473 80.3153 47.2553 80.446C47.5726 80.5673 47.82 80.7447 47.9973 80.978C48.1746 81.2113 48.2633 81.5147 48.2633 81.888C48.2633 82.3267 48.142 82.6673 47.8993 82.91C47.6566 83.1527 47.3253 83.33 46.9053 83.442C46.4946 83.5633 46.0093 83.638 45.4493 83.666C44.8986 83.694 44.306 83.708 43.6713 83.708C43.0366 83.708 42.4393 83.694 41.8793 83.666C41.3286 83.638 40.848 83.5633 40.4373 83.442C40.0266 83.33 39.7 83.1527 39.4573 82.91C39.2146 82.6673 39.0933 82.3267 39.0933 81.888ZM47.0313 75.308C47.2086 75.3827 47.3813 75.476 47.5493 75.588C47.7173 75.7 47.876 75.8167 48.0253 75.938C48.1 76.0033 48.1513 76.0873 48.1793 76.19C48.2073 76.2927 48.2073 76.3953 48.1793 76.498C48.1606 76.5913 48.114 76.68 48.0393 76.764C47.974 76.8387 47.8853 76.8853 47.7733 76.904C47.4746 76.9693 47.162 76.9693 46.8353 76.904C46.518 76.8293 46.224 76.7313 45.9533 76.61C45.7013 76.498 45.468 76.3907 45.2533 76.288C45.0386 76.1853 44.824 76.0733 44.6093 75.952C44.544 75.9147 44.4553 75.868 44.3433 75.812C44.2406 75.756 44.138 75.7 44.0353 75.644C43.914 75.5787 43.7833 75.5133 43.6433 75.448C43.4846 75.5227 43.3306 75.5927 43.1813 75.658C43.0506 75.714 42.92 75.77 42.7893 75.826C42.668 75.882 42.57 75.9287 42.4953 75.966C42.2526 76.0967 42.0286 76.2087 41.8233 76.302C41.618 76.386 41.394 76.484 41.1513 76.596C40.9646 76.6707 40.7733 76.7593 40.5773 76.862C40.3906 76.9553 40.19 76.9927 39.9753 76.974C39.8073 76.9647 39.644 76.9227 39.4853 76.848C39.3266 76.7733 39.2286 76.6427 39.1913 76.456C39.182 76.3627 39.1913 76.2553 39.2193 76.134C39.2566 76.0033 39.3173 75.8913 39.4013 75.798C39.4946 75.7047 39.6066 75.6207 39.7373 75.546L40.7033 75.07C40.862 74.986 41.002 74.916 41.1233 74.86C41.2446 74.804 41.3893 74.7387 41.5573 74.664C41.716 74.58 41.898 74.4867 42.1033 74.384C42.318 74.2813 42.5186 74.1973 42.7053 74.132V73.698H41.2213C41.072 73.698 40.9413 73.7027 40.8293 73.712C40.7266 73.712 40.6053 73.7027 40.4653 73.684C40.3626 73.6653 40.2506 73.656 40.1293 73.656C40.008 73.656 39.896 73.6327 39.7933 73.586C39.6906 73.53 39.6066 73.4413 39.5413 73.32C39.4853 73.2267 39.4526 73.124 39.4433 73.012C39.434 72.8907 39.4526 72.7787 39.4993 72.676C39.574 72.5267 39.6953 72.4147 39.8633 72.34C40.0313 72.2653 40.204 72.228 40.3813 72.228H40.7033C40.8526 72.2373 40.96 72.242 41.0253 72.242C41.1 72.2327 41.212 72.228 41.3613 72.228H46.2053C46.3546 72.228 46.5273 72.2233 46.7233 72.214C46.9193 72.2047 47.106 72.2187 47.2833 72.256C47.47 72.284 47.6333 72.3447 47.7733 72.438C47.9226 72.5313 48.0206 72.676 48.0673 72.872C48.1233 73.096 48.0813 73.2687 47.9413 73.39C47.8106 73.5113 47.638 73.6 47.4233 73.656C47.218 73.7027 46.9986 73.7307 46.7653 73.74C46.532 73.74 46.3406 73.7353 46.1913 73.726C46.042 73.7167 45.8833 73.712 45.7153 73.712C45.5566 73.712 45.4026 73.712 45.2533 73.712C45.0853 73.712 44.9173 73.7167 44.7493 73.726V74.16C44.8053 74.188 44.8613 74.2207 44.9173 74.258C44.9826 74.286 45.048 74.3093 45.1133 74.328C45.1693 74.356 45.2206 74.384 45.2673 74.412C45.3233 74.44 45.3793 74.468 45.4353 74.496C45.5286 74.5427 45.6173 74.5893 45.7013 74.636C45.7946 74.6733 45.888 74.7153 45.9813 74.762C46.1586 74.846 46.3313 74.9347 46.4993 75.028C46.6766 75.1213 46.854 75.2147 47.0313 75.308ZM46.4153 81.888C46.4153 81.7387 46.3313 81.6313 46.1633 81.566C46.0046 81.5007 45.79 81.4587 45.5193 81.44C45.258 81.4213 44.964 81.4167 44.6373 81.426C44.3106 81.4353 43.9886 81.44 43.6713 81.44C43.354 81.44 43.0366 81.4353 42.7193 81.426C42.402 81.4167 42.1173 81.4213 41.8653 81.44C41.6133 81.4587 41.408 81.5007 41.2493 81.566C41.1 81.6313 41.0253 81.7387 41.0253 81.888C41.0253 82.0187 41.1 82.1167 41.2493 82.182C41.408 82.2473 41.6133 82.2893 41.8653 82.308C42.1173 82.336 42.402 82.3453 42.7193 82.336C43.0366 82.336 43.354 82.336 43.6713 82.336C43.9886 82.336 44.3106 82.3453 44.6373 82.364C44.964 82.3827 45.258 82.3827 45.5193 82.364C45.79 82.3547 46.0046 82.3173 46.1633 82.252C46.3313 82.1867 46.4153 82.0653 46.4153 81.888ZM57.8994 79.69C58.2074 79.6713 58.436 79.6947 58.5854 79.76C58.6507 79.7973 58.716 79.8347 58.7814 79.872C58.856 79.9 58.9167 79.942 58.9634 79.998C59.01 80.0447 59.0474 80.0913 59.0754 80.138C59.1034 80.1847 59.122 80.236 59.1314 80.292C59.15 80.3387 59.164 80.39 59.1734 80.446C59.192 80.502 59.2014 80.5673 59.2014 80.642V82.574C59.2014 82.826 59.1874 83.0313 59.1594 83.19C59.1407 83.3487 59.108 83.4747 59.0614 83.568C59.0147 83.6613 58.9587 83.7313 58.8934 83.778C58.828 83.8247 58.7534 83.862 58.6694 83.89C58.4454 83.9647 58.2074 83.9833 57.9554 83.946C57.7127 83.918 57.5354 83.7827 57.4234 83.54C57.3954 83.4747 57.3767 83.3767 57.3674 83.246C57.358 83.1153 57.3487 82.9707 57.3394 82.812C57.3394 82.6627 57.3394 82.504 57.3394 82.336C57.3487 82.168 57.3534 82.014 57.3534 81.874C57.3534 81.6873 57.2834 81.5707 57.1434 81.524C57.0034 81.468 56.8494 81.44 56.6814 81.44H54.7494C54.292 81.44 53.8394 81.4447 53.3914 81.454C52.9434 81.4633 52.486 81.4587 52.0194 81.44C51.7674 81.44 51.5014 81.4447 51.2214 81.454C50.9507 81.454 50.6894 81.4167 50.4374 81.342C50.2227 81.2673 50.0734 81.132 49.9894 80.936C49.9054 80.7307 49.8914 80.5207 49.9474 80.306C50.0034 80.1567 50.0734 80.04 50.1574 79.956C50.2414 79.872 50.3394 79.8113 50.4514 79.774C50.5634 79.7273 50.6847 79.704 50.8154 79.704C50.946 79.6947 51.086 79.69 51.2354 79.69H57.8994ZM49.9474 78.416C49.854 78.36 49.7747 78.2573 49.7094 78.108C49.6627 78.0053 49.6347 77.9073 49.6254 77.814C49.6254 77.7207 49.6347 77.6273 49.6534 77.534C49.7094 77.3287 49.7887 77.142 49.8914 76.974C49.9567 76.9087 50.0174 76.834 50.0734 76.75C50.1387 76.666 50.204 76.5867 50.2694 76.512C50.3534 76.4373 50.4234 76.372 50.4794 76.316C50.5447 76.2507 50.6007 76.1807 50.6474 76.106L51.1374 75.532C51.212 75.42 51.2867 75.3127 51.3614 75.21C51.4454 75.1073 51.5294 75.0047 51.6134 74.902C51.6414 74.8553 51.6694 74.818 51.6974 74.79C51.7347 74.7527 51.7674 74.7107 51.7954 74.664C51.842 74.6173 51.8794 74.5753 51.9074 74.538C51.9447 74.4913 51.9867 74.4447 52.0334 74.398C52.0707 74.342 52.0987 74.2953 52.1174 74.258C52.1454 74.2113 52.178 74.1647 52.2154 74.118C52.2247 74.0713 52.234 74.0247 52.2434 73.978C52.2527 73.9313 52.2574 73.8847 52.2574 73.838C52.276 73.7447 52.2854 73.6607 52.2854 73.586C52.2947 73.5113 52.2994 73.4367 52.2994 73.362C52.318 73.2033 52.3507 73.054 52.3974 72.914C52.4347 72.8113 52.5047 72.7133 52.6074 72.62C52.6727 72.592 52.7427 72.564 52.8174 72.536C52.9014 72.508 52.9947 72.494 53.0974 72.494C53.2374 72.494 53.3774 72.5173 53.5174 72.564C53.6014 72.5827 53.662 72.6153 53.6994 72.662C53.746 72.6993 53.7927 72.7553 53.8394 72.83C53.9047 73.026 53.9234 73.2173 53.8954 73.404C53.8674 73.5627 53.886 73.7587 53.9514 73.992C53.998 74.132 54.0774 74.258 54.1894 74.37C54.46 74.65 54.7074 74.9533 54.9314 75.28C55.1647 75.6067 55.4027 75.9287 55.6454 76.246C55.7107 76.3487 55.776 76.4513 55.8414 76.554C55.916 76.6567 55.9907 76.7593 56.0654 76.862C56.1214 76.9647 56.1727 77.0767 56.2194 77.198C56.2754 77.31 56.3127 77.422 56.3314 77.534C56.378 77.7487 56.3547 77.926 56.2614 78.066C56.2147 78.15 56.1634 78.2153 56.1074 78.262C56.0514 78.3087 55.986 78.3507 55.9114 78.388C55.8367 78.4067 55.762 78.4253 55.6874 78.444C55.6127 78.4533 55.5287 78.4487 55.4354 78.43C55.258 78.4113 55.104 78.346 54.9734 78.234C54.7867 78.0473 54.614 77.8607 54.4554 77.674C54.2967 77.4873 54.152 77.296 54.0214 77.1L53.1394 75.966C53.0554 76.0593 52.976 76.1433 52.9014 76.218C52.8267 76.2833 52.752 76.3533 52.6774 76.428C52.6214 76.4933 52.556 76.5633 52.4814 76.638C52.416 76.7127 52.3414 76.7873 52.2574 76.862C52.1827 76.9553 52.108 77.0393 52.0334 77.114C51.968 77.1793 51.9074 77.2493 51.8514 77.324C51.7767 77.408 51.7114 77.4873 51.6554 77.562C51.6087 77.6273 51.562 77.6833 51.5154 77.73C51.4594 77.7767 51.4127 77.8233 51.3754 77.87C51.3474 77.9167 51.3287 77.9447 51.3194 77.954C51.2727 78.01 51.2167 78.0613 51.1514 78.108C51.0954 78.1547 51.0394 78.206 50.9834 78.262C50.9274 78.3087 50.862 78.346 50.7874 78.374C50.722 78.402 50.6474 78.4207 50.5634 78.43C50.526 78.4487 50.4794 78.4627 50.4234 78.472C50.3674 78.472 50.316 78.472 50.2694 78.472C50.2134 78.472 50.1574 78.4673 50.1014 78.458C50.0547 78.4393 50.0034 78.4253 49.9474 78.416ZM59.4254 77.87C59.4067 78.0847 59.332 78.29 59.2014 78.486C59.0707 78.6727 58.8747 78.766 58.6134 78.766C58.4174 78.766 58.2587 78.724 58.1374 78.64C58.0254 78.5467 57.9414 78.43 57.8854 78.29C57.8294 78.15 57.792 77.996 57.7734 77.828C57.7547 77.66 57.7454 77.492 57.7454 77.324V73.88C57.7454 73.684 57.7454 73.4787 57.7454 73.264C57.7547 73.0493 57.8154 72.8487 57.9274 72.662C58.03 72.494 58.184 72.396 58.3894 72.368C58.604 72.3307 58.7954 72.3447 58.9634 72.41C59.0754 72.4753 59.164 72.5593 59.2294 72.662C59.2947 72.7553 59.3414 72.858 59.3694 72.97C59.3974 73.082 59.4114 73.1987 59.4114 73.32C59.4207 73.4413 59.4254 73.5533 59.4254 73.656C59.444 74.3653 59.4487 75.0653 59.4394 75.756C59.43 76.4467 59.4254 77.1513 59.4254 77.87Z" fill="#24221B"/>
<g clip-path="url(#clip0_135_654)">
<path d="M62.4333 40.7381C58.5529 37.7733 56.7606 34.777 55.9586 33.0304C55.6655 32.3707 53.61 32.5609 52.3413 32.7617C51.6791 32.8578 50.9644 32.7484 50.3613 32.4585C49.183 31.883 47.3065 31.0906 46.8293 31.6324C45.5653 33.0847 42.9584 35.4073 38.3448 37.0492C28.306 40.6702 17.8613 57.0471 46.9273 61.4983C75.9927 65.9494 70.9283 47.1975 62.4333 40.7381Z" fill="#FCFBE2"/>
<path d="M28.1273 49.5542C28.1273 49.5542 27.0091 59.0628 46.8347 62.099C66.6609 65.1352 68.4395 55.7277 68.4395 55.7277C68.4395 55.7277 62.1674 61.7691 47.2354 59.4823C32.3046 57.1958 28.1273 49.5542 28.1273 49.5542Z" fill="#EDE6AB"/>
<path d="M37.5311 42.5436C37.4213 42.5268 37.3147 42.4883 37.2075 42.4502C36.7355 42.2242 36.5782 41.7834 36.8022 41.4221C39.1511 38.0284 45.3079 36.6006 45.5686 36.5529C46.0626 36.4532 46.5928 36.6659 46.7568 37.0639C46.9213 37.462 46.6902 37.8656 46.1934 37.9871C46.1352 38.0003 40.4785 39.2849 38.4836 42.2062C38.2998 42.486 37.9163 42.6026 37.5311 42.5436ZM44.2016 44.3775C44.0918 44.3607 44.0124 44.3263 43.9058 44.2883C43.4305 44.084 43.2454 43.6384 43.4422 43.2735C45.123 40.5676 46.9722 39.3365 47.037 39.2804C47.4132 39.0306 48.0246 39.0803 48.367 39.418C48.7127 39.7345 48.6954 40.2147 48.292 40.4603C48.2609 40.4777 46.6273 41.5882 45.1301 44.0147C44.9737 44.2982 44.5868 44.4365 44.2016 44.3775ZM61.4229 46.5975C61.0106 46.5344 60.6854 46.2654 60.5977 45.9223C59.7899 41.826 55.4881 39.411 55.4358 39.3808C54.9949 39.1379 54.868 38.6795 55.1436 38.3483C55.4192 38.0171 55.9926 37.9517 56.4336 38.1946C56.6402 38.3139 61.4902 41.0104 62.4443 45.8095C62.5228 46.2167 62.1851 46.5822 61.6737 46.6133C61.5883 46.6228 61.5056 46.6102 61.4229 46.5975ZM55.1189 46.0494C54.7066 45.9863 54.3815 45.7167 54.2898 45.3958C53.7038 42.6064 52.3774 40.9766 52.3536 40.9508C52.0694 40.5998 52.1661 40.154 52.5934 39.9337C53.0179 39.7352 53.5917 39.8452 53.9037 40.1999C53.9765 40.2771 55.4931 42.1335 56.1396 45.2618C56.2181 45.6689 55.8805 46.034 55.3697 46.0656C55.287 46.053 55.201 46.062 55.1189 46.0494Z" fill="#4C2F1B"/>
<path d="M55.1794 32.6037C55.5917 32.6668 55.881 32.7988 55.989 33.0129C56.7605 34.777 58.5528 37.7738 62.4636 40.7211C70.9587 47.1805 76.0508 65.9367 46.9577 61.4813C17.8645 57.0259 28.306 40.6702 38.3447 37.0497C42.9338 35.3819 45.5407 33.0593 46.8292 31.6328C46.9964 31.4609 47.3119 31.4215 47.7242 31.4847C48.5216 31.6068 49.6032 32.0798 50.389 32.4632C50.7028 32.6211 51.0258 32.7145 51.356 32.765C51.6862 32.8156 52.0223 32.8232 52.3689 32.7664C53.1813 32.6051 54.382 32.4816 55.1794 32.6037ZM55.5506 30.1801C54.5328 30.0242 53.2903 30.0537 51.7053 30.2937C50.2655 29.5905 49.0887 29.1905 48.071 29.0347C45.7337 28.6767 44.5969 29.6657 44.1911 30.1086C43.2065 31.2091 40.9719 33.303 36.8622 34.7811C29.8895 37.313 23.4639 44.5378 25.0699 51.3246C26.1136 55.7206 30.6891 61.4915 46.5556 63.9213C62.422 66.3511 68.5155 62.2141 70.8269 58.3318C74.36 52.3538 70.4215 43.5196 64.526 39.0171C61.0464 36.3767 59.5414 33.7101 58.9307 32.3653C58.6766 31.8219 57.8607 30.5339 55.5506 30.1801Z" fill="#4C2F1B"/>
</g>
<defs>
<clipPath id="clip0_135_654">
<rect width="47.6515" height="34.714" fill="white" transform="translate(28.2549 26) rotate(8.70671)"/>
</clipPath>
</defs>
</svg>
