<svg width="100" height="100" viewBox="0 0 100 100" fill="none" xmlns="http://www.w3.org/2000/svg">
<path d="M47.75 3.03109C49.1423 2.22724 50.8577 2.22724 52.25 3.03109L89.5513 24.567C90.9436 25.3708 91.8013 26.8564 91.8013 28.4641V71.5359C91.8013 73.1436 90.9436 74.6292 89.5513 75.433L52.25 96.9689C50.8577 97.7728 49.1423 97.7728 47.75 96.9689L10.4487 75.433C9.05643 74.6292 8.19873 73.1436 8.19873 71.5359V28.4641C8.19873 26.8564 9.05643 25.3708 10.4487 24.567L47.75 3.03109Z" fill="#FFCD19" stroke="#B26128" stroke-width="3"/>
<path d="M41.5656 73.436V86.12H42.7276V73.436H41.5656ZM33.1936 81.99V82.97H34.2156C36.7636 82.97 38.4156 82.9 40.3476 82.536L40.2216 81.556C38.3456 81.906 36.7216 81.99 34.2156 81.99H33.1936ZM33.1936 74.64V82.354H34.3416V75.606H39.1716V74.64H33.1936ZM54.5145 73.422V86.106H55.6625V73.422H54.5145ZM51.7845 78.042V78.994H54.8505V78.042H51.7845ZM48.4665 75.242V77.132C48.4665 79.386 46.9685 81.78 45.1485 82.676L45.8345 83.6C47.8365 82.564 49.4045 79.862 49.4045 77.132V75.242H48.4665ZM48.7045 75.242V77.132C48.7045 79.736 50.2445 82.34 52.2465 83.334L52.9325 82.424C51.0985 81.556 49.6285 79.246 49.6285 77.132V75.242H48.7045ZM45.6105 74.724V75.69H52.4985V74.724H45.6105ZM59.6094 80.254V81.192H68.3034V80.254H59.6094ZM58.1394 83.502V84.468H69.6054V83.502H58.1394ZM59.6094 74.514V80.548H60.7854V75.466H68.1634V74.514H59.6094ZM60.4074 77.342V78.266H67.8974V77.342H60.4074Z" fill="black"/>
<g clip-path="url(#clip0_135_606)">
<path d="M42.2442 44.4423L51.0243 62.7656L57.2059 43.7088L42.2442 44.4423Z" fill="#EA9B65"/>
<path d="M41.958 44.8497L51.06 63.9071L57.5185 44.0867L41.958 44.8497Z" fill="#EA9B65"/>
<path d="M47.2194 57.4509C47.1063 57.4564 46.9921 57.4397 46.8763 57.401C46.5578 57.2609 46.4294 56.9552 46.6141 56.6789L52.7248 47.7374C52.9106 47.483 53.3308 47.3734 53.6493 47.5139C53.9679 47.6541 54.0968 47.9597 53.9115 48.236L47.8003 57.1552C47.6664 57.3175 47.4456 57.4398 47.2194 57.4509ZM44.6489 55.3274C44.5358 55.3329 44.4216 55.3161 44.3063 55.277C43.9873 55.1369 43.8589 54.8313 44.0442 54.555L50.1548 45.6134C50.3407 45.3595 50.7608 45.2494 51.0794 45.39C51.3984 45.5301 51.5268 45.8357 51.3415 46.112L45.2309 55.0536C45.1243 55.1926 44.903 55.3149 44.6489 55.3274Z" fill="#B77142"/>
<path d="M54.4889 60.091C54.2774 60.1014 54.0616 60.0229 53.9212 59.8516L43.3275 46.3612C43.1308 46.126 43.2199 45.7873 43.503 45.6177C43.7861 45.4481 44.1866 45.5175 44.3838 45.7527L54.977 59.2431C55.1736 59.4787 55.0845 59.817 54.8015 59.9866C54.6993 60.0583 54.5944 60.0859 54.4889 60.091ZM54.7637 56.5139C54.5523 56.5243 54.337 56.4457 54.196 56.2741L45.1549 44.7347C44.9582 44.4995 45.0473 44.1608 45.3304 43.9911C45.6135 43.8215 46.014 43.8905 46.2112 44.1261L55.2786 55.6642C55.4758 55.8994 55.3861 56.2381 55.1036 56.4077C55.0003 56.4799 54.8692 56.5087 54.7637 56.5139ZM52.4496 61.1712C52.2381 61.1816 52.0223 61.1031 51.8819 60.9314L43.8869 50.7439C43.6902 50.5087 43.7793 50.17 44.0624 50.0003C44.3455 49.8307 44.7465 49.9001 44.9432 50.1353L52.9376 60.3228C53.1343 60.558 53.0452 60.8967 52.7621 61.0664C52.6599 61.1385 52.5556 61.166 52.4496 61.1712Z" fill="#B77142"/>
<path d="M48.6728 61.0771C48.5597 61.0827 48.4455 61.0659 48.3303 61.0272C48.0117 60.8871 47.8834 60.5814 48.0681 60.3051L55.1319 49.9804C55.3177 49.726 55.7379 49.6163 56.0564 49.7569C56.3755 49.897 56.5033 50.2027 56.3186 50.479L49.2548 60.8037C49.1209 60.9656 48.8991 61.066 48.6728 61.0771Z" fill="#B77142"/>
<path d="M51.1432 65.2025C49.7947 65.2686 48.5779 64.6583 48.1149 63.6836L39.3348 45.3591C38.9876 44.6222 39.1108 43.7948 39.6651 43.1467C40.1937 42.4792 41.1112 42.0556 42.1242 42.0059L57.1143 41.2709C58.8092 41.1878 60.2409 42.2033 60.3062 43.5348C60.3201 43.8194 60.2813 44.0894 60.1905 44.3365L54.0305 63.3097C53.6972 64.3527 52.559 65.1116 51.1973 65.1999L51.1432 65.2025ZM51.0466 63.533L57.5875 43.4603L41.8292 44.2329L51.0466 63.533Z" fill="#4C2F1B"/>
<path d="M53.2061 48.2925C51.3396 48.3841 50.5354 47.5995 50.2005 47.1258C49.8034 46.5442 49.7718 45.8994 49.7489 45.4328L49.7434 45.3216L48.6113 45.3548C48.5545 45.3576 48.4698 45.3617 48.4124 45.3421C47.7714 45.5741 46.5977 45.9212 45.4667 45.9767C44.3635 46.0308 43.0745 45.7596 42.2129 45.5347L42.1282 45.5388C40.5398 45.5276 39.3193 44.9192 38.8146 43.8751C37.8734 42.028 39.5518 39.2508 40.2611 38.6812C40.8333 38.2078 41.7786 37.8271 43.2529 37.2428C43.725 37.0415 44.4763 36.7594 44.9206 36.5599C45.1588 33.3184 48.6026 30.6995 53.0995 30.479C59.4635 30.167 62.2927 33.5248 62.8076 36.5069C63.3606 39.6872 61.3973 43.5919 56.7369 44.5334C56.5402 44.5654 56.3151 44.5988 56.061 44.6332C56.0042 44.636 55.9479 44.6388 55.8643 44.6652L55.8894 45.1765C55.9429 45.6863 56.0246 46.7736 55.1284 47.5748C54.6388 48.0218 53.9699 48.2551 53.2061 48.2925Z" fill="#FFF3B5"/>
<path d="M53.2602 49.3962C51.3576 49.4895 49.7897 48.8581 48.9589 47.6643C48.746 47.3426 48.6235 47.0108 48.541 46.7584L48.4623 46.5161L48.1605 46.6054C47.2448 46.8766 46.3327 47.0409 45.5208 47.0807C44.1428 47.1483 42.7101 46.8382 41.9793 46.6472L41.9411 46.637L41.9005 46.6356C39.8202 46.5681 38.2149 45.7203 37.4961 44.309C36.2413 41.83 38.4018 38.6058 39.2593 37.9205C40.0442 37.2835 41.2472 36.8088 42.6394 36.2595C42.7541 36.2083 42.8718 36.1629 42.9965 36.1142C43.1481 36.0556 43.3082 35.9926 43.4599 35.9245L43.5858 35.8676L43.6083 35.7555C44.3056 32.2377 48.1748 29.6147 53.0159 29.3773C59.805 29.0444 63.5288 32.6291 64.2076 36.329C64.9062 40.5025 62.0999 44.3595 57.534 45.4965L57.3284 45.5479L57.324 45.7167C57.297 46.7731 56.9091 47.642 56.1723 48.299C55.4462 48.9504 54.4125 49.3397 53.2602 49.3962ZM51.0236 44.2189C51.1249 44.3628 51.1391 44.8883 51.145 45.12L51.1526 45.342C51.1735 45.7786 51.1956 46.2311 51.4442 46.5971C51.7488 47.0456 52.3236 47.2523 53.1531 47.2117C53.5377 47.1928 53.8477 47.0804 54.0739 46.8782C54.5623 46.4408 54.5001 45.7296 54.4623 45.3046L54.4507 45.1584L54.393 43.9805C54.383 43.7775 55.3649 43.6407 55.7844 43.5827C56.0205 43.5496 56.2381 43.5191 56.4034 43.4839C60.2671 42.7033 61.8594 39.3993 61.394 36.6872C60.9615 34.1676 58.5357 31.3192 53.1236 31.5846C51.103 31.6836 49.2216 32.377 47.9621 33.4874C46.8327 34.4825 46.2618 35.7635 46.3534 37.095C46.2721 37.3258 44.7707 37.9149 43.8738 38.2674C42.7787 38.6972 41.7442 39.1033 41.2914 39.4637C40.8436 39.8144 39.4723 42.0864 40.1452 43.4558C40.3631 43.8999 40.9008 44.4333 42.2211 44.4499C42.387 44.4607 42.5617 44.4715 42.7272 44.5185C42.8817 44.5643 44.3011 44.9719 45.4426 44.9159C46.5316 44.8625 47.7321 44.4375 47.9613 44.3531C48.0077 44.3388 48.173 44.2924 48.3594 44.2832C48.4255 44.28 48.4823 44.2772 48.5233 44.2859L48.5648 44.2947L51.0236 44.2189Z" fill="#4C2F1B"/>
<path d="M51.3149 38.0506C47.3551 38.2447 43.9787 35.8711 43.8251 32.738C43.6715 29.6052 46.7716 26.9141 50.7593 26.7186C54.7191 26.5244 58.096 28.898 58.2496 32.0307C58.4027 35.1639 55.3026 37.8551 51.3149 38.0506Z" fill="#FF5F5F"/>
<path d="M51.3692 39.1542C46.6335 39.3864 42.6319 36.5383 42.4489 32.8054C42.266 29.0851 45.9703 25.8695 50.7065 25.6373C55.4427 25.4051 59.4443 28.2532 59.6273 31.986C59.8097 35.7064 56.1049 38.922 51.3692 39.1542ZM50.8147 27.8445C47.6122 28.0015 45.1068 30.1657 45.2296 32.6691C45.3529 35.185 48.0585 37.104 51.261 36.9469C54.4635 36.7899 56.9688 34.6254 56.8461 32.1219C56.7228 29.6065 54.0166 27.6875 50.8147 27.8445Z" fill="#4C2F1B"/>
<path d="M44.8396 33.7799C44.8487 33.964 45.0459 34.1037 45.2801 34.0922C45.5143 34.0807 45.697 33.922 45.688 33.7383C45.679 33.5541 45.4817 33.4141 45.2475 33.4255C45.0133 33.437 44.8306 33.5962 44.8396 33.7799Z" fill="#FF8585"/>
<path d="M47.2064 31.7486C47.1217 31.7528 47.0359 31.7346 46.9501 31.7164C46.6048 31.6219 46.4202 31.3194 46.5486 31.0455C46.9586 30.1566 48.6068 28.4945 52.0736 28.6589C52.4435 28.6851 52.7113 28.9396 52.697 29.2299C52.6549 29.5215 52.3248 29.7382 51.956 29.7339C48.7164 29.5808 47.866 31.3152 47.8124 31.385C47.7386 31.6111 47.4894 31.7347 47.2064 31.7486Z" fill="#FFF3B5"/>
<path d="M43.486 42.0205C39.47 42.2174 36.0624 39.801 35.9077 36.6455C35.753 33.49 38.9078 30.7519 42.9239 30.555C46.94 30.3581 50.3475 32.7745 50.5022 35.9299C50.6569 39.0854 47.5021 41.8235 43.486 42.0205Z" fill="#FFED69"/>
<path d="M43.5401 43.1239C38.7416 43.3592 34.6878 40.4839 34.5029 36.7142C34.3181 32.9445 38.0713 29.6869 42.8698 29.4516C47.6678 29.2164 51.7216 32.0916 51.9065 35.8614C52.0913 39.6311 48.3381 42.8887 43.5401 43.1239ZM42.978 31.6589C39.7291 31.8182 37.1874 34.0241 37.3126 36.5769C37.4377 39.1297 40.1825 41.0764 43.4319 40.9171C46.6814 40.7578 49.2225 38.5514 49.0974 35.9987C48.9722 33.4459 46.2269 31.4996 42.978 31.6589Z" fill="#4C2F1B"/>
<path d="M39.272 35.8794C39.1874 35.8836 39.101 35.8654 39.0152 35.8473C38.6699 35.7527 38.4853 35.4503 38.6137 35.1763C39.0237 34.2875 40.6719 32.6254 44.1387 32.7897C44.5087 32.8163 44.7764 33.0704 44.7621 33.3607C44.7194 33.6524 44.3899 33.869 44.0217 33.8647C40.7821 33.7116 39.9316 35.4461 39.8781 35.5158C39.7758 35.7433 39.5267 35.8669 39.272 35.8794Z" fill="#FFF3B5"/>
<path d="M45.1494 33.7423C45.1639 34.0368 45.4794 34.261 45.8548 34.2426C46.2296 34.2242 46.5217 33.9706 46.5072 33.6757C46.4928 33.3813 46.1773 33.1575 45.8025 33.1759C45.4276 33.1942 45.135 33.4483 45.1494 33.7423Z" fill="#FFF3B5"/>
</g>
<path d="M47.75 3.03109C49.1423 2.22724 50.8577 2.22724 52.25 3.03109L89.5513 24.567C90.9436 25.3708 91.8013 26.8564 91.8013 28.4641V71.5359C91.8013 73.1436 90.9436 74.6292 89.5513 75.433L52.25 96.9689C50.8577 97.7728 49.1423 97.7728 47.75 96.9689L10.4487 75.433C9.05643 74.6292 8.19873 73.1436 8.19873 71.5359V28.4641C8.19873 26.8564 9.05643 25.3708 10.4487 24.567L47.75 3.03109Z" fill="#FFCD19" stroke="#B26128" stroke-width="3"/>
<path d="M41.361 84.342C41.4636 84.3887 41.5476 84.468 41.613 84.58C41.6783 84.6827 41.725 84.7853 41.753 84.888C41.7996 85.0933 41.753 85.2847 41.613 85.462C41.4823 85.6207 41.333 85.7373 41.165 85.812C40.997 85.8867 40.7963 85.9333 40.563 85.952C40.367 85.9613 40.1663 85.966 39.961 85.966C39.7556 85.966 39.5316 85.966 39.289 85.966C39.065 85.966 38.8736 85.966 38.715 85.966C38.5563 85.966 38.3696 85.9613 38.155 85.952H37.287C37.0723 85.9427 36.8483 85.9333 36.615 85.924C36.391 85.9147 36.1716 85.8773 35.957 85.812C35.8076 85.7653 35.6676 85.6813 35.537 85.56C35.4063 85.448 35.3036 85.3127 35.229 85.154C35.1823 85.0513 35.1496 84.9253 35.131 84.776C35.1123 84.6267 35.0983 84.4867 35.089 84.356C35.0796 84.2253 35.075 84.1133 35.075 84.02C35.0843 83.9173 35.089 83.8613 35.089 83.852V77.818C35.089 77.7993 35.0843 77.7293 35.075 77.608C35.0656 77.4867 35.061 77.3467 35.061 77.188C35.0703 77.0293 35.0843 76.8707 35.103 76.712C35.131 76.544 35.1823 76.404 35.257 76.292C35.313 76.1987 35.411 76.124 35.551 76.068C35.7003 76.012 35.8496 75.97 35.999 75.942C36.1576 75.914 36.2976 75.8953 36.419 75.886C36.5496 75.8767 36.629 75.872 36.657 75.872H39.933C39.9423 75.872 40.0123 75.8767 40.143 75.886C40.283 75.886 40.4323 75.9 40.591 75.928C40.7496 75.956 40.9036 76.0073 41.053 76.082C41.2023 76.1567 41.3003 76.2687 41.347 76.418C41.3656 76.474 41.375 76.544 41.375 76.628C41.3843 76.7027 41.389 76.782 41.389 76.866C41.389 76.95 41.3796 77.0293 41.361 77.104C41.3516 77.1787 41.3376 77.2347 41.319 77.272C41.2443 77.4027 41.1276 77.4913 40.969 77.538C40.8196 77.5753 40.5536 77.594 40.171 77.594C40.0496 77.594 39.947 77.594 39.863 77.594C39.7883 77.5847 39.7463 77.58 39.737 77.58H38.029C37.8983 77.58 37.763 77.5893 37.623 77.608C37.4923 77.6173 37.3943 77.6313 37.329 77.65C37.2636 77.678 37.2123 77.734 37.175 77.818C37.147 77.8927 37.1236 77.9813 37.105 78.084C37.0956 78.1773 37.091 78.2707 37.091 78.364C37.091 78.4573 37.0956 78.5273 37.105 78.574V81.92C37.105 81.9387 37.105 82.088 37.105 82.368C37.105 82.6387 37.1236 82.9793 37.161 83.39C37.161 83.4367 37.1656 83.474 37.175 83.502C37.175 83.6047 37.1796 83.7027 37.189 83.796C37.2076 83.88 37.2496 83.9547 37.315 84.02C37.3803 84.076 37.4503 84.1133 37.525 84.132C37.609 84.1413 37.6883 84.146 37.763 84.146H37.945C37.9823 84.1367 38.043 84.132 38.127 84.132H38.155C38.3136 84.1413 38.435 84.146 38.519 84.146C38.6123 84.146 38.7383 84.146 38.897 84.146C39.009 84.1367 39.0883 84.132 39.135 84.132C39.1816 84.132 39.2563 84.1367 39.359 84.146H39.849C39.9143 84.1367 39.975 84.132 40.031 84.132C40.0963 84.132 40.157 84.132 40.213 84.132C40.6703 84.132 41.053 84.202 41.361 84.342ZM44.679 85.602C44.6603 85.714 44.6463 85.8213 44.637 85.924C44.6276 86.036 44.6043 86.148 44.567 86.26C44.5483 86.2973 44.5343 86.33 44.525 86.358C44.5156 86.386 44.5016 86.4187 44.483 86.456C44.4176 86.5867 44.3336 86.6893 44.231 86.764C44.0163 86.8947 43.7783 86.9273 43.517 86.862C43.3676 86.834 43.2463 86.778 43.153 86.694C43.069 86.6193 43.0036 86.5213 42.957 86.4C42.9196 86.288 42.887 86.176 42.859 86.064C42.8403 85.952 42.831 85.854 42.831 85.77C42.831 85.686 42.831 85.6393 42.831 85.63V76.978C42.831 76.866 42.831 76.7447 42.831 76.614C42.831 76.4833 42.8403 76.3527 42.859 76.222C42.8776 76.0913 42.9056 75.97 42.943 75.858C42.9803 75.746 43.0316 75.6573 43.097 75.592C43.1996 75.4893 43.307 75.4287 43.419 75.41C43.531 75.382 43.6523 75.368 43.783 75.368C43.9416 75.368 44.0863 75.4147 44.217 75.508C44.357 75.592 44.455 75.7133 44.511 75.872C44.595 76.068 44.6416 76.2733 44.651 76.488C44.6603 76.7027 44.6696 76.9173 44.679 77.132V77.202C44.6976 77.9207 44.7023 78.658 44.693 79.414C44.6836 80.17 44.679 80.884 44.679 81.556V85.098C44.679 85.182 44.679 85.266 44.679 85.35C44.6883 85.434 44.6883 85.518 44.679 85.602ZM54.1562 81.612C54.0255 81.5933 53.8949 81.584 53.7642 81.584C53.6429 81.5747 53.5169 81.5607 53.3862 81.542C53.2275 81.5327 53.0735 81.4953 52.9242 81.43C52.7842 81.3647 52.6629 81.2807 52.5602 81.178C52.4575 81.0753 52.3875 80.9493 52.3502 80.8C52.3129 80.6507 52.3175 80.4873 52.3642 80.31C52.3829 80.2353 52.4202 80.156 52.4762 80.072C52.5415 79.988 52.6022 79.9227 52.6582 79.876C52.7889 79.7827 52.9195 79.722 53.0502 79.694C53.1995 79.6753 53.3769 79.6707 53.5822 79.68C53.7969 79.6893 53.9835 79.6847 54.1422 79.666H54.1842V79.61C54.1842 79.498 54.1842 79.4093 54.1842 79.344C54.1935 79.2693 54.1982 79.204 54.1982 79.148C54.1982 79.092 54.1935 79.0313 54.1842 78.966C54.1842 78.9007 54.1842 78.8073 54.1842 78.686C54.1842 78.4433 54.1795 78.2053 54.1702 77.972C54.1702 77.7293 54.1749 77.4913 54.1842 77.258V77.062C54.1842 76.9407 54.1842 76.81 54.1842 76.67C54.1935 76.5207 54.2075 76.376 54.2262 76.236C54.2449 76.0867 54.2775 75.9513 54.3242 75.83C54.3709 75.6993 54.4362 75.592 54.5202 75.508C54.6602 75.3867 54.8095 75.326 54.9682 75.326H54.9962C55.2202 75.3353 55.3975 75.4053 55.5282 75.536C55.6682 75.6573 55.7709 75.8067 55.8362 75.984C55.9109 76.1613 55.9575 76.348 55.9762 76.544C55.9949 76.7307 56.0042 76.8987 56.0042 77.048V85.448C56.0042 85.4573 56.0042 85.4993 56.0042 85.574C56.0042 85.658 55.9949 85.756 55.9762 85.868C55.9575 85.98 55.9295 86.092 55.8922 86.204C55.8549 86.316 55.7942 86.4093 55.7102 86.484C55.6449 86.5493 55.5515 86.6007 55.4302 86.638C55.3089 86.6753 55.1969 86.694 55.0942 86.694C54.8702 86.694 54.6929 86.6193 54.5622 86.47C54.4409 86.3393 54.3662 86.204 54.3382 86.064C54.3102 85.924 54.2869 85.7747 54.2682 85.616C54.2682 85.588 54.2635 85.56 54.2542 85.532C54.2542 85.504 54.2542 85.4713 54.2542 85.434C54.2355 85.2847 54.2262 85.126 54.2262 84.958C54.2262 84.79 54.2215 84.622 54.2122 84.454C54.2029 84.3513 54.1982 84.2533 54.1982 84.16C54.1982 84.0573 54.1982 83.9547 54.1982 83.852V83.53C54.1982 83.4367 54.1982 83.32 54.1982 83.18C54.1982 83.0307 54.1935 82.8813 54.1842 82.732C54.1842 82.5733 54.1842 82.424 54.1842 82.284C54.1842 82.144 54.1842 82.0227 54.1842 81.92C54.1842 81.8733 54.1842 81.822 54.1842 81.766C54.1842 81.71 54.1749 81.6587 54.1562 81.612ZM51.3422 75.984C51.7249 75.984 52.0515 76.0167 52.3222 76.082C52.5929 76.1473 52.8075 76.3153 52.9662 76.586C53.1155 76.838 53.1389 77.09 53.0362 77.342C52.9055 77.6033 52.6722 77.7573 52.3362 77.804C52.1122 77.8413 51.8555 77.8647 51.5662 77.874C51.2769 77.874 50.8942 77.8647 50.4182 77.846C50.4089 78.0047 50.4042 78.168 50.4042 78.336C50.4042 78.4947 50.4042 78.644 50.4042 78.784C50.4042 78.9147 50.4042 79.0267 50.4042 79.12C50.4135 79.2133 50.4182 79.274 50.4182 79.302V80.87C50.4182 80.9447 50.4229 81.0473 50.4322 81.178C50.4415 81.2993 50.4509 81.3927 50.4602 81.458C50.5349 81.5327 50.6375 81.6447 50.7682 81.794C50.8989 81.934 51.0015 82.0507 51.0762 82.144C51.1695 82.256 51.2629 82.3727 51.3562 82.494C51.4589 82.6153 51.5615 82.7507 51.6642 82.9C51.7389 82.984 51.8042 83.068 51.8602 83.152C51.9162 83.236 51.9675 83.3107 52.0142 83.376C52.1915 83.628 52.3735 83.9033 52.5602 84.202C52.7469 84.5007 52.8729 84.7993 52.9382 85.098C52.9662 85.2287 52.9662 85.3687 52.9382 85.518C52.9195 85.6767 52.8542 85.8073 52.7422 85.91C52.5835 86.05 52.4062 86.12 52.2102 86.12C51.9955 86.12 51.7902 86.0593 51.5942 85.938C51.3982 85.826 51.2395 85.7047 51.1182 85.574C50.9409 85.3873 50.7729 85.1913 50.6142 84.986C50.4649 84.7807 50.3155 84.58 50.1662 84.384C50.0635 84.2347 49.9562 84.09 49.8442 83.95C49.7322 83.8007 49.6155 83.656 49.4942 83.516C49.4755 83.4787 49.4569 83.4553 49.4382 83.446C49.4382 83.4553 49.4335 83.46 49.4242 83.46C49.4242 83.46 49.4242 83.4647 49.4242 83.474C49.3775 83.5487 49.3215 83.6233 49.2562 83.698C49.2002 83.7633 49.1489 83.8333 49.1022 83.908C49.0275 83.992 48.9575 84.0807 48.8922 84.174C48.8362 84.258 48.7802 84.342 48.7242 84.426C48.5935 84.622 48.4629 84.8133 48.3322 85C48.2015 85.196 48.0522 85.378 47.8842 85.546C47.4829 85.9473 47.1049 86.148 46.7502 86.148C46.6569 86.148 46.5682 86.134 46.4842 86.106C46.2695 86.05 46.1249 85.9193 46.0502 85.714C45.9755 85.5553 45.9475 85.3827 45.9662 85.196C45.9942 85.0093 46.0409 84.846 46.1062 84.706C46.1809 84.5473 46.2649 84.398 46.3582 84.258C46.4515 84.118 46.5495 83.978 46.6522 83.838C46.7175 83.754 46.7782 83.67 46.8342 83.586C46.8995 83.502 46.9555 83.418 47.0022 83.334C47.0862 83.194 47.1982 83.0307 47.3382 82.844C47.4875 82.648 47.6322 82.4613 47.7722 82.284C47.9215 82.0973 48.0569 81.9293 48.1782 81.78C48.2995 81.6307 48.3835 81.5233 48.4302 81.458V77.846H47.5762C47.2215 77.846 46.9742 77.846 46.8342 77.846C46.7035 77.8367 46.6055 77.8227 46.5402 77.804C46.1855 77.748 45.9475 77.5473 45.8262 77.202C45.7235 76.9033 45.7609 76.642 45.9382 76.418C46.0969 76.194 46.3209 76.054 46.6102 75.998C46.6569 75.9887 46.7035 75.984 46.7502 75.984C46.7969 75.9747 46.8482 75.97 46.9042 75.97C46.9975 75.97 47.0629 75.9747 47.1002 75.984H51.3422ZM66.2941 81.234C66.4154 81.318 66.4994 81.4253 66.5461 81.556C66.6021 81.6773 66.6254 81.8033 66.6161 81.934C66.6068 82.0647 66.5648 82.1907 66.4901 82.312C66.4248 82.424 66.3268 82.5127 66.1961 82.578C65.9908 82.69 65.7761 82.7647 65.5521 82.802C65.3281 82.8393 65.1088 82.858 64.8941 82.858H64.3201C64.2361 82.858 64.0821 82.858 63.8581 82.858C63.6341 82.858 63.3774 82.858 63.0881 82.858C62.7988 82.858 62.4908 82.858 62.1641 82.858C61.8468 82.858 61.5434 82.858 61.2541 82.858C60.9648 82.858 60.7081 82.858 60.4841 82.858C60.2601 82.858 60.1061 82.858 60.0221 82.858H59.7701C59.6208 82.858 59.4574 82.8533 59.2801 82.844C59.1028 82.8347 58.9301 82.8113 58.7621 82.774C58.5941 82.7367 58.4354 82.6853 58.2861 82.62C58.1368 82.5453 58.0108 82.4473 57.9081 82.326C57.8148 82.214 57.7448 82.0787 57.6981 81.92C57.6514 81.752 57.6188 81.5887 57.6001 81.43C57.5908 81.262 57.5861 81.122 57.5861 81.01C57.5861 80.8887 57.5861 80.8187 57.5861 80.8V77.076C57.5861 77.0667 57.5861 77.0247 57.5861 76.95C57.5861 76.8753 57.5908 76.796 57.6001 76.712C57.6094 76.6187 57.6234 76.53 57.6421 76.446C57.6608 76.3527 57.6841 76.278 57.7121 76.222C57.7961 76.0913 57.8801 75.9933 57.9641 75.928C58.0481 75.8627 58.1601 75.8207 58.3001 75.802C58.3374 75.7927 58.3794 75.788 58.4261 75.788C58.4821 75.788 58.5381 75.7833 58.5941 75.774C58.6501 75.774 58.7154 75.7693 58.7901 75.76H64.6701H64.8381C64.8848 75.76 64.9314 75.7647 64.9781 75.774C65.0341 75.774 65.0854 75.7693 65.1321 75.76H65.1601C65.2441 75.76 65.3281 75.7647 65.4121 75.774C65.5054 75.7833 65.5941 75.802 65.6781 75.83C65.7621 75.8487 65.8461 75.872 65.9301 75.9C66.0141 75.928 66.0888 75.9793 66.1541 76.054C66.2008 76.1193 66.2428 76.194 66.2801 76.278C66.3174 76.3527 66.3454 76.432 66.3641 76.516C66.3921 76.6373 66.3968 76.7773 66.3781 76.936C66.3501 77.132 66.2474 77.3047 66.0701 77.454C65.8928 77.594 65.7014 77.664 65.4961 77.664H59.5041V78.378V78.504C59.5788 78.504 59.6908 78.5087 59.8401 78.518C59.9894 78.518 60.1574 78.518 60.3441 78.518C60.5401 78.518 60.7454 78.518 60.9601 78.518C61.1841 78.518 61.4081 78.518 61.6321 78.518C62.1454 78.518 62.7054 78.5133 63.3121 78.504H64.6701C64.7168 78.504 64.7634 78.5087 64.8101 78.518C64.8568 78.518 64.9034 78.5133 64.9501 78.504H65.3281C65.4308 78.504 65.5334 78.5133 65.6361 78.532C65.7481 78.5507 65.8508 78.588 65.9441 78.644C66.0841 78.728 66.1728 78.854 66.2101 79.022C66.2474 79.1807 66.2568 79.3347 66.2381 79.484C66.2381 79.6707 66.1588 79.8247 66.0001 79.946C65.8508 80.058 65.6688 80.114 65.4541 80.114H63.7741C63.2048 80.1233 62.6774 80.128 62.1921 80.128H60.2461C60.1248 80.128 60.0034 80.128 59.8821 80.128C59.7608 80.128 59.6348 80.1233 59.5041 80.114C59.5134 80.3007 59.5181 80.4127 59.5181 80.45C59.5181 80.4873 59.5181 80.4967 59.5181 80.478C59.5181 80.45 59.5134 80.4127 59.5041 80.366C59.5041 80.31 59.5041 80.282 59.5041 80.282V80.856C59.5041 80.9213 59.5041 80.9633 59.5041 80.982C59.5134 81.0007 59.5228 81.01 59.5321 81.01C59.5414 81.0007 59.5508 80.9913 59.5601 80.982C59.5694 80.9727 59.5788 80.968 59.5881 80.968C59.6534 81.0053 59.7561 81.0333 59.8961 81.052C60.0454 81.0707 60.2134 81.08 60.4001 81.08H60.4561C60.5028 81.08 60.6194 81.08 60.8061 81.08C61.0021 81.0707 61.2261 81.066 61.4781 81.066C61.7301 81.066 62.0008 81.066 62.2901 81.066C62.5794 81.066 62.8501 81.066 63.1021 81.066C63.3541 81.066 63.5734 81.0707 63.7601 81.08C63.9468 81.08 64.0681 81.08 64.1241 81.08C64.3108 81.08 64.4601 81.08 64.5721 81.08C64.6841 81.08 64.7774 81.08 64.8521 81.08C64.9268 81.08 64.9921 81.08 65.0481 81.08C65.1041 81.0707 65.1694 81.066 65.2441 81.066C65.3934 81.066 65.5428 81.0707 65.6921 81.08C65.8414 81.0893 65.9908 81.1173 66.1401 81.164C66.1681 81.1733 66.1914 81.1827 66.2101 81.192C66.2381 81.2013 66.2661 81.2153 66.2941 81.234ZM58.0621 85.84C57.9128 85.8307 57.7634 85.8073 57.6141 85.77C57.4741 85.742 57.3481 85.6953 57.2361 85.63C57.1241 85.574 57.0308 85.49 56.9561 85.378C56.8908 85.266 56.8581 85.1167 56.8581 84.93C56.8581 84.7433 56.9188 84.58 57.0401 84.44C57.1148 84.3653 57.2081 84.3093 57.3201 84.272C57.4321 84.2347 57.5394 84.2067 57.6421 84.188C57.7448 84.1693 57.8334 84.16 57.9081 84.16C57.9921 84.16 58.0388 84.16 58.0481 84.16L65.8461 84.174C66.0888 84.174 66.3081 84.1787 66.5041 84.188C66.7094 84.188 66.8914 84.2533 67.0501 84.384C67.2461 84.5613 67.3441 84.762 67.3441 84.986C67.3441 85.126 67.3021 85.252 67.2181 85.364C67.1341 85.4853 67.0221 85.5693 66.8821 85.616C66.6954 85.6907 66.4994 85.742 66.2941 85.77C66.0981 85.798 65.9021 85.8167 65.7061 85.826C65.0248 85.854 64.3528 85.8633 63.6901 85.854C63.0274 85.8447 62.3834 85.84 61.7581 85.84C61.4221 85.84 61.0768 85.84 60.7221 85.84C60.3768 85.8493 60.0408 85.854 59.7141 85.854C59.3968 85.854 59.0934 85.854 58.8041 85.854C58.5148 85.854 58.2674 85.8493 58.0621 85.84Z" fill="black"/>
<g clip-path="url(#clip1_135_606)">
<path d="M42.2442 44.4423L51.0243 62.7656L57.2059 43.7088L42.2442 44.4423Z" fill="#EA9B65"/>
<path d="M41.958 44.8497L51.06 63.9071L57.5185 44.0867L41.958 44.8497Z" fill="#EA9B65"/>
<path d="M47.2194 57.4509C47.1063 57.4564 46.9921 57.4397 46.8763 57.401C46.5578 57.2609 46.4294 56.9552 46.6141 56.6789L52.7248 47.7374C52.9106 47.483 53.3308 47.3734 53.6493 47.5139C53.9679 47.6541 54.0968 47.9597 53.9115 48.236L47.8003 57.1552C47.6664 57.3175 47.4456 57.4398 47.2194 57.4509ZM44.6489 55.3274C44.5358 55.3329 44.4216 55.3161 44.3063 55.277C43.9873 55.1369 43.8589 54.8313 44.0442 54.555L50.1548 45.6134C50.3407 45.3595 50.7608 45.2494 51.0794 45.39C51.3984 45.5301 51.5268 45.8357 51.3415 46.112L45.2309 55.0536C45.1243 55.1926 44.903 55.3149 44.6489 55.3274Z" fill="#B77142"/>
<path d="M54.4889 60.091C54.2774 60.1014 54.0616 60.0229 53.9212 59.8516L43.3275 46.3612C43.1308 46.126 43.2199 45.7873 43.503 45.6177C43.7861 45.4481 44.1866 45.5175 44.3838 45.7527L54.977 59.2431C55.1736 59.4787 55.0845 59.817 54.8015 59.9866C54.6993 60.0583 54.5944 60.0859 54.4889 60.091ZM54.7637 56.5139C54.5523 56.5243 54.337 56.4457 54.196 56.2741L45.1549 44.7347C44.9582 44.4995 45.0473 44.1608 45.3304 43.9911C45.6135 43.8215 46.014 43.8905 46.2112 44.1261L55.2786 55.6642C55.4758 55.8994 55.3861 56.2381 55.1036 56.4077C55.0003 56.4799 54.8692 56.5087 54.7637 56.5139ZM52.4496 61.1712C52.2381 61.1816 52.0223 61.1031 51.8819 60.9314L43.8869 50.7439C43.6902 50.5087 43.7793 50.17 44.0624 50.0003C44.3455 49.8307 44.7465 49.9001 44.9432 50.1353L52.9376 60.3228C53.1343 60.558 53.0452 60.8967 52.7621 61.0664C52.6599 61.1385 52.5556 61.166 52.4496 61.1712Z" fill="#B77142"/>
<path d="M48.6728 61.0771C48.5597 61.0827 48.4455 61.0659 48.3303 61.0272C48.0117 60.8871 47.8834 60.5814 48.0681 60.3051L55.1319 49.9804C55.3177 49.726 55.7379 49.6163 56.0564 49.7569C56.3755 49.897 56.5033 50.2027 56.3186 50.479L49.2548 60.8037C49.1209 60.9656 48.8991 61.066 48.6728 61.0771Z" fill="#B77142"/>
<path d="M51.1432 65.2025C49.7947 65.2686 48.5779 64.6583 48.1149 63.6836L39.3348 45.3591C38.9876 44.6222 39.1108 43.7948 39.6651 43.1467C40.1937 42.4792 41.1112 42.0556 42.1242 42.0059L57.1143 41.2709C58.8092 41.1878 60.2409 42.2033 60.3062 43.5348C60.3201 43.8194 60.2813 44.0894 60.1905 44.3365L54.0305 63.3097C53.6972 64.3527 52.559 65.1116 51.1973 65.1999L51.1432 65.2025ZM51.0466 63.533L57.5875 43.4603L41.8292 44.2329L51.0466 63.533Z" fill="#4C2F1B"/>
<path d="M53.2061 48.2925C51.3396 48.3841 50.5354 47.5995 50.2005 47.1258C49.8034 46.5442 49.7718 45.8994 49.7489 45.4328L49.7434 45.3216L48.6113 45.3548C48.5545 45.3576 48.4698 45.3617 48.4124 45.3421C47.7714 45.5741 46.5977 45.9212 45.4667 45.9767C44.3635 46.0308 43.0745 45.7596 42.2129 45.5347L42.1282 45.5388C40.5398 45.5276 39.3193 44.9192 38.8146 43.8751C37.8734 42.028 39.5518 39.2508 40.2611 38.6812C40.8333 38.2078 41.7786 37.8271 43.2529 37.2428C43.725 37.0415 44.4763 36.7594 44.9206 36.5599C45.1588 33.3184 48.6026 30.6995 53.0995 30.479C59.4635 30.167 62.2927 33.5248 62.8076 36.5069C63.3606 39.6872 61.3973 43.5919 56.7369 44.5334C56.5402 44.5654 56.3151 44.5988 56.061 44.6332C56.0042 44.636 55.9479 44.6388 55.8643 44.6652L55.8894 45.1765C55.9429 45.6863 56.0246 46.7736 55.1284 47.5748C54.6388 48.0218 53.9699 48.2551 53.2061 48.2925Z" fill="#FFF3B5"/>
<path d="M53.2602 49.3962C51.3576 49.4895 49.7897 48.8581 48.9589 47.6643C48.746 47.3426 48.6235 47.0108 48.541 46.7584L48.4623 46.5161L48.1605 46.6054C47.2448 46.8766 46.3327 47.0409 45.5208 47.0807C44.1428 47.1483 42.7101 46.8382 41.9793 46.6472L41.9411 46.637L41.9005 46.6356C39.8202 46.5681 38.2149 45.7203 37.4961 44.309C36.2413 41.83 38.4018 38.6058 39.2593 37.9205C40.0442 37.2835 41.2472 36.8088 42.6394 36.2595C42.7541 36.2083 42.8718 36.1629 42.9965 36.1142C43.1481 36.0556 43.3082 35.9926 43.4599 35.9245L43.5858 35.8676L43.6083 35.7555C44.3056 32.2377 48.1748 29.6147 53.0159 29.3773C59.805 29.0444 63.5288 32.6291 64.2076 36.329C64.9062 40.5025 62.0999 44.3595 57.534 45.4965L57.3284 45.5479L57.324 45.7167C57.297 46.7731 56.9091 47.642 56.1723 48.299C55.4462 48.9504 54.4125 49.3397 53.2602 49.3962ZM51.0236 44.2189C51.1249 44.3628 51.1391 44.8883 51.145 45.12L51.1526 45.342C51.1735 45.7786 51.1956 46.2311 51.4442 46.5971C51.7488 47.0456 52.3236 47.2523 53.1531 47.2117C53.5377 47.1928 53.8477 47.0804 54.0739 46.8782C54.5623 46.4408 54.5001 45.7296 54.4623 45.3046L54.4507 45.1584L54.393 43.9805C54.383 43.7775 55.3649 43.6407 55.7844 43.5827C56.0205 43.5496 56.2381 43.5191 56.4034 43.4839C60.2671 42.7033 61.8594 39.3993 61.394 36.6872C60.9615 34.1676 58.5357 31.3192 53.1236 31.5846C51.103 31.6836 49.2216 32.377 47.9621 33.4874C46.8327 34.4825 46.2618 35.7635 46.3534 37.095C46.2721 37.3258 44.7707 37.9149 43.8738 38.2674C42.7787 38.6972 41.7442 39.1033 41.2914 39.4637C40.8436 39.8144 39.4723 42.0864 40.1452 43.4558C40.3631 43.8999 40.9008 44.4333 42.2211 44.4499C42.387 44.4607 42.5617 44.4715 42.7272 44.5185C42.8817 44.5643 44.3011 44.9719 45.4426 44.9159C46.5316 44.8625 47.7321 44.4375 47.9613 44.3531C48.0077 44.3388 48.173 44.2924 48.3594 44.2832C48.4255 44.28 48.4823 44.2772 48.5233 44.2859L48.5648 44.2947L51.0236 44.2189Z" fill="#4C2F1B"/>
<path d="M51.3149 38.0506C47.3551 38.2447 43.9787 35.8711 43.8251 32.738C43.6715 29.6052 46.7716 26.9141 50.7593 26.7186C54.7191 26.5244 58.096 28.898 58.2496 32.0307C58.4027 35.1639 55.3026 37.8551 51.3149 38.0506Z" fill="#FF5F5F"/>
<path d="M51.3692 39.1542C46.6335 39.3864 42.6319 36.5383 42.4489 32.8054C42.266 29.0851 45.9703 25.8695 50.7065 25.6373C55.4427 25.4051 59.4443 28.2532 59.6273 31.986C59.8097 35.7064 56.1049 38.922 51.3692 39.1542ZM50.8147 27.8445C47.6122 28.0015 45.1068 30.1657 45.2296 32.6691C45.3529 35.185 48.0585 37.104 51.261 36.9469C54.4635 36.7899 56.9688 34.6254 56.8461 32.1219C56.7228 29.6065 54.0166 27.6875 50.8147 27.8445Z" fill="#4C2F1B"/>
<path d="M44.8396 33.7799C44.8487 33.964 45.0459 34.1037 45.2801 34.0922C45.5143 34.0807 45.697 33.922 45.688 33.7383C45.679 33.5541 45.4817 33.4141 45.2475 33.4255C45.0133 33.437 44.8306 33.5962 44.8396 33.7799Z" fill="#FF8585"/>
<path d="M47.2064 31.7486C47.1217 31.7528 47.0359 31.7346 46.9501 31.7164C46.6048 31.6219 46.4202 31.3194 46.5486 31.0455C46.9586 30.1566 48.6068 28.4945 52.0736 28.6589C52.4435 28.6851 52.7113 28.9396 52.697 29.2299C52.6549 29.5215 52.3248 29.7382 51.956 29.7339C48.7164 29.5808 47.866 31.3152 47.8124 31.385C47.7386 31.6111 47.4894 31.7347 47.2064 31.7486Z" fill="#FFF3B5"/>
<path d="M43.486 42.0205C39.47 42.2174 36.0624 39.801 35.9077 36.6455C35.753 33.49 38.9078 30.7519 42.9239 30.555C46.94 30.3581 50.3475 32.7745 50.5022 35.9299C50.6569 39.0854 47.5021 41.8235 43.486 42.0205Z" fill="#FFED69"/>
<path d="M43.5401 43.1239C38.7416 43.3592 34.6878 40.4839 34.5029 36.7142C34.3181 32.9445 38.0713 29.6869 42.8698 29.4516C47.6678 29.2164 51.7216 32.0916 51.9065 35.8614C52.0913 39.6311 48.3381 42.8887 43.5401 43.1239ZM42.978 31.6589C39.7291 31.8182 37.1874 34.0241 37.3126 36.5769C37.4377 39.1297 40.1825 41.0764 43.4319 40.9171C46.6814 40.7578 49.2225 38.5514 49.0974 35.9987C48.9722 33.4459 46.2269 31.4996 42.978 31.6589Z" fill="#4C2F1B"/>
<path d="M39.272 35.8794C39.1874 35.8836 39.101 35.8654 39.0152 35.8473C38.6699 35.7527 38.4853 35.4503 38.6137 35.1763C39.0237 34.2875 40.6719 32.6254 44.1387 32.7897C44.5087 32.8163 44.7764 33.0704 44.7621 33.3607C44.7194 33.6524 44.3899 33.869 44.0217 33.8647C40.7821 33.7116 39.9316 35.4461 39.8781 35.5158C39.7758 35.7433 39.5267 35.8669 39.272 35.8794Z" fill="#FFF3B5"/>
<path d="M45.1494 33.7423C45.1639 34.0368 45.4794 34.261 45.8548 34.2426C46.2296 34.2242 46.5217 33.9706 46.5072 33.6757C46.4928 33.3813 46.1773 33.1575 45.8025 33.1759C45.4276 33.1942 45.135 33.4483 45.1494 33.7423Z" fill="#FFF3B5"/>
</g>
<defs>
<clipPath id="clip0_135_606">
<rect width="29.7409" height="39.5392" fill="white" transform="translate(34 26.4564) rotate(-2.80692)"/>
</clipPath>
<clipPath id="clip1_135_606">
<rect width="29.7409" height="39.5392" fill="white" transform="translate(34 26.4564) rotate(-2.80692)"/>
</clipPath>
</defs>
</svg>
