<svg width="100" height="100" viewBox="0 0 100 100" fill="none" xmlns="http://www.w3.org/2000/svg">
<path d="M47.75 3.03109C49.1423 2.22724 50.8577 2.22724 52.25 3.03109L89.5513 24.567C90.9436 25.3708 91.8013 26.8564 91.8013 28.4641V71.5359C91.8013 73.1436 90.9436 74.6292 89.5513 75.433L52.25 96.9689C50.8577 97.7728 49.1423 97.7728 47.75 96.9689L10.4487 75.433C9.05643 74.6292 8.19873 73.1436 8.19873 71.5359V28.4641C8.19873 26.8564 9.05643 25.3708 10.4487 24.567L47.75 3.03109Z" fill="#FFCD19" stroke="#B26128" stroke-width="3"/>
<path d="M49.4358 85.644C49.5851 85.6533 49.7158 85.686 49.8278 85.742C49.9398 85.8073 50.0191 85.9147 50.0658 86.064C50.1684 86.4093 50.0471 86.6427 49.7018 86.764C49.5898 86.8107 49.4731 86.8387 49.3518 86.848C49.2398 86.8573 49.1371 86.862 49.0438 86.862H42.8138C42.6271 86.862 42.4311 86.862 42.2258 86.862C42.0204 86.862 41.8151 86.8573 41.6098 86.848C41.3578 86.8387 41.1804 86.7593 41.0778 86.61C40.9844 86.4607 40.9284 86.2787 40.9098 86.064L40.8538 85.098C40.8538 85.042 40.8538 84.9767 40.8538 84.902C40.8538 84.818 40.8584 84.734 40.8678 84.65C40.8771 84.5567 40.8911 84.4727 40.9098 84.398C40.9284 84.314 40.9611 84.2487 41.0078 84.202C41.1384 84.0713 41.2878 83.9873 41.4558 83.95C41.6238 83.9127 41.8104 83.894 42.0158 83.894H42.4498C42.4964 83.894 42.5338 83.8987 42.5618 83.908C42.5898 83.908 42.6178 83.908 42.6458 83.908H48.4698V83.348H42.5058C42.4591 83.348 42.4078 83.348 42.3518 83.348C42.3051 83.3387 42.2538 83.3387 42.1978 83.348H41.8618C41.7684 83.348 41.6844 83.348 41.6098 83.348C41.5351 83.348 41.4604 83.3387 41.3858 83.32C41.3018 83.3013 41.2224 83.2827 41.1478 83.264C41.0824 83.2453 41.0264 83.1987 40.9798 83.124C40.8584 82.9093 40.8304 82.6947 40.8958 82.48C40.9238 82.4053 40.9658 82.3493 41.0218 82.312C41.0778 82.2653 41.1431 82.228 41.2178 82.2C41.2924 82.172 41.3624 82.1533 41.4278 82.144C41.5024 82.1253 41.5678 82.1113 41.6238 82.102C41.6984 82.0927 41.7684 82.088 41.8338 82.088C41.9084 82.0787 41.9831 82.074 42.0578 82.074H42.2958C42.3424 82.0833 42.3844 82.088 42.4218 82.088C42.4684 82.088 42.5151 82.088 42.5618 82.088H48.6098C49.0858 82.088 49.4498 82.1627 49.7018 82.312C49.9538 82.452 50.0798 82.6853 50.0798 83.012V84.3C50.0798 84.4307 50.0471 84.552 49.9818 84.664C49.9258 84.7667 49.8231 84.8647 49.6738 84.958C49.5524 85.0327 49.4311 85.07 49.3098 85.07C49.1884 85.0793 49.0671 85.084 48.9458 85.084H42.5758V85.644H49.4358ZM43.4298 75.382C44.3818 75.4473 45.1051 75.7507 45.5998 76.292C46.1038 76.8333 46.3231 77.6033 46.2578 78.602C46.1924 79.442 45.9311 80.0907 45.4738 80.548C45.0258 81.0053 44.3538 81.234 43.4578 81.234C43.2898 81.234 43.1124 81.234 42.9258 81.234C42.7391 81.234 42.5478 81.2247 42.3518 81.206C42.1651 81.178 41.9691 81.1313 41.7638 81.066C41.5584 81.0007 41.3484 80.9027 41.1338 80.772C40.9284 80.6413 40.7558 80.4827 40.6158 80.296C40.4851 80.1093 40.3778 79.9087 40.2938 79.694C40.2098 79.47 40.1491 79.2413 40.1118 79.008C40.0838 78.7747 40.0698 78.546 40.0698 78.322C40.0698 77.818 40.1538 77.3747 40.3218 76.992C40.4898 76.6093 40.7231 76.292 41.0218 76.04C41.3204 75.788 41.6751 75.606 42.0858 75.494C42.4964 75.382 42.9444 75.3447 43.4298 75.382ZM50.0938 80.604C50.0938 80.604 50.0891 80.6367 50.0798 80.702C50.0704 80.7673 50.0518 80.842 50.0238 80.926C49.9958 81.01 49.9538 81.0987 49.8978 81.192C49.8418 81.276 49.7671 81.346 49.6738 81.402C49.5431 81.4767 49.4124 81.514 49.2818 81.514C49.1231 81.514 48.9691 81.4627 48.8198 81.36C48.7171 81.2853 48.6378 81.1873 48.5818 81.066C48.5071 80.926 48.4558 80.772 48.4278 80.604C48.4091 80.436 48.3951 80.2633 48.3858 80.086C48.3858 79.9087 48.3904 79.736 48.3998 79.568C48.4091 79.3907 48.4138 79.2227 48.4138 79.064C48.4138 78.868 48.4138 78.686 48.4138 78.518C48.4231 78.3407 48.4278 78.1727 48.4278 78.014C48.4278 77.846 48.4278 77.678 48.4278 77.51C48.4278 77.342 48.4278 77.16 48.4278 76.964V76.782C48.4184 76.6793 48.4138 76.572 48.4138 76.46C48.4231 76.3387 48.4418 76.2267 48.4698 76.124C48.5071 75.984 48.5911 75.8347 48.7218 75.676C48.7964 75.5827 48.8991 75.5173 49.0298 75.48C49.1698 75.4333 49.3191 75.4193 49.4778 75.438C49.7578 75.4847 49.9444 75.606 50.0378 75.802C50.0938 75.9233 50.1171 76.0727 50.1078 76.25C50.1078 76.4273 50.1031 76.5347 50.0938 76.572V80.604ZM44.6478 78.658C44.6944 78.322 44.6384 78.0093 44.4798 77.72C44.3304 77.4307 44.1064 77.2347 43.8078 77.132C43.6118 77.0667 43.3971 77.034 43.1638 77.034C42.9304 77.034 42.7064 77.076 42.4918 77.16C42.2864 77.2347 42.1044 77.356 41.9458 77.524C41.7964 77.6827 41.7031 77.8927 41.6658 78.154C41.6378 78.3313 41.6378 78.5133 41.6658 78.7C41.6938 78.8773 41.7544 79.0407 41.8478 79.19C41.9504 79.33 42.0904 79.4513 42.2678 79.554C42.4451 79.6567 42.6691 79.722 42.9398 79.75C43.1264 79.7687 43.3084 79.7687 43.4858 79.75C43.6724 79.7313 43.8404 79.6847 43.9898 79.61C44.1484 79.5353 44.2838 79.4327 44.3958 79.302C44.5078 79.162 44.5871 78.9847 44.6338 78.77L44.6478 78.658ZM59.4609 82.69C59.7689 82.6713 59.9975 82.6947 60.1469 82.76C60.2122 82.7973 60.2775 82.8347 60.3429 82.872C60.4175 82.9 60.4782 82.942 60.5249 82.998C60.5715 83.0447 60.6089 83.0913 60.6369 83.138C60.6649 83.1847 60.6835 83.236 60.6929 83.292C60.7115 83.3387 60.7255 83.39 60.7349 83.446C60.7535 83.502 60.7629 83.5673 60.7629 83.642V85.574C60.7629 85.826 60.7489 86.0313 60.7209 86.19C60.7022 86.3487 60.6695 86.4747 60.6229 86.568C60.5762 86.6613 60.5202 86.7313 60.4549 86.778C60.3895 86.8247 60.3149 86.862 60.2309 86.89C60.0069 86.9647 59.7689 86.9833 59.5169 86.946C59.2742 86.918 59.0969 86.7827 58.9849 86.54C58.9569 86.4747 58.9382 86.3767 58.9289 86.246C58.9195 86.1153 58.9102 85.9707 58.9009 85.812C58.9009 85.6627 58.9009 85.504 58.9009 85.336C58.9102 85.168 58.9149 85.014 58.9149 84.874C58.9149 84.6873 58.8449 84.5707 58.7049 84.524C58.5649 84.468 58.4109 84.44 58.2429 84.44H56.3109C55.8535 84.44 55.4009 84.4447 54.9529 84.454C54.5049 84.4633 54.0475 84.4587 53.5809 84.44C53.3289 84.44 53.0629 84.4447 52.7829 84.454C52.5122 84.454 52.2509 84.4167 51.9989 84.342C51.7842 84.2673 51.6349 84.132 51.5509 83.936C51.4669 83.7307 51.4529 83.5207 51.5089 83.306C51.5649 83.1567 51.6349 83.04 51.7189 82.956C51.8029 82.872 51.9009 82.8113 52.0129 82.774C52.1249 82.7273 52.2462 82.704 52.3769 82.704C52.5075 82.6947 52.6475 82.69 52.7969 82.69H59.4609ZM51.5089 81.416C51.4155 81.36 51.3362 81.2573 51.2709 81.108C51.2242 81.0053 51.1962 80.9073 51.1869 80.814C51.1869 80.7207 51.1962 80.6273 51.2149 80.534C51.2709 80.3287 51.3502 80.142 51.4529 79.974C51.5182 79.9087 51.5789 79.834 51.6349 79.75C51.7002 79.666 51.7655 79.5867 51.8309 79.512C51.9149 79.4373 51.9849 79.372 52.0409 79.316C52.1062 79.2507 52.1622 79.1807 52.2089 79.106L52.6989 78.532C52.7735 78.42 52.8482 78.3127 52.9229 78.21C53.0069 78.1073 53.0909 78.0047 53.1749 77.902C53.2029 77.8553 53.2309 77.818 53.2589 77.79C53.2962 77.7527 53.3289 77.7107 53.3569 77.664C53.4035 77.6173 53.4409 77.5753 53.4689 77.538C53.5062 77.4913 53.5482 77.4447 53.5949 77.398C53.6322 77.342 53.6602 77.2953 53.6789 77.258C53.7069 77.2113 53.7395 77.1647 53.7769 77.118C53.7862 77.0713 53.7955 77.0247 53.8049 76.978C53.8142 76.9313 53.8189 76.8847 53.8189 76.838C53.8375 76.7447 53.8469 76.6607 53.8469 76.586C53.8562 76.5113 53.8609 76.4367 53.8609 76.362C53.8795 76.2033 53.9122 76.054 53.9589 75.914C53.9962 75.8113 54.0662 75.7133 54.1689 75.62C54.2342 75.592 54.3042 75.564 54.3789 75.536C54.4629 75.508 54.5562 75.494 54.6589 75.494C54.7989 75.494 54.9389 75.5173 55.0789 75.564C55.1629 75.5827 55.2235 75.6153 55.2609 75.662C55.3075 75.6993 55.3542 75.7553 55.4009 75.83C55.4662 76.026 55.4849 76.2173 55.4569 76.404C55.4289 76.5627 55.4475 76.7587 55.5129 76.992C55.5595 77.132 55.6389 77.258 55.7509 77.37C56.0215 77.65 56.2689 77.9533 56.4929 78.28C56.7262 78.6067 56.9642 78.9287 57.2069 79.246C57.2722 79.3487 57.3375 79.4513 57.4029 79.554C57.4775 79.6567 57.5522 79.7593 57.6269 79.862C57.6829 79.9647 57.7342 80.0767 57.7809 80.198C57.8369 80.31 57.8742 80.422 57.8929 80.534C57.9395 80.7487 57.9162 80.926 57.8229 81.066C57.7762 81.15 57.7249 81.2153 57.6689 81.262C57.6129 81.3087 57.5475 81.3507 57.4729 81.388C57.3982 81.4067 57.3235 81.4253 57.2489 81.444C57.1742 81.4533 57.0902 81.4487 56.9969 81.43C56.8195 81.4113 56.6655 81.346 56.5349 81.234C56.3482 81.0473 56.1755 80.8607 56.0169 80.674C55.8582 80.4873 55.7135 80.296 55.5829 80.1L54.7009 78.966C54.6169 79.0593 54.5375 79.1433 54.4629 79.218C54.3882 79.2833 54.3135 79.3533 54.2389 79.428C54.1829 79.4933 54.1175 79.5633 54.0429 79.638C53.9775 79.7127 53.9029 79.7873 53.8189 79.862C53.7442 79.9553 53.6695 80.0393 53.5949 80.114C53.5295 80.1793 53.4689 80.2493 53.4129 80.324C53.3382 80.408 53.2729 80.4873 53.2169 80.562C53.1702 80.6273 53.1235 80.6833 53.0769 80.73C53.0209 80.7767 52.9742 80.8233 52.9369 80.87C52.9089 80.9167 52.8902 80.9447 52.8809 80.954C52.8342 81.01 52.7782 81.0613 52.7129 81.108C52.6569 81.1547 52.6009 81.206 52.5449 81.262C52.4889 81.3087 52.4235 81.346 52.3489 81.374C52.2835 81.402 52.2089 81.4207 52.1249 81.43C52.0875 81.4487 52.0409 81.4627 51.9849 81.472C51.9289 81.472 51.8775 81.472 51.8309 81.472C51.7749 81.472 51.7189 81.4673 51.6629 81.458C51.6162 81.4393 51.5649 81.4253 51.5089 81.416ZM60.9869 80.87C60.9682 81.0847 60.8935 81.29 60.7629 81.486C60.6322 81.6727 60.4362 81.766 60.1749 81.766C59.9789 81.766 59.8202 81.724 59.6989 81.64C59.5869 81.5467 59.5029 81.43 59.4469 81.29C59.3909 81.15 59.3535 80.996 59.3349 80.828C59.3162 80.66 59.3069 80.492 59.3069 80.324V76.88C59.3069 76.684 59.3069 76.4787 59.3069 76.264C59.3162 76.0493 59.3769 75.8487 59.4889 75.662C59.5915 75.494 59.7455 75.396 59.9509 75.368C60.1655 75.3307 60.3569 75.3447 60.5249 75.41C60.6369 75.4753 60.7255 75.5593 60.7909 75.662C60.8562 75.7553 60.9029 75.858 60.9309 75.97C60.9589 76.082 60.9729 76.1987 60.9729 76.32C60.9822 76.4413 60.9869 76.5533 60.9869 76.656C61.0055 77.3653 61.0102 78.0653 61.0009 78.756C60.9915 79.4467 60.9869 80.1513 60.9869 80.87Z" fill="#24221B"/>
<g clip-path="url(#clip0_135_716)">
<path d="M35.7714 57.1107C34.1355 57.1107 33.2811 56.2886 32.8474 55.5945C31.9379 54.1428 32.2677 52.3984 32.4449 51.7118C32.5364 51.3613 32.6403 50.911 32.7559 50.3818C33.4824 47.1142 34.8378 41.0218 38.7629 38.155C41.4058 36.2243 46.6254 35.5376 50.6302 35.5376C53.0595 35.5376 59.0483 35.8167 62.1924 38.4189C66.8075 42.2301 67.9729 52.2767 68.0222 52.7057C68.0286 52.7771 68.0345 52.8486 68.0345 52.927C68.0345 55.5512 66.6977 57.1176 64.4574 57.1176H35.7714V57.1107Z" fill="white"/>
<path d="M35.7656 58.6049C33.4856 58.6049 32.3046 57.2725 31.803 56.478C30.9176 55.0677 30.7018 53.1659 31.2109 51.2609C31.2816 51.007 31.3667 50.6282 31.4663 50.1849L31.5059 50.0081C32.2827 46.5317 33.7291 40.0612 38.0782 36.8839C40.9588 34.7846 46.4508 34.0371 50.6307 34.0371C53.801 34.0371 59.6142 34.446 62.9311 37.1849C67.9022 41.2927 69.1656 51.3663 69.2936 52.5012C69.3107 52.6386 69.3161 52.779 69.3161 52.9126C69.3161 56.3701 67.4092 58.6043 64.4579 58.6043H35.7656V58.6049ZM50.6302 37.0463C45.8149 37.0463 41.4203 37.9863 39.4353 39.4417C35.9369 41.9988 34.6676 47.7099 33.9856 50.7787C33.863 51.3324 33.7575 51.8065 33.6601 52.1714C33.4037 53.1458 33.4834 54.0983 33.8748 54.7179C34.2506 55.3142 34.8871 55.6164 35.7656 55.6164H64.4568C65.9798 55.6164 66.7523 54.7116 66.7523 52.9276C66.7432 52.8524 65.6736 43.1362 61.4541 39.6473C59.4552 37.9951 55.5103 37.0463 50.6302 37.0463Z" fill="#4C2F1B"/>
<path d="M35.7656 58.4187C33.5557 58.4187 32.4144 57.1333 31.931 56.3676C31.0766 55.0063 30.8688 53.1653 31.3624 51.3167C31.4331 51.0628 31.5193 50.6803 31.6199 50.2326L31.6595 50.0557C32.4347 46.5869 33.8673 40.1797 38.1622 37.0419C41.014 34.9639 46.4728 34.224 50.6302 34.224C53.7812 34.224 59.558 34.6284 62.839 37.3379C67.755 41.4006 69.0082 51.3995 69.1351 52.5269C69.1517 52.658 69.156 52.7897 69.156 52.9145C69.156 56.2585 67.3112 58.4193 64.4568 58.4193H35.7656V58.4187ZM50.6302 36.8601C45.7865 36.8601 41.3598 37.8113 39.3512 39.2836C35.7993 41.8803 34.5193 47.6385 33.8319 50.7323C33.7099 51.2816 33.6055 51.7532 33.5086 52.1156C33.2372 53.1477 33.326 54.161 33.7468 54.8288C34.1547 55.4753 34.8335 55.8033 35.7656 55.8033H64.4568C66.0628 55.8033 66.9113 54.8088 66.9113 52.9276C66.8637 52.4768 65.7614 42.9814 61.5457 39.495C59.521 37.8207 55.5424 36.8601 50.6302 36.8601Z" fill="#4C2F1B"/>
<path d="M45.9359 56.1601V41.9448L54.3294 42.0521V56.1594H45.9359V56.1601Z" fill="#4C2F1B"/>
<path d="M46.8026 42.9676L53.4685 43.0459V55.1442H46.8026V42.9676ZM45.075 40.9227V57.1753H55.1966V41.0513L53.4873 41.03L46.8213 40.9441L45.075 40.9227Z" fill="#4C2F1B"/>
<path d="M28.7725 43.335C31.9031 32.0625 40.2688 29.2508 50.1586 29.2508C59.5055 29.2508 66.9033 32.0632 70.5762 43.3425C74.0168 53.9064 58.5178 42.7569 50.1586 42.7569C41.7988 42.7569 25.7901 54.0676 28.7725 43.335Z" fill="#FF6C4A"/>
<path d="M47.4985 29.7111C47.4985 29.7111 46.5766 36.2964 48.2249 42.3957C48.2249 42.3957 49.3358 41.8665 51.741 42.36C51.741 42.36 49.7935 35.2454 51.1918 29.5963C51.1853 29.5894 49.2812 29.4107 47.4985 29.7111Z" fill="#FFAF9F"/>
<path d="M60.5157 31.2637C58.9937 39.2561 60.5157 45.2262 60.5157 45.2262L63.8985 46.417C63.8985 46.417 63.1886 38.829 63.566 33.1962C63.566 33.1881 61.392 31.5929 60.5157 31.2637Z" fill="#FFAF9F"/>
<path d="M61.142 46.1919C60.9011 44.9923 59.8695 39.0993 61.1104 31.527C61.9145 31.9829 63.1924 32.9642 63.6453 33.3223C63.3487 38.5168 63.7946 45.1792 63.952 47.2654L61.142 46.1919Z" fill="#FFAF9F"/>
<path d="M48.3989 42.8246C47.0536 37.0658 47.5724 30.9464 47.7201 29.5293C48.3491 29.4308 49.0504 29.3806 49.8085 29.3806C50.218 29.3806 50.5686 29.3963 50.8143 29.4114C49.7635 34.6968 50.908 40.808 51.3406 42.7832C50.8111 42.691 50.3063 42.6446 49.8358 42.6446C49.1666 42.6453 48.6896 42.7406 48.3989 42.8246Z" fill="#FFAF9F"/>
<path d="M31.9261 50.3109C29.5332 50.3109 28.2917 49.1158 27.6713 48.1138C26.2179 45.7466 27.0535 42.7957 27.3276 41.8257C31.2018 28.1472 42.1997 26.5652 50.1355 26.5652C57.9712 26.5652 67.5366 28.282 71.982 41.6689C72.3107 42.6565 73.3091 45.657 71.9017 48.0605C71.3246 49.0537 70.1528 50.2382 67.8514 50.2382C65.6362 50.2382 62.6731 49.1515 59.5355 48.0021C56.2967 46.8183 52.6254 45.4764 50.1361 45.4764C47.6725 45.4764 43.991 46.8051 40.7431 47.9777C37.4299 49.1785 34.3073 50.3109 31.9261 50.3109ZM50.1355 29.5675C38.6274 29.5675 32.3437 33.6383 29.7602 42.7663C29.2917 44.4273 29.2896 45.6012 29.7537 46.353C30.1472 46.9913 30.8576 47.3011 31.9256 47.3011C33.8962 47.3011 36.8528 46.2351 39.9829 45.1071C43.583 43.8097 47.3047 42.4678 50.135 42.4678C53.0119 42.4678 56.8824 43.8843 60.2967 45.1334C63.2539 46.2157 66.0457 47.2371 67.8503 47.2371C68.8118 47.2371 69.4445 46.9537 69.7861 46.3699C70.2154 45.6357 70.1517 44.4556 69.5923 42.7644C65.7341 31.1358 57.5917 29.5675 50.1355 29.5675Z" fill="#4C2F1B"/>
<path d="M31.9261 50.1241C29.6001 50.1241 28.3988 48.9709 27.8003 48.004C26.3951 45.7153 27.2104 42.8321 27.4786 41.8846C31.3207 28.3203 42.2495 26.7514 50.1355 26.7514C57.9209 26.7514 67.4231 28.4551 71.8337 41.7367C72.1544 42.7004 73.1309 45.6313 71.7706 47.9551C71.2144 48.9126 70.0837 50.0526 67.8514 50.0526C65.6608 50.0526 62.7084 48.9703 59.5831 47.8247C56.3326 46.6364 52.6484 45.2908 50.1361 45.2908C47.6468 45.2908 43.9508 46.6258 40.6901 47.8027C37.3946 48.9966 34.2827 50.1241 31.9261 50.1241ZM50.1355 29.3813C38.5482 29.3813 32.2174 33.4916 29.6092 42.7073C29.1237 44.4298 29.129 45.6576 29.6253 46.4621C30.0509 47.1525 30.8035 47.4873 31.9261 47.4873C33.9203 47.4873 36.8882 46.4176 40.0306 45.2851C43.6189 43.9915 47.3299 42.654 50.1361 42.654C52.9878 42.654 56.846 44.0655 60.2502 45.3108C63.2186 46.3969 66.0221 47.4228 67.8514 47.4228C68.8696 47.4228 69.5452 47.1124 69.9183 46.4747C70.3792 45.6858 70.3214 44.4499 69.7416 42.6967C65.8476 30.9633 57.6458 29.3813 50.1355 29.3813Z" fill="#4C2F1B"/>
<path d="M35.711 33.39C35.711 33.39 34.1135 40.5791 38.3946 45.7197L41.1286 44.7804C41.1286 44.7804 37.757 39.6994 38.4321 31.5634L35.711 33.39Z" fill="#FFAF9F"/>
<path d="M38.6028 45.9197C34.8881 40.8832 35.8362 34.0691 36.0327 32.9059L38.1489 31.3646C37.7757 38.6334 39.9642 43.5677 40.7672 45.1133L38.6028 45.9197Z" fill="#FFAF9F"/>
</g>
<defs>
<clipPath id="clip0_135_716">
<rect width="45.7931" height="32.0398" fill="white" transform="translate(26.8394 26.5652)"/>
</clipPath>
</defs>
</svg>
