<svg width="100" height="100" viewBox="0 0 100 100" fill="none" xmlns="http://www.w3.org/2000/svg">
<path d="M52.25 3.03109L89.5513 24.567C90.9436 25.3708 91.8013 26.8564 91.8013 28.4641V71.5359C91.8013 73.1436 90.9436 74.6292 89.5513 75.433L52.25 96.9689C50.8577 97.7728 49.1423 97.7728 47.75 96.9689L10.4487 75.433C9.05642 74.6292 8.19873 73.1436 8.19873 71.5359V28.4641C8.19873 26.8564 9.05643 25.3708 10.4487 24.567L47.75 3.03109C49.1423 2.22724 50.8577 2.22724 52.25 3.03109Z" fill="#FFCD19" stroke="#B26128" stroke-width="3"/>
<g clip-path="url(#clip0_135_626)">
<path d="M37.9329 23.0045L33.8118 48.8879C33.6286 50.0386 34.423 51.1141 35.5945 51.3006L61.8064 55.474C63.6904 55.7739 65.0111 53.6934 63.8903 52.1498L41.7958 22.1158C40.6755 20.5723 38.2311 21.1316 37.9329 23.0045Z" fill="#FCDB9A"/>
<path d="M34.3198 24.8358L39.1775 21.398C39.7583 21.0048 41.008 21.7356 41.4116 22.3089L63.4311 52.5161C63.7414 52.9355 64.1651 54.4148 63.2189 55.3284L59.3121 57.9691C58.8354 58.4484 58.3954 58.4017 57.9882 57.8506L34.7065 27.1415C34.2378 26.535 33.6823 25.2895 34.3198 24.8358Z" fill="#F7C18B"/>
<path d="M58.3931 59.6041C57.9567 59.5346 57.4038 59.308 56.9002 58.626L33.6365 27.943C33.4395 27.7036 32.5162 26.3995 32.7246 25.0908C32.8108 24.5494 33.1 24.0631 33.5485 23.7645L38.3836 20.3231C39.8109 19.3471 41.8268 20.5937 42.5011 21.5339L64.5206 51.7406C65.1248 52.5311 65.6866 54.7723 64.1766 56.267L63.9871 56.4221L60.1602 59.0059C59.5542 59.5575 58.9511 59.6462 58.5301 59.6259L58.3931 59.6041ZM35.4329 25.6839C35.4964 25.8793 35.6212 26.1306 35.7955 26.3664L58.803 56.731L62.3374 54.3553C62.6056 54.0047 62.4198 53.3966 62.3419 53.2918L40.3225 23.0846C40.2256 22.9534 39.9256 22.7671 39.7067 22.6627L35.4329 25.6839Z" fill="#4C2F1B"/>
<path d="M52.4397 53.0565C51.4516 52.8991 50.9819 52.1534 50.5926 51.4896C50.5152 51.3849 50.4642 51.261 50.3637 51.1522L37.0201 32.8781L37.0005 32.8517C36.3014 31.7685 36.1353 30.4464 36.5627 29.2417C36.9901 28.0369 37.9203 27.0746 39.1661 26.6482C40.6401 26.1197 42.6251 25.4867 43.255 25.3789C43.667 25.306 44.0369 25.2024 44.384 25.0958C45.0968 24.9084 45.7638 24.7136 46.5448 24.838C48.4973 25.1488 49.8166 27.0712 53.0736 33.0966C55.5829 37.7535 59.036 41.6583 61.569 44.5372C62.4855 45.5854 63.286 46.4767 63.8516 47.2143C64.2197 47.7124 64.3596 48.3132 64.2364 48.9411C63.9075 50.4158 62.1115 51.6341 61.4461 51.9676L61.2144 52.0926L53.9856 52.8159C53.5358 52.9767 53.0141 53.1479 52.4397 53.0565Z" fill="#FF9988"/>
<path d="M52.2747 54.0928C50.8203 53.8613 50.139 52.7726 49.6874 52.0522L49.6535 51.9995C49.5957 51.9213 49.53 51.833 49.4845 51.7474L36.1199 33.4394L36.1118 33.4101C35.2096 32.0238 35.0061 30.3823 35.5354 28.8726C36.0672 27.3669 37.2498 26.1932 38.7797 25.6517C40.0789 25.1721 42.2898 24.4703 43.0238 24.3324C43.2799 24.2766 43.5063 24.2182 43.7331 24.1609L44.2015 24.0425C44.9255 23.8578 45.7459 23.6486 46.6866 23.7984C49.2156 24.201 50.7743 26.6601 53.9851 32.6004C56.4215 37.1315 59.8215 40.9781 62.304 43.7861L62.346 43.8338C63.1301 44.712 64.02 45.7218 64.6806 46.5555C65.2515 47.3028 65.45 48.2258 65.2376 49.1519C64.717 51.433 61.9559 52.8598 61.9286 52.8721L61.4953 53.0853L61.04 53.1384L54.2268 53.822L54.1872 53.8385C53.5525 54.109 52.9094 54.1939 52.2747 54.0928ZM46.3603 25.8479C45.7961 25.7581 45.2696 25.9067 44.6026 26.0947C44.2575 26.1923 43.8664 26.3028 43.4169 26.3921C42.9276 26.4698 41.0047 27.0878 39.5104 27.6147C38.5929 27.9362 37.8847 28.6385 37.5677 29.5413C37.2479 30.4518 37.3655 31.4481 37.8906 32.2742L51.2439 50.5638C51.3327 50.6994 51.4186 50.837 51.4977 50.9638C51.8516 51.5312 52.1075 51.9414 52.6041 52.0205C52.8895 52.0659 53.202 51.9906 53.642 51.7686L60.8472 51.0416L60.8942 51.0179C61.6813 50.6202 62.94 49.6054 63.1435 48.6919C63.2163 48.3641 63.1535 48.062 62.961 47.8176C62.3934 47.0796 61.5886 46.1659 60.6568 45.1075C58.1194 42.2263 54.6439 38.2801 52.0966 33.56C48.9626 27.7239 47.7296 26.0659 46.3603 25.8479Z" fill="#4C2F1B"/>
<path d="M48.4722 50.4582C45.0721 49.9169 41.9063 47.6082 40.0072 44.2979C36.8705 38.8473 38.0696 32.351 42.6924 29.8015C44.3459 28.8848 46.2805 28.5681 48.2562 28.8827C51.6564 29.424 54.8216 31.7326 56.7212 35.0435C59.8579 40.4941 58.6587 46.9904 54.036 49.5399C52.3825 50.4561 50.4479 50.7728 48.4722 50.4582Z" fill="#FF624D"/>
<path d="M48.3073 51.4941C44.5805 50.9008 41.1256 48.4013 39.0661 44.8075C35.648 38.8717 37.0288 31.7318 42.1432 28.8911C43.9951 27.8633 46.157 27.5091 48.3944 27.8654C52.0985 28.4551 55.5528 30.9555 57.636 34.553C59.2588 37.3726 59.8718 40.5295 59.3621 43.4417C58.8194 46.562 57.1131 49.0575 54.5585 50.4679C52.7067 51.4956 50.5447 51.8503 48.3073 51.4941ZM48.0681 29.9149C46.333 29.6386 44.6484 29.9111 43.1971 30.7027C39.1098 32.9706 38.0931 38.8288 40.9298 43.7619C42.6935 46.8042 45.576 48.9116 48.6408 49.3996C50.3759 49.6758 52.0604 49.4034 53.5118 48.6118C57.5991 46.3433 58.6158 40.4857 55.7791 35.5525C54.0154 32.5097 51.1324 30.4027 48.0681 29.9149Z" fill="#4C2F1B"/>
<path d="M55.0001 40.9696C54.9485 41.2934 55.174 41.5991 55.5042 41.6517C55.8339 41.7042 56.1431 41.4841 56.1948 41.1598C56.2463 40.8359 56.0208 40.5307 55.6911 40.4782C55.3608 40.4256 55.0517 40.6457 55.0001 40.9696Z" fill="#FF7A6C"/>
<path d="M38.3207 24.709C38.3207 24.709 42.1942 22.5726 44.0412 25.6198C45.8876 28.6674 44.2365 29.4226 47.092 30.5715C49.948 31.72 47.7557 34.5412 49.4516 35.5745C51.148 36.6079 54.9316 35.7761 54.4844 39.1757C54.0376 42.5753 54.5873 42.5238 55.7667 43.8453C56.9692 45.1705 60.6668 43.3994 60.4601 46.7677C60.2271 50.1552 59.8433 50.0474 60.6286 51.3295C62.0285 53.6346 57.7379 54.2471 55.2066 53.428C52.6717 52.6311 54.2167 51.9514 53.3162 50.9519C52.4152 49.9523 36.0936 25.2339 36.0936 25.2339C36.0936 25.2339 36.1607 24.666 38.3207 24.709Z" fill="#6CEA90"/>
<path d="M56.0418 54.6947C55.6286 54.6289 55.2412 54.5439 54.8847 54.4176C53.2051 53.8726 52.5366 53.1876 52.5734 51.9212C52.5825 51.7146 52.5825 51.7146 52.5243 51.6358C51.6238 50.6362 37.9378 29.924 35.2048 25.7866L34.9955 25.4752L35.0333 25.0884C35.1384 24.1333 36.1581 23.6476 38.0425 23.6466C39.8037 22.7933 43.1604 22.1245 44.9532 25.0707C45.789 26.4766 45.9863 27.4565 46.1315 28.1739C46.285 28.985 46.3128 29.1051 47.4876 29.5697C49.7676 30.4879 49.7789 32.3411 49.7863 33.476C49.7789 34.262 49.8317 34.5246 50.0239 34.6476C50.3893 34.8677 51.0286 34.9928 51.6453 35.1138C53.2655 35.4413 56.0079 35.9703 55.5719 39.3021C55.2566 41.7275 55.4184 41.8923 56.1256 42.6296C56.2648 42.7903 56.4271 42.9552 56.6085 43.1465C56.7673 43.3337 57.49 43.3792 57.9567 43.4074C59.1926 43.4884 61.7745 43.6914 61.5542 46.8495C61.4848 47.8794 61.3924 48.6056 61.3325 49.1279C61.2095 50.1959 61.2095 50.1959 61.5633 50.7841C62.1428 51.7325 62.149 52.7287 61.5333 53.4868C60.4575 54.773 57.9716 55.002 56.0418 54.6947ZM54.7154 52.077C54.8 52.1366 55.0386 52.267 55.5331 52.4152C57.3931 53.0123 59.6058 52.578 59.8384 52.1522C59.8384 52.1522 59.8301 52.0585 59.7171 51.8786C59.0252 50.7504 59.0316 50.2653 59.2013 48.9043C59.2577 48.4043 59.3459 47.7007 59.4087 46.716C59.4714 45.7313 59.3442 45.6415 57.8065 45.5352C56.8272 45.4717 55.733 45.3903 54.9944 44.5551C54.832 44.3907 54.6929 44.2295 54.5733 44.0948C53.4218 42.8934 53.0402 42.1846 53.4479 39.0335C53.6224 37.7885 53.1849 37.5803 51.2658 37.2052C50.4653 37.0544 49.6224 36.874 48.934 36.4634C47.6648 35.7062 47.6826 34.4134 47.6651 33.4849C47.6536 32.3727 47.6337 31.9067 46.7244 31.5533C44.6438 30.713 44.3101 29.8499 44.0641 28.5847C43.9277 27.9616 43.8057 27.2479 43.1525 26.172C41.8655 24.0467 39.007 25.581 38.9003 25.6569L38.6418 25.801L38.359 25.8021C38.1488 25.792 37.9577 25.8078 37.7934 25.805C44.2654 35.6044 53.4622 49.4475 54.1777 50.2786C54.8004 50.9562 54.7843 51.6479 54.7727 52.016C54.7035 52.0056 54.7226 52.0319 54.7154 52.077Z" fill="#4C2F1B"/>
<path d="M33.8789 25.8298L29.758 51.7127C29.5747 52.8634 30.3691 53.9389 31.5406 54.1254L57.7526 58.2988C59.636 58.5987 60.9572 56.5182 59.8363 54.9751L37.7423 24.9412C36.6185 23.4199 34.1735 23.9797 33.8789 25.8298Z" fill="#FFE9B8"/>
<path d="M31.3727 55.1837C29.6257 54.9055 28.4266 53.2835 28.6998 51.5675L32.8243 25.6624C33.0279 24.3836 33.9783 23.3742 35.2462 23.0914C35.6557 22.9979 36.0731 22.9839 36.4893 23.0502C37.3327 23.1844 38.1038 23.6497 38.6044 24.3276L60.6949 54.3833C61.4768 55.4412 61.5283 56.7861 60.8291 57.893C60.1289 59.0035 58.8859 59.5647 57.5845 59.3575L31.3726 55.1842L31.3727 55.1837ZM36.1809 25.13C36.0104 25.1029 35.8653 25.128 35.779 25.1428L35.72 25.1552C35.1534 25.3296 34.9779 25.722 34.9304 26.02L30.8095 51.9029C30.7178 52.4788 31.1354 53.0444 31.7221 53.1379L57.9336 57.3111C58.2375 57.3595 58.6727 57.3173 59.0172 56.8423C59.17 56.6321 59.3377 56.1426 58.996 55.645L36.8808 25.5548C36.7092 25.322 36.4668 25.1755 36.1809 25.13Z" fill="#4C2F1B"/>
<path d="M50.6256 32.9387C50.574 33.2626 50.7995 33.5683 51.1292 33.6208C51.4589 33.6733 51.7681 33.4533 51.8198 33.1289C51.8713 32.805 51.6458 32.4998 51.316 32.4473C50.9863 32.3948 50.6771 32.6149 50.6256 32.9387Z" fill="#FF7461"/>
<path d="M53.0063 34.4054C52.9547 34.7292 53.1803 35.0344 53.51 35.0869C53.8397 35.1394 54.1489 34.9194 54.2005 34.5955C54.252 34.2716 54.0265 33.9659 53.6968 33.9134C53.3671 33.8609 53.0579 34.081 53.0063 34.4054Z" fill="#FF7A6C"/>
<path d="M35.3458 40.733C35.2446 41.3686 35.687 41.9673 36.3341 42.0703C36.9811 42.1733 37.5876 41.7417 37.6888 41.1061C37.7543 40.6946 37.5917 40.2796 37.2618 40.0159C36.9323 39.7528 36.4857 39.6817 36.0903 39.8294C35.6948 39.9776 35.4113 40.3216 35.3458 40.733Z" fill="#FFD899"/>
<path d="M48.9246 52.4968C48.8234 53.1324 49.2659 53.7311 49.9129 53.8341C50.56 53.9371 51.1665 53.5054 51.2676 52.8699C51.3688 52.2343 50.9264 51.6356 50.2794 51.5326C49.6323 51.4296 49.0258 51.8612 48.9246 52.4968Z" fill="#FFD899"/>
<path d="M43.6451 44.53C43.5796 44.9414 43.7423 45.3564 44.0722 45.6202C44.4016 45.8833 44.8488 45.9545 45.2437 45.8067C45.6391 45.6585 45.9226 45.3144 45.9881 44.903C46.0536 44.4921 45.891 44.0765 45.561 43.8133C45.2316 43.5502 44.7844 43.479 44.3895 43.6268C43.9941 43.7745 43.7106 44.1191 43.6451 44.53Z" fill="#FFD899"/>
<path d="M42.7469 50.1714C42.6815 50.5823 42.8441 50.9979 43.174 51.2611C43.5035 51.5242 43.9507 51.5954 44.3455 51.4476C44.7409 51.2999 45.0245 50.9554 45.0899 50.5444C45.1554 50.133 44.9928 49.718 44.6629 49.4543C44.3335 49.1911 43.8863 49.12 43.4914 49.2677C43.0959 49.416 42.8124 49.76 42.7469 50.1714Z" fill="#FFD899"/>
<path d="M40.1354 46.0072C40.07 46.4182 40.2331 46.8338 40.5625 47.0969C40.8925 47.3601 41.3392 47.4312 41.734 47.2834C42.1294 47.1357 42.413 46.7912 42.4784 46.3803C42.5439 45.9689 42.3813 45.5538 42.0513 45.2906C41.7219 45.027 41.2748 44.9558 40.8798 45.1041C40.4849 45.2519 40.2008 45.5963 40.1354 46.0072Z" fill="#FFD899"/>
<path d="M40.7528 37.5446C40.6873 37.956 40.8499 38.3711 41.1798 38.6348C41.5093 38.8979 41.9564 38.9691 42.3513 38.8213C42.7463 38.673 43.0303 38.3291 43.0958 37.9176C43.1612 37.5067 42.9987 37.0912 42.6687 36.828C42.3387 36.5648 41.8921 36.4936 41.4972 36.6414C41.1019 36.7886 40.8182 37.1337 40.7528 37.5446Z" fill="#FFD899"/>
<path d="M34.1346 44.9361C34.0334 45.5717 34.4759 46.1704 35.1229 46.2734C35.77 46.3764 36.3764 45.9448 36.4776 45.3092C36.5431 44.8982 36.3805 44.4827 36.0505 44.2195C35.7211 43.9564 35.2739 43.8852 34.879 44.033C34.4836 44.1807 34.2001 44.5252 34.1346 44.9361Z" fill="#FFE3B6"/>
<path d="M36.0695 49.5016C36.004 49.913 36.1666 50.328 36.4965 50.5917C36.826 50.8549 37.2732 50.9261 37.668 50.7783C38.0635 50.63 38.347 50.286 38.4125 49.8746C38.4779 49.4637 38.3154 49.0481 37.9854 48.7849C37.6559 48.5218 37.2088 48.4506 36.8139 48.5984C36.4185 48.7461 36.1349 49.0906 36.0695 49.5016Z" fill="#FFE3B6"/>
<path d="M47.6519 48.3611C47.5507 48.9967 47.9931 49.5953 48.6402 49.6984C49.2873 49.8014 49.8937 49.3697 49.9949 48.7341C50.0961 48.0985 49.6537 47.4999 49.0066 47.3968C48.3597 47.2933 47.7531 47.7255 47.6519 48.3611Z" fill="#FFE3B6"/>
<path d="M36.448 36.0264C36.3468 36.662 36.7898 37.2607 37.4363 37.3637C38.0834 37.4667 38.6898 37.035 38.791 36.3994C38.8565 35.988 38.6939 35.573 38.364 35.3093C38.034 35.0461 37.5874 34.975 37.1925 35.1227C36.7975 35.271 36.5135 35.615 36.448 36.0264Z" fill="#FFE3B6"/>
</g>
<g clip-path="url(#clip1_135_626)">
<path d="M37.9329 23.0045L33.8118 48.8879C33.6286 50.0386 34.423 51.1141 35.5945 51.3006L61.8064 55.474C63.6904 55.7739 65.0111 53.6934 63.8903 52.1498L41.7958 22.1158C40.6755 20.5723 38.2311 21.1316 37.9329 23.0045Z" fill="#FCDB9A"/>
<path d="M34.3198 24.8358L39.1775 21.398C39.7583 21.0048 41.008 21.7356 41.4116 22.3089L63.4311 52.5161C63.7414 52.9355 64.1651 54.4148 63.2189 55.3284L59.3121 57.9691C58.8354 58.4484 58.3954 58.4017 57.9882 57.8506L34.7065 27.1415C34.2378 26.535 33.6823 25.2895 34.3198 24.8358Z" fill="#F7C18B"/>
<path d="M58.3931 59.6041C57.9567 59.5346 57.4038 59.308 56.9002 58.626L33.6365 27.943C33.4395 27.7036 32.5162 26.3995 32.7246 25.0908C32.8108 24.5494 33.1 24.0631 33.5485 23.7645L38.3836 20.3231C39.8109 19.3471 41.8268 20.5937 42.5011 21.5339L64.5206 51.7406C65.1248 52.5311 65.6866 54.7723 64.1766 56.267L63.9871 56.4221L60.1602 59.0059C59.5542 59.5575 58.9511 59.6462 58.5301 59.6259L58.3931 59.6041ZM35.4329 25.6839C35.4964 25.8793 35.6212 26.1306 35.7955 26.3664L58.803 56.731L62.3374 54.3553C62.6056 54.0047 62.4198 53.3966 62.3419 53.2918L40.3225 23.0846C40.2256 22.9534 39.9256 22.7671 39.7067 22.6627L35.4329 25.6839Z" fill="#4C2F1B"/>
<path d="M52.4397 53.0565C51.4516 52.8991 50.9819 52.1534 50.5926 51.4896C50.5152 51.3849 50.4642 51.261 50.3637 51.1522L37.0201 32.8781L37.0005 32.8517C36.3014 31.7685 36.1353 30.4464 36.5627 29.2417C36.9901 28.0369 37.9203 27.0746 39.1661 26.6482C40.6401 26.1197 42.6251 25.4867 43.255 25.3789C43.667 25.306 44.0369 25.2024 44.384 25.0958C45.0968 24.9084 45.7638 24.7136 46.5448 24.838C48.4973 25.1488 49.8166 27.0712 53.0736 33.0966C55.5829 37.7535 59.036 41.6583 61.569 44.5372C62.4855 45.5854 63.286 46.4767 63.8516 47.2143C64.2197 47.7124 64.3596 48.3132 64.2364 48.9411C63.9075 50.4158 62.1115 51.6341 61.4461 51.9676L61.2144 52.0926L53.9856 52.8159C53.5358 52.9767 53.0141 53.1479 52.4397 53.0565Z" fill="#FF9988"/>
<path d="M52.2747 54.0928C50.8203 53.8613 50.139 52.7726 49.6874 52.0522L49.6535 51.9995C49.5957 51.9213 49.53 51.833 49.4845 51.7474L36.1199 33.4394L36.1118 33.4101C35.2096 32.0238 35.0061 30.3823 35.5354 28.8726C36.0672 27.3669 37.2498 26.1932 38.7797 25.6517C40.0789 25.1721 42.2898 24.4703 43.0238 24.3324C43.2799 24.2766 43.5063 24.2182 43.7331 24.1609L44.2015 24.0425C44.9255 23.8578 45.7459 23.6486 46.6866 23.7984C49.2156 24.201 50.7743 26.6601 53.9851 32.6004C56.4215 37.1315 59.8215 40.9781 62.304 43.7861L62.346 43.8338C63.1301 44.712 64.02 45.7218 64.6806 46.5555C65.2515 47.3028 65.45 48.2258 65.2376 49.1519C64.717 51.433 61.9559 52.8598 61.9286 52.8721L61.4953 53.0853L61.04 53.1384L54.2268 53.822L54.1872 53.8385C53.5525 54.109 52.9094 54.1939 52.2747 54.0928ZM46.3603 25.8479C45.7961 25.7581 45.2696 25.9067 44.6026 26.0947C44.2575 26.1923 43.8664 26.3028 43.4169 26.3921C42.9276 26.4698 41.0047 27.0878 39.5104 27.6147C38.5929 27.9362 37.8847 28.6385 37.5677 29.5413C37.2479 30.4518 37.3655 31.4481 37.8906 32.2742L51.2439 50.5638C51.3327 50.6994 51.4186 50.837 51.4977 50.9638C51.8516 51.5312 52.1075 51.9414 52.6041 52.0205C52.8895 52.0659 53.202 51.9906 53.642 51.7686L60.8472 51.0416L60.8942 51.0179C61.6813 50.6202 62.94 49.6054 63.1435 48.6919C63.2163 48.3641 63.1535 48.062 62.961 47.8176C62.3934 47.0796 61.5886 46.1659 60.6568 45.1075C58.1194 42.2263 54.6439 38.2801 52.0966 33.56C48.9626 27.7239 47.7296 26.0659 46.3603 25.8479Z" fill="#4C2F1B"/>
<path d="M48.4722 50.4582C45.0721 49.9169 41.9063 47.6082 40.0072 44.2979C36.8705 38.8473 38.0696 32.351 42.6924 29.8015C44.3459 28.8848 46.2805 28.5681 48.2562 28.8827C51.6564 29.424 54.8216 31.7326 56.7212 35.0435C59.8579 40.4941 58.6587 46.9904 54.036 49.5399C52.3825 50.4561 50.4479 50.7728 48.4722 50.4582Z" fill="#FF624D"/>
<path d="M48.3073 51.4941C44.5805 50.9008 41.1256 48.4013 39.0661 44.8075C35.648 38.8717 37.0288 31.7318 42.1432 28.8911C43.9951 27.8633 46.157 27.5091 48.3944 27.8654C52.0985 28.4551 55.5528 30.9555 57.636 34.553C59.2588 37.3726 59.8718 40.5295 59.3621 43.4417C58.8194 46.562 57.1131 49.0575 54.5585 50.4679C52.7067 51.4956 50.5447 51.8503 48.3073 51.4941ZM48.0681 29.9149C46.333 29.6386 44.6484 29.9111 43.1971 30.7027C39.1098 32.9706 38.0931 38.8288 40.9298 43.7619C42.6935 46.8042 45.576 48.9116 48.6408 49.3996C50.3759 49.6758 52.0604 49.4034 53.5118 48.6118C57.5991 46.3433 58.6158 40.4857 55.7791 35.5525C54.0154 32.5097 51.1324 30.4027 48.0681 29.9149Z" fill="#4C2F1B"/>
<path d="M55.0001 40.9696C54.9485 41.2934 55.174 41.5991 55.5042 41.6517C55.8339 41.7042 56.1431 41.4841 56.1948 41.1598C56.2463 40.8359 56.0208 40.5307 55.6911 40.4782C55.3608 40.4256 55.0517 40.6457 55.0001 40.9696Z" fill="#FF7A6C"/>
<path d="M38.3207 24.709C38.3207 24.709 42.1942 22.5726 44.0412 25.6198C45.8876 28.6674 44.2365 29.4226 47.092 30.5715C49.948 31.72 47.7557 34.5412 49.4516 35.5745C51.148 36.6079 54.9316 35.7761 54.4844 39.1757C54.0376 42.5753 54.5873 42.5238 55.7667 43.8453C56.9692 45.1705 60.6668 43.3994 60.4601 46.7677C60.2271 50.1552 59.8433 50.0474 60.6286 51.3295C62.0285 53.6346 57.7379 54.2471 55.2066 53.428C52.6717 52.6311 54.2167 51.9514 53.3162 50.9519C52.4152 49.9523 36.0936 25.2339 36.0936 25.2339C36.0936 25.2339 36.1607 24.666 38.3207 24.709Z" fill="#6CEA90"/>
<path d="M56.0418 54.6947C55.6286 54.6289 55.2412 54.5439 54.8847 54.4176C53.2051 53.8726 52.5366 53.1876 52.5734 51.9212C52.5825 51.7146 52.5825 51.7146 52.5243 51.6358C51.6238 50.6362 37.9378 29.924 35.2048 25.7866L34.9955 25.4752L35.0333 25.0884C35.1384 24.1333 36.1581 23.6476 38.0425 23.6466C39.8037 22.7933 43.1604 22.1245 44.9532 25.0707C45.789 26.4766 45.9863 27.4565 46.1315 28.1739C46.285 28.985 46.3128 29.1051 47.4876 29.5697C49.7676 30.4879 49.7789 32.3411 49.7863 33.476C49.7789 34.262 49.8317 34.5246 50.0239 34.6476C50.3893 34.8677 51.0286 34.9928 51.6453 35.1138C53.2655 35.4413 56.0079 35.9703 55.5719 39.3021C55.2566 41.7275 55.4184 41.8923 56.1256 42.6296C56.2648 42.7903 56.4271 42.9552 56.6085 43.1465C56.7673 43.3337 57.49 43.3792 57.9567 43.4074C59.1926 43.4884 61.7745 43.6914 61.5542 46.8495C61.4848 47.8794 61.3924 48.6056 61.3325 49.1279C61.2095 50.1959 61.2095 50.1959 61.5633 50.7841C62.1428 51.7325 62.149 52.7287 61.5333 53.4868C60.4575 54.773 57.9716 55.002 56.0418 54.6947ZM54.7154 52.077C54.8 52.1366 55.0386 52.267 55.5331 52.4152C57.3931 53.0123 59.6058 52.578 59.8384 52.1522C59.8384 52.1522 59.8301 52.0585 59.7171 51.8786C59.0252 50.7504 59.0316 50.2653 59.2013 48.9043C59.2577 48.4043 59.3459 47.7007 59.4087 46.716C59.4714 45.7313 59.3442 45.6415 57.8065 45.5352C56.8272 45.4717 55.733 45.3903 54.9944 44.5551C54.832 44.3907 54.6929 44.2295 54.5733 44.0948C53.4218 42.8934 53.0402 42.1846 53.4479 39.0335C53.6224 37.7885 53.1849 37.5803 51.2658 37.2052C50.4653 37.0544 49.6224 36.874 48.934 36.4634C47.6648 35.7062 47.6826 34.4134 47.6651 33.4849C47.6536 32.3727 47.6337 31.9067 46.7244 31.5533C44.6438 30.713 44.3101 29.8499 44.0641 28.5847C43.9277 27.9616 43.8057 27.2479 43.1525 26.172C41.8655 24.0467 39.007 25.581 38.9003 25.6569L38.6418 25.801L38.359 25.8021C38.1488 25.792 37.9577 25.8078 37.7934 25.805C44.2654 35.6044 53.4622 49.4475 54.1777 50.2786C54.8004 50.9562 54.7843 51.6479 54.7727 52.016C54.7035 52.0056 54.7226 52.0319 54.7154 52.077Z" fill="#4C2F1B"/>
<path d="M33.8789 25.8298L29.758 51.7127C29.5747 52.8634 30.3691 53.9389 31.5406 54.1254L57.7526 58.2988C59.636 58.5987 60.9572 56.5182 59.8363 54.9751L37.7423 24.9412C36.6185 23.4199 34.1735 23.9797 33.8789 25.8298Z" fill="#FFE9B8"/>
<path d="M31.3727 55.1837C29.6257 54.9055 28.4266 53.2835 28.6998 51.5675L32.8243 25.6624C33.0279 24.3836 33.9783 23.3742 35.2462 23.0914C35.6557 22.9979 36.0731 22.9839 36.4893 23.0502C37.3327 23.1844 38.1038 23.6497 38.6044 24.3276L60.6949 54.3833C61.4768 55.4412 61.5283 56.7861 60.8291 57.893C60.1289 59.0035 58.8859 59.5647 57.5845 59.3575L31.3726 55.1842L31.3727 55.1837ZM36.1809 25.13C36.0104 25.1029 35.8653 25.128 35.779 25.1428L35.72 25.1552C35.1534 25.3296 34.9779 25.722 34.9304 26.02L30.8095 51.9029C30.7178 52.4788 31.1354 53.0444 31.7221 53.1379L57.9336 57.3111C58.2375 57.3595 58.6727 57.3173 59.0172 56.8423C59.17 56.6321 59.3377 56.1426 58.996 55.645L36.8808 25.5548C36.7092 25.322 36.4668 25.1755 36.1809 25.13Z" fill="#4C2F1B"/>
<path d="M50.6256 32.9387C50.574 33.2626 50.7995 33.5683 51.1292 33.6208C51.4589 33.6733 51.7681 33.4533 51.8198 33.1289C51.8713 32.805 51.6458 32.4998 51.316 32.4473C50.9863 32.3948 50.6771 32.6149 50.6256 32.9387Z" fill="#FF7461"/>
<path d="M53.0063 34.4054C52.9547 34.7292 53.1803 35.0344 53.51 35.0869C53.8397 35.1394 54.1489 34.9194 54.2005 34.5955C54.252 34.2716 54.0265 33.9659 53.6968 33.9134C53.3671 33.8609 53.0579 34.081 53.0063 34.4054Z" fill="#FF7A6C"/>
<path d="M35.3458 40.733C35.2446 41.3686 35.687 41.9673 36.3341 42.0703C36.9811 42.1733 37.5876 41.7417 37.6888 41.1061C37.7543 40.6946 37.5917 40.2796 37.2618 40.0159C36.9323 39.7528 36.4857 39.6817 36.0903 39.8294C35.6948 39.9776 35.4113 40.3216 35.3458 40.733Z" fill="#FFD899"/>
<path d="M48.9246 52.4968C48.8234 53.1324 49.2659 53.7311 49.9129 53.8341C50.56 53.9371 51.1665 53.5054 51.2676 52.8699C51.3688 52.2343 50.9264 51.6356 50.2794 51.5326C49.6323 51.4296 49.0258 51.8612 48.9246 52.4968Z" fill="#FFD899"/>
<path d="M43.6451 44.53C43.5796 44.9414 43.7423 45.3564 44.0722 45.6202C44.4016 45.8833 44.8488 45.9545 45.2437 45.8067C45.6391 45.6585 45.9226 45.3144 45.9881 44.903C46.0536 44.4921 45.891 44.0765 45.561 43.8133C45.2316 43.5502 44.7844 43.479 44.3895 43.6268C43.9941 43.7745 43.7106 44.1191 43.6451 44.53Z" fill="#FFD899"/>
<path d="M42.7469 50.1714C42.6815 50.5823 42.8441 50.9979 43.174 51.2611C43.5035 51.5242 43.9507 51.5954 44.3455 51.4476C44.7409 51.2999 45.0245 50.9554 45.0899 50.5444C45.1554 50.133 44.9928 49.718 44.6629 49.4543C44.3335 49.1911 43.8863 49.12 43.4914 49.2677C43.0959 49.416 42.8124 49.76 42.7469 50.1714Z" fill="#FFD899"/>
<path d="M40.1354 46.0072C40.07 46.4182 40.2331 46.8338 40.5625 47.0969C40.8925 47.3601 41.3392 47.4312 41.734 47.2834C42.1294 47.1357 42.413 46.7912 42.4784 46.3803C42.5439 45.9689 42.3813 45.5538 42.0513 45.2906C41.7219 45.027 41.2748 44.9558 40.8798 45.1041C40.4849 45.2519 40.2008 45.5963 40.1354 46.0072Z" fill="#FFD899"/>
<path d="M40.7528 37.5446C40.6873 37.956 40.8499 38.3711 41.1798 38.6348C41.5093 38.8979 41.9564 38.9691 42.3513 38.8213C42.7463 38.673 43.0303 38.3291 43.0958 37.9176C43.1612 37.5067 42.9987 37.0912 42.6687 36.828C42.3387 36.5648 41.8921 36.4936 41.4972 36.6414C41.1019 36.7886 40.8182 37.1337 40.7528 37.5446Z" fill="#FFD899"/>
<path d="M34.1346 44.9361C34.0334 45.5717 34.4759 46.1704 35.1229 46.2734C35.77 46.3764 36.3764 45.9448 36.4776 45.3092C36.5431 44.8982 36.3805 44.4827 36.0505 44.2195C35.7211 43.9564 35.2739 43.8852 34.879 44.033C34.4836 44.1807 34.2001 44.5252 34.1346 44.9361Z" fill="#FFE3B6"/>
<path d="M36.0695 49.5016C36.004 49.913 36.1666 50.328 36.4965 50.5917C36.826 50.8549 37.2732 50.9261 37.668 50.7783C38.0635 50.63 38.347 50.286 38.4125 49.8746C38.4779 49.4637 38.3154 49.0481 37.9854 48.7849C37.6559 48.5218 37.2088 48.4506 36.8139 48.5984C36.4185 48.7461 36.1349 49.0906 36.0695 49.5016Z" fill="#FFE3B6"/>
<path d="M47.6519 48.3611C47.5507 48.9967 47.9931 49.5953 48.6402 49.6984C49.2873 49.8014 49.8937 49.3697 49.9949 48.7341C50.0961 48.0985 49.6537 47.4999 49.0066 47.3968C48.3597 47.2933 47.7531 47.7255 47.6519 48.3611Z" fill="#FFE3B6"/>
<path d="M36.448 36.0264C36.3468 36.662 36.7898 37.2607 37.4363 37.3637C38.0834 37.4667 38.6898 37.035 38.791 36.3994C38.8565 35.988 38.6939 35.573 38.364 35.3093C38.034 35.0461 37.5874 34.975 37.1925 35.1227C36.7975 35.271 36.5135 35.615 36.448 36.0264Z" fill="#FFE3B6"/>
</g>
<path d="M36.8545 71.64C36.8545 71.6493 36.8498 71.682 36.8405 71.738C36.8405 71.794 36.8265 71.864 36.7985 71.948C36.7705 72.0227 36.7285 72.102 36.6725 72.186C36.6258 72.27 36.5558 72.34 36.4625 72.396C36.3598 72.4613 36.2525 72.494 36.1405 72.494C35.9538 72.494 35.7998 72.4473 35.6785 72.354C35.5758 72.2793 35.4965 72.186 35.4405 72.074C35.3658 71.9433 35.3145 71.7847 35.2865 71.598C35.2678 71.402 35.2538 71.206 35.2445 71.01C35.2445 70.8047 35.2491 70.604 35.2585 70.408C35.2678 70.2027 35.2725 70.03 35.2725 69.89V69.708C35.1698 69.7173 35.0671 69.722 34.9645 69.722C34.8711 69.722 34.7778 69.722 34.6845 69.722H34.6425V71.276C34.6331 71.3787 34.6191 71.486 34.6005 71.598C34.5818 71.7007 34.5445 71.8033 34.4885 71.906C34.4231 72.0273 34.3438 72.116 34.2505 72.172C34.1851 72.2187 34.1291 72.256 34.0825 72.284C34.0358 72.312 33.9705 72.326 33.8865 72.326C33.7558 72.326 33.6251 72.2887 33.4945 72.214C33.4011 72.158 33.3265 72.088 33.2705 72.004C33.2145 71.92 33.1725 71.8407 33.1445 71.766C33.1165 71.6913 33.0978 71.626 33.0885 71.57C33.0791 71.5047 33.0745 71.472 33.0745 71.472V66.572C33.0651 66.5253 33.0651 66.4227 33.0745 66.264C33.0931 66.096 33.1305 65.956 33.1865 65.844C33.2798 65.648 33.4711 65.536 33.7605 65.508C33.9191 65.4893 34.0498 65.4987 34.1525 65.536C34.2551 65.5733 34.3438 65.634 34.4185 65.718C34.4838 65.7927 34.5258 65.8673 34.5445 65.942C34.5631 66.0073 34.5818 66.0773 34.6005 66.152C34.6285 66.2453 34.6425 66.3433 34.6425 66.446C34.6518 66.5487 34.6565 66.6513 34.6565 66.754C34.6471 66.7913 34.6425 66.8473 34.6425 66.922V68.154C34.6891 68.1633 34.7731 68.1727 34.8945 68.182C35.0251 68.182 35.1558 68.1867 35.2865 68.196V66.88V66.712C35.2771 66.6093 35.2725 66.5113 35.2725 66.418C35.2818 66.3153 35.3005 66.2127 35.3285 66.11C35.3658 65.97 35.4498 65.83 35.5805 65.69C35.7298 65.5033 35.9491 65.4287 36.2385 65.466C36.4811 65.5033 36.6491 65.6247 36.7425 65.83C36.7985 65.942 36.8311 66.0773 36.8405 66.236C36.8591 66.3947 36.8638 66.4927 36.8545 66.53V71.64ZM36.8405 75.518C36.8871 75.8727 36.8265 76.148 36.6585 76.344C36.5465 76.4747 36.4251 76.554 36.2945 76.582C36.1638 76.61 36.0938 76.624 36.0845 76.624H29.3645C28.9818 76.624 28.6505 76.5633 28.3705 76.442C28.0905 76.33 27.9505 76.1667 27.9505 75.952V73.824C27.9318 73.6187 27.9318 73.4087 27.9505 73.194C27.9691 72.998 28.0438 72.8393 28.1745 72.718C28.3145 72.5967 28.4918 72.536 28.7065 72.536C28.7531 72.536 28.8371 72.5407 28.9585 72.55C29.0798 72.5593 29.1638 72.5733 29.2105 72.592C29.3318 72.6293 29.4251 72.6853 29.4905 72.76C29.5651 72.8253 29.6211 72.9093 29.6585 73.012C29.6958 73.1053 29.7191 73.208 29.7285 73.32C29.7378 73.4227 29.7471 73.5253 29.7565 73.628C29.7565 73.6747 29.7565 73.7633 29.7565 73.894C29.7658 74.0247 29.7705 74.1647 29.7705 74.314C29.7798 74.454 29.7845 74.5893 29.7845 74.72C29.7938 74.8507 29.8031 74.93 29.8125 74.958C29.8405 74.9673 29.9151 74.9813 30.0365 75C30.1671 75.0093 30.4051 75.014 30.7505 75.014C31.0491 75.014 31.2311 75.0093 31.2965 75C31.3711 74.9907 31.4131 74.986 31.4225 74.986H36.2105C36.2105 74.986 36.2385 74.9953 36.2945 75.014C36.3598 75.0327 36.4298 75.0607 36.5045 75.098C36.5791 75.1447 36.6491 75.2007 36.7145 75.266C36.7798 75.3407 36.8218 75.4247 36.8405 75.518ZM27.0965 71.57C26.9658 71.5047 26.8818 71.3973 26.8445 71.248C26.7698 71.0613 26.7558 70.8793 26.8025 70.702C26.8491 70.5153 26.9238 70.338 27.0265 70.17C27.1291 70.002 27.2411 69.8433 27.3625 69.694C27.4931 69.5447 27.6051 69.4047 27.6985 69.274C27.8291 69.078 27.9598 68.9007 28.0905 68.742C28.2305 68.5833 28.3705 68.4013 28.5105 68.196C28.6038 68.0373 28.7065 67.874 28.8185 67.706C28.9398 67.5287 29.0098 67.3373 29.0285 67.132C29.0285 66.9733 29.0331 66.81 29.0425 66.642C29.0518 66.474 29.0751 66.3247 29.1125 66.194C29.1591 66.054 29.2291 65.942 29.3225 65.858C29.4158 65.7647 29.5511 65.718 29.7285 65.718C29.8685 65.718 30.0318 65.7367 30.2185 65.774C30.4051 65.802 30.5265 65.8907 30.5825 66.04C30.6198 66.124 30.6385 66.222 30.6385 66.334C30.6478 66.4367 30.6525 66.544 30.6525 66.656C30.6525 66.768 30.6525 66.88 30.6525 66.992C30.6525 67.0947 30.6665 67.188 30.6945 67.272C30.7411 67.4307 30.7831 67.566 30.8205 67.678C30.8671 67.79 30.9278 67.9113 31.0025 68.042C31.1611 68.322 31.3151 68.5647 31.4645 68.77C31.6231 68.966 31.7865 69.1947 31.9545 69.456C32.0851 69.652 32.2018 69.848 32.3045 70.044C32.4165 70.2307 32.4958 70.4453 32.5425 70.688C32.5798 70.884 32.5611 71.052 32.4865 71.192C32.4118 71.332 32.3045 71.4347 32.1645 71.5C32.0338 71.556 31.8891 71.57 31.7305 71.542C31.5811 71.514 31.4505 71.4347 31.3385 71.304L29.8125 69.246L28.3425 71.08C28.2491 71.192 28.1418 71.2993 28.0205 71.402C27.9085 71.4953 27.7871 71.5607 27.6565 71.598C27.5538 71.6167 27.4511 71.6307 27.3485 71.64C27.2551 71.64 27.1711 71.6167 27.0965 71.57ZM47.031 70.786C47.1337 70.8327 47.213 70.912 47.269 71.024C47.3344 71.1267 47.381 71.2293 47.409 71.332C47.4557 71.5373 47.409 71.724 47.269 71.892C47.1384 72.0507 46.9797 72.172 46.793 72.256C46.6157 72.34 46.4244 72.4007 46.219 72.438C46.0137 72.466 45.8037 72.48 45.589 72.48C45.3744 72.48 45.1737 72.48 44.987 72.48C44.2404 72.48 43.4844 72.4893 42.719 72.508C41.963 72.5173 41.207 72.5127 40.451 72.494C40.3204 72.494 40.185 72.4893 40.045 72.48C39.905 72.4613 39.7697 72.4333 39.639 72.396C39.5084 72.3493 39.387 72.284 39.275 72.2C39.1724 72.116 39.0884 72.0087 39.023 71.878C38.939 71.71 38.8784 71.5187 38.841 71.304C38.813 71.0893 38.7944 70.8653 38.785 70.632C38.7757 70.3987 38.771 70.17 38.771 69.946C38.7804 69.722 38.785 69.5213 38.785 69.344V67.986C38.785 67.9673 38.7804 67.8973 38.771 67.776C38.7617 67.6547 38.757 67.5193 38.757 67.37C38.7664 67.2113 38.7804 67.0527 38.799 66.894C38.827 66.726 38.8784 66.586 38.953 66.474C39.009 66.3807 39.0977 66.306 39.219 66.25C39.3404 66.194 39.4617 66.152 39.583 66.124C39.7137 66.096 39.8304 66.0773 39.933 66.068C40.0357 66.0587 40.101 66.054 40.129 66.054H45.729C45.7384 66.054 45.813 66.0587 45.953 66.068C46.093 66.068 46.247 66.082 46.415 66.11C46.583 66.138 46.7464 66.1893 46.905 66.264C47.0637 66.3387 47.1664 66.4507 47.213 66.6C47.2224 66.656 47.2317 66.726 47.241 66.81C47.2504 66.8847 47.255 66.964 47.255 67.048C47.255 67.132 47.2457 67.2113 47.227 67.286C47.2177 67.3607 47.2037 67.4167 47.185 67.454C47.1477 67.5193 47.0824 67.5753 46.989 67.622C46.8957 67.6593 46.8117 67.6873 46.737 67.706C46.653 67.7247 46.5457 67.7433 46.415 67.762C46.2844 67.7807 46.1304 67.79 45.953 67.79H45.519C45.155 67.7713 44.8237 67.762 44.525 67.762C44.2264 67.7527 43.9277 67.7527 43.629 67.762C43.3397 67.762 43.0364 67.7667 42.719 67.776C42.4017 67.776 42.033 67.7807 41.613 67.79C41.5384 67.79 41.4544 67.7853 41.361 67.776C41.277 67.7667 41.1884 67.7667 41.095 67.776C41.011 67.7853 40.9317 67.804 40.857 67.832C40.7917 67.86 40.7497 67.9113 40.731 67.986C40.6937 68.1447 40.6797 68.3407 40.689 68.574C40.6984 68.8073 40.6937 69.008 40.675 69.176C40.675 69.2413 40.6704 69.3393 40.661 69.47C40.661 69.6007 40.661 69.736 40.661 69.876C40.6704 70.016 40.689 70.1467 40.717 70.268C40.745 70.3893 40.7917 70.4687 40.857 70.506C40.9317 70.5527 41.0297 70.576 41.151 70.576C41.2724 70.576 41.3704 70.576 41.445 70.576C42.201 70.604 42.9477 70.6133 43.685 70.604C44.4224 70.5853 45.1597 70.576 45.897 70.576C46.345 70.576 46.723 70.646 47.031 70.786ZM39.191 75.742C39.0417 75.7327 38.8924 75.7093 38.743 75.672C38.603 75.644 38.477 75.5973 38.365 75.532C38.253 75.476 38.1597 75.392 38.085 75.28C38.0197 75.168 37.987 75.0187 37.987 74.832C37.987 74.6453 38.0477 74.482 38.169 74.342C38.2437 74.2673 38.337 74.2113 38.449 74.174C38.561 74.1367 38.6684 74.1087 38.771 74.09C38.8737 74.0713 38.9624 74.062 39.037 74.062C39.121 74.062 39.1677 74.062 39.177 74.062L46.835 74.076C47.0777 74.076 47.297 74.0807 47.493 74.09C47.6984 74.09 47.8804 74.1553 48.039 74.286C48.235 74.4633 48.333 74.664 48.333 74.888C48.333 75.028 48.291 75.154 48.207 75.266C48.123 75.3873 48.011 75.4713 47.871 75.518C47.6844 75.5927 47.4884 75.644 47.283 75.672C47.087 75.7 46.891 75.7187 46.695 75.728C46.0137 75.756 45.3417 75.7653 44.679 75.756C44.0164 75.7467 43.3724 75.742 42.747 75.742C42.075 75.742 41.417 75.7467 40.773 75.756C40.1384 75.7653 39.611 75.7607 39.191 75.742ZM54.7352 65.774C54.8939 65.8393 55.0432 65.914 55.1832 65.998C55.3325 66.0727 55.4725 66.1613 55.6032 66.264C55.7525 66.404 55.8879 66.558 56.0092 66.726C56.1305 66.894 56.2145 67.076 56.2612 67.272C56.3079 67.4493 56.3452 67.636 56.3732 67.832C56.4105 68.0187 56.4199 68.2053 56.4012 68.392C56.3919 68.5133 56.3779 68.6347 56.3592 68.756C56.3499 68.8773 56.3265 68.994 56.2892 69.106C56.2145 69.4233 56.0839 69.722 55.8972 70.002C55.7105 70.2727 55.4585 70.4967 55.1412 70.674C54.9079 70.8047 54.6605 70.9027 54.3992 70.968C54.1472 71.024 53.8859 71.0707 53.6152 71.108C53.5219 71.1267 53.4332 71.1407 53.3492 71.15C53.2652 71.15 53.1765 71.1547 53.0832 71.164C53.0085 71.1733 52.9292 71.178 52.8452 71.178C52.7705 71.1687 52.6912 71.1593 52.6072 71.15C52.4765 71.1407 52.3459 71.1313 52.2152 71.122C52.0939 71.1033 51.9679 71.0893 51.8372 71.08C51.5759 71.0427 51.3192 70.9773 51.0672 70.884C50.8152 70.7813 50.5865 70.66 50.3812 70.52C49.9892 70.2587 49.7139 69.9273 49.5552 69.526C49.4059 69.1247 49.3312 68.714 49.3312 68.294C49.3312 68.0887 49.3545 67.874 49.4012 67.65C49.4479 67.426 49.5225 67.2113 49.6252 67.006C49.7279 66.8007 49.8585 66.6093 50.0172 66.432C50.1759 66.2453 50.3672 66.082 50.5912 65.942C50.7592 65.8393 50.9319 65.7553 51.1092 65.69C51.2865 65.6153 51.4732 65.5547 51.6692 65.508C51.9772 65.452 52.2899 65.424 52.6072 65.424C52.9805 65.4053 53.3305 65.424 53.6572 65.48C53.7412 65.4987 53.8252 65.5173 53.9092 65.536C53.9932 65.5453 54.0772 65.5593 54.1612 65.578C54.3665 65.634 54.5579 65.6993 54.7352 65.774ZM59.3412 76.288C59.2945 76.4093 59.2059 76.5073 59.0752 76.582C58.9725 76.6473 58.8605 76.6847 58.7392 76.694C58.6179 76.7127 58.4965 76.7127 58.3752 76.694C58.2352 76.666 58.1185 76.61 58.0252 76.526C57.9412 76.4513 57.8759 76.3533 57.8292 76.232C57.7919 76.12 57.7592 76.008 57.7312 75.896C57.7125 75.784 57.7032 75.686 57.7032 75.602C57.7032 75.518 57.7032 75.476 57.7032 75.476V66.95C57.7032 66.8473 57.7032 66.7307 57.7032 66.6C57.7032 66.4693 57.7125 66.3387 57.7312 66.208C57.7499 66.0773 57.7732 65.9607 57.8012 65.858C57.8385 65.746 57.8899 65.6573 57.9552 65.592C58.0579 65.4893 58.1652 65.4287 58.2772 65.41C58.3892 65.3913 58.5105 65.382 58.6412 65.382C58.7999 65.382 58.9445 65.424 59.0752 65.508C59.2059 65.592 59.2992 65.7087 59.3552 65.858C59.4392 66.054 59.4859 66.2593 59.4952 66.474C59.5045 66.6793 59.5139 66.8893 59.5232 67.104C59.5419 67.8507 59.5465 68.5973 59.5372 69.344C59.5279 70.0907 59.5232 70.7953 59.5232 71.458V74.958C59.5232 75.1727 59.5092 75.3873 59.4812 75.602C59.4625 75.826 59.4159 76.0547 59.3412 76.288ZM49.9892 73.474C49.8585 73.4647 49.7279 73.4413 49.5972 73.404C49.4665 73.3573 49.3452 73.2733 49.2332 73.152C49.1212 73.04 49.0652 72.8767 49.0652 72.662C49.0652 72.466 49.1212 72.3027 49.2332 72.172C49.2985 72.0973 49.3779 72.0413 49.4712 72.004C49.5739 71.9667 49.6719 71.9387 49.7652 71.92C49.8585 71.9013 49.9379 71.892 50.0032 71.892C50.0779 71.892 50.1199 71.892 50.1292 71.892H55.6312C55.8179 71.892 56.0139 71.9013 56.2192 71.92C56.4245 71.9387 56.5972 72.0133 56.7372 72.144C56.8212 72.228 56.8772 72.3167 56.9052 72.41C56.9425 72.5033 56.9612 72.606 56.9612 72.718C56.9612 72.858 56.9285 72.9887 56.8632 73.11C56.7979 73.222 56.6999 73.3013 56.5692 73.348C56.4012 73.4227 56.2285 73.4693 56.0512 73.488C55.8739 73.4973 55.6965 73.5067 55.5192 73.516C55.2392 73.5253 55.0245 73.5347 54.8752 73.544C54.7352 73.5533 54.6139 73.5627 54.5112 73.572C54.4179 73.572 54.3245 73.572 54.2312 73.572C54.1379 73.572 54.0072 73.572 53.8392 73.572L53.8112 75.532C53.8112 75.672 53.7832 75.8027 53.7272 75.924C53.6712 76.0453 53.5919 76.148 53.4892 76.232C53.3959 76.3253 53.2885 76.3953 53.1672 76.442C53.0459 76.4887 52.9199 76.5073 52.7892 76.498C52.6865 76.4887 52.5885 76.47 52.4952 76.442C52.4019 76.414 52.3179 76.3673 52.2432 76.302C52.1685 76.246 52.1079 76.162 52.0612 76.05C52.0145 75.9473 51.9912 75.8073 51.9912 75.63L51.9492 73.558C51.6225 73.5487 51.3099 73.5393 51.0112 73.53C50.7219 73.5113 50.3812 73.4927 49.9892 73.474ZM54.4832 68.728C54.5392 68.4573 54.5205 68.2007 54.4272 67.958C54.4085 67.9113 54.3852 67.86 54.3572 67.804C54.3292 67.748 54.2919 67.6967 54.2452 67.65C54.1985 67.594 54.1519 67.5473 54.1052 67.51C54.0679 67.4633 54.0119 67.4167 53.9372 67.37C53.8719 67.3233 53.7972 67.2813 53.7132 67.244C53.6385 67.2067 53.5592 67.174 53.4752 67.146C53.2325 67.0807 52.9899 67.048 52.7472 67.048C52.5045 67.048 52.2805 67.0853 52.0752 67.16C51.8699 67.2347 51.6925 67.3513 51.5432 67.51C51.3939 67.6687 51.3005 67.874 51.2632 68.126C51.2352 68.2847 51.2305 68.448 51.2492 68.616C51.2772 68.784 51.3379 68.9333 51.4312 69.064C51.6272 69.316 51.8979 69.5027 52.2432 69.624C52.3739 69.6707 52.5045 69.7033 52.6352 69.722C52.7659 69.7313 52.8965 69.7313 53.0272 69.722C53.1579 69.7127 53.2885 69.6987 53.4192 69.68C53.5592 69.6613 53.6899 69.624 53.8112 69.568C53.9885 69.484 54.1332 69.3673 54.2452 69.218C54.3572 69.0593 54.4365 68.896 54.4832 68.728ZM62.9123 71.934C62.9683 71.878 63.0196 71.8127 63.0663 71.738C63.1223 71.654 63.1643 71.598 63.1923 71.57V68.406C63.1456 68.4247 63.1036 68.4293 63.0663 68.42C63.0289 68.4107 62.9869 68.406 62.9403 68.406H62.5623C62.2356 68.406 61.9509 68.4013 61.7083 68.392C61.4749 68.3827 61.3256 68.3687 61.2603 68.35C61.0923 68.3127 60.9476 68.252 60.8263 68.168C60.7143 68.0747 60.6303 67.944 60.5743 67.776C60.5556 67.7107 60.5416 67.65 60.5323 67.594C60.5229 67.538 60.5276 67.4727 60.5463 67.398C60.5463 67.3047 60.5929 67.188 60.6863 67.048C60.7143 67.0013 60.7563 66.9593 60.8123 66.922C60.8683 66.8847 60.9243 66.852 60.9803 66.824C61.0363 66.7773 61.0923 66.7493 61.1483 66.74C61.2043 66.7213 61.2603 66.7027 61.3163 66.684H63.1643C63.1643 66.5813 63.1689 66.446 63.1783 66.278C63.1876 66.1007 63.1923 65.97 63.1923 65.886C63.2109 65.7647 63.2389 65.6573 63.2763 65.564C63.3136 65.4613 63.3556 65.368 63.4023 65.284C63.5143 65.1067 63.6776 64.99 63.8923 64.934C63.9949 64.8873 64.0976 64.8687 64.2003 64.878C64.3123 64.8873 64.4196 64.9153 64.5223 64.962C64.5969 64.99 64.6623 65.032 64.7183 65.088C64.7836 65.1347 64.8303 65.1907 64.8583 65.256C64.9703 65.3867 65.0403 65.5173 65.0683 65.648C65.0869 65.7227 65.1009 65.802 65.1103 65.886C65.1196 65.97 65.1243 66.054 65.1243 66.138V66.684H66.0763C66.2629 66.684 66.4309 66.6887 66.5803 66.698C66.7296 66.7073 66.8696 66.7213 67.0003 66.74C67.1309 66.768 67.2476 66.8193 67.3503 66.894C67.4623 66.9593 67.5556 67.0527 67.6303 67.174C67.7049 67.2953 67.7423 67.426 67.7423 67.566C67.7703 67.6687 67.7516 67.7853 67.6863 67.916C67.5743 68.1307 67.3549 68.2753 67.0283 68.35C66.9256 68.3687 66.8089 68.378 66.6783 68.378C66.5569 68.378 66.4263 68.3873 66.2863 68.406C66.1369 68.406 65.9643 68.4107 65.7683 68.42C65.5723 68.4293 65.3576 68.4247 65.1243 68.406C65.1243 68.4807 65.1196 68.5693 65.1103 68.672C65.1103 68.7747 65.1103 68.8773 65.1103 68.98C65.1103 69.0827 65.1103 69.1807 65.1103 69.274C65.1103 69.358 65.1149 69.428 65.1243 69.484V71.024C65.1243 71.0707 65.1196 71.1173 65.1103 71.164C65.1009 71.2013 65.1056 71.248 65.1243 71.304V71.528C65.1709 71.5653 65.2129 71.6167 65.2503 71.682C65.2969 71.738 65.3576 71.8033 65.4323 71.878C65.4976 71.934 65.5489 71.99 65.5863 72.046C65.6329 72.102 65.6796 72.1533 65.7263 72.2C65.7729 72.256 65.8149 72.312 65.8523 72.368C65.8989 72.424 65.9503 72.48 66.0063 72.536C66.0529 72.5827 66.0996 72.6387 66.1463 72.704C66.1929 72.7693 66.2443 72.83 66.3003 72.886C66.3283 72.9327 66.3563 72.9747 66.3843 73.012C66.4123 73.0493 66.4403 73.082 66.4683 73.11C66.5243 73.194 66.5709 73.2733 66.6083 73.348C66.7016 73.46 66.7903 73.5767 66.8743 73.698C66.9583 73.81 67.0423 73.9407 67.1263 74.09C67.2289 74.2207 67.3083 74.356 67.3643 74.496C67.4296 74.6267 67.4763 74.7573 67.5043 74.888C67.5323 75.0187 67.5323 75.154 67.5043 75.294C67.4763 75.434 67.4109 75.56 67.3083 75.672C67.1776 75.784 67.0049 75.84 66.7903 75.84C66.6876 75.84 66.5896 75.826 66.4963 75.798C66.4123 75.7793 66.3189 75.7467 66.2163 75.7C66.1229 75.644 66.0389 75.5833 65.9643 75.518C65.8989 75.462 65.8289 75.406 65.7543 75.35C65.6703 75.266 65.5909 75.1727 65.5163 75.07C65.4416 74.9767 65.3669 74.888 65.2923 74.804C65.2176 74.72 65.1429 74.6313 65.0683 74.538C65.0029 74.4353 64.9329 74.3327 64.8583 74.23C64.7556 74.1273 64.6436 73.992 64.5223 73.824C64.4663 73.74 64.4009 73.67 64.3263 73.614C64.2609 73.5487 64.2003 73.488 64.1443 73.432C64.0883 73.5067 64.0323 73.5813 63.9763 73.656C63.9203 73.7213 63.8643 73.7913 63.8083 73.866C63.7429 73.9407 63.6823 74.0107 63.6263 74.076C63.5703 74.1413 63.5143 74.2113 63.4583 74.286C63.4023 74.3793 63.3369 74.4727 63.2623 74.566C63.1969 74.6593 63.1269 74.748 63.0523 74.832C62.9963 74.9253 62.9309 75.0187 62.8563 75.112C62.7909 75.2053 62.7116 75.294 62.6183 75.378C62.4316 75.5647 62.2543 75.6907 62.0863 75.756C61.9276 75.8307 61.7643 75.868 61.5963 75.868C61.5496 75.868 61.5029 75.868 61.4563 75.868C61.4189 75.868 61.3769 75.8587 61.3303 75.84C61.1343 75.784 60.9896 75.658 60.8963 75.462C60.8309 75.3127 60.8123 75.1633 60.8403 75.014C60.8589 74.9207 60.8776 74.8367 60.8963 74.762C60.9149 74.678 60.9476 74.608 60.9943 74.552C61.0223 74.4773 61.0549 74.4073 61.0923 74.342C61.1296 74.2673 61.1716 74.1927 61.2183 74.118C61.2649 74.062 61.3069 74.0013 61.3443 73.936C61.3909 73.8707 61.4469 73.8053 61.5123 73.74C61.5403 73.712 61.5683 73.6793 61.5963 73.642C61.6243 73.6047 61.6523 73.572 61.6803 73.544L61.8483 73.292C61.8763 73.2267 61.9089 73.1753 61.9463 73.138C61.9836 73.0913 62.0396 73.0167 62.1143 72.914C62.1889 72.83 62.2589 72.746 62.3243 72.662C62.3896 72.578 62.4503 72.4987 62.5063 72.424C62.5809 72.34 62.6509 72.256 62.7163 72.172C62.7909 72.088 62.8563 72.0087 62.9123 71.934ZM70.5703 75.462C70.5516 75.518 70.5423 75.574 70.5423 75.63C70.5423 75.686 70.5329 75.742 70.5143 75.798C70.5143 75.9473 70.4723 76.106 70.3883 76.274C70.3136 76.442 70.2109 76.5633 70.0803 76.638C69.9776 76.6847 69.8656 76.7127 69.7443 76.722C69.6323 76.7407 69.5249 76.7407 69.4223 76.722C69.2169 76.6753 69.0676 76.5727 68.9743 76.414C68.8809 76.2647 68.8203 76.0967 68.7923 75.91C68.7736 75.8353 68.7643 75.7653 68.7643 75.7C68.7643 75.6347 68.7549 75.5647 68.7363 75.49C68.7363 75.3593 68.7409 75.21 68.7503 75.042C68.7596 74.8833 68.7643 74.7247 68.7643 74.566C68.7456 74.2207 68.7409 73.8847 68.7503 73.558C68.7596 73.222 68.7643 72.8767 68.7643 72.522C68.7643 72.1207 68.7596 71.7193 68.7503 71.318C68.7409 70.9073 68.7456 70.4967 68.7643 70.086V66.236C68.7829 66.1613 68.7969 66.096 68.8063 66.04C68.8156 65.984 68.8296 65.928 68.8483 65.872C68.8763 65.816 68.8996 65.7647 68.9183 65.718C68.9369 65.6713 68.9696 65.634 69.0163 65.606C69.0629 65.5593 69.1143 65.522 69.1703 65.494C69.2263 65.4567 69.2823 65.438 69.3383 65.438C69.3943 65.4193 69.4503 65.4053 69.5063 65.396C69.5623 65.3867 69.6183 65.382 69.6743 65.382C69.8423 65.382 69.9869 65.4287 70.1083 65.522C70.2483 65.606 70.3463 65.732 70.4023 65.9C70.4956 66.0867 70.5423 66.2873 70.5423 66.502C70.5609 66.7913 70.5703 67.076 70.5703 67.356C70.5703 67.6267 70.5703 67.9067 70.5703 68.196C70.5983 68.588 70.5983 68.98 70.5703 69.372V75.462Z" fill="#24221B"/>
<defs>
<clipPath id="clip0_135_626">
<rect width="36.5883" height="36.2155" fill="white" transform="translate(33.6943 19) rotate(9.04645)"/>
</clipPath>
<clipPath id="clip1_135_626">
<rect width="36.5883" height="36.2155" fill="white" transform="translate(33.6943 19) rotate(9.04645)"/>
</clipPath>
</defs>
</svg>
